<?xml version="1.0" encoding="UTF-8" standalone="no"?>
<svg
   xmlns:dc="http://purl.org/dc/elements/1.1/"
   xmlns:cc="http://creativecommons.org/ns#"
   xmlns:rdf="http://www.w3.org/1999/02/22-rdf-syntax-ns#"
   xmlns:svg="http://www.w3.org/2000/svg"
   xmlns="http://www.w3.org/2000/svg"
   viewBox="0 0 1600 1066.6667"
   height="700px"
   width="1000px"
   xml:space="preserve"
   id="svg2"
   version="1.1">

   <metadata
     id="metadata8"><rdf:RDF><cc:Work
         rdf:about=""><dc:format>image/svg+xml</dc:format><dc:type
           rdf:resource="http://purl.org/dc/dcmitype/StillImage" /></cc:Work></rdf:RDF></metadata><defs
     id="defs6" /><g
     transform="matrix(1.3333333,0,0,-1.3333333,0,1066.6667)"
     id="g10"><g
       transform="scale(0.1)"
       id="g12"><path
         id="path590"
         fill="#427287"
         style="fill-opacity:1;fill-rule:nonzero;"
         d="m 6662.24,634.109 c -164.39,0 -327.98,3.161 -490.04,6.27 -103.38,1.992 -210.29,4.051 -315.26,5.25 -670.71,7.633 -1274.5,144.551 -1913.75,289.5 -150.39,34.101 -305.91,69.361 -461.7,102.661 l 10.45,48.89 c 156.1,-33.36 311.77,-68.65 462.31,-102.789 636.58,-144.352 1237.86,-280.692 1903.25,-288.262 105.18,-1.207 212.18,-3.27 315.65,-5.258 553.84,-10.641 1126.56,-21.68 1679.7,94.68 515.69,108.488 1012.21,287.059 1475.77,530.769 989.38,520.16 1651.38,1080.99 2023.68,1714.53 313.1,532.63 387.2,1086.93 220.4,1647.5 -127.7,429.43 -403.2,863.45 -796.5,1255.16 -352.5,351.14 -787.63,660.33 -1258.24,894.15 -826.65,410.72 -1818.04,649.88 -2946.64,710.85 -1141.24,61.65 -2191.8,-59.18 -3122.53,-359.18 -496.37,-160 -1221.38,-458.62 -1856.5,-972.64 C 977.922,5708.96 602.949,5134.33 477.797,4498.26 371.605,3958.56 402.043,3223.55 805.93,2779.17 1034.85,2527.32 1048.69,2375.79 867.645,2103.62 800.41,2002.54 704.371,1941.47 611.488,1882.4 526.363,1828.27 445.957,1777.14 385.875,1697.52 c -50.23,-66.56 -59.219,-154.01 -21.867,-212.67 29.808,-46.8 90.305,-75.49 146.965,-69.75 61.718,6.24 96.386,54.28 133.09,105.14 13.566,18.8 27.593,38.24 43.179,55.71 71.172,79.74 170.563,138.42 274.723,196.42 162.545,90.51 327.595,129.64 502.325,171.07 l 23.57,5.55 c 59.84,10.84 112.24,12.87 160.21,6.17 96.4,-16.44 167.31,-46.28 223.89,-94.02 l 1.82,-1.69 c 10.86,-11.19 21.95,-21.96 32.67,-32.37 21.68,-21.06 42.16,-40.97 60.79,-63.86 22.52,-22.91 48.6,-37.05 70.1,-38 84.21,2.26 164.73,-38.88 233.09,-118.56 l -37.94,-32.56 c -59.28,69.06 -124.61,103.22 -194.57,101.12 l -0.76,-0.02 -0.75,0.02 c -49.75,1.6 -90.55,38.25 -105.79,53.93 l -1.5,1.7 c -16.95,20.96 -36.65,40.1 -57.51,60.36 -10.69,10.39 -21.74,21.12 -32.81,32.49 -49.36,41.3 -112.44,67.38 -198.39,82.05 -41.72,5.81 -88.74,3.95 -142.99,-5.84 l -21.59,-5.12 C 1304.56,1854.18 1142.78,1815.82 986.289,1728.68 886.012,1672.84 790.535,1616.59 724.547,1542.65 710.684,1527.12 698.02,1509.57 684.609,1490.99 644.988,1436.08 600.082,1373.85 516,1365.35 c -75.961,-7.62 -153.984,29.56 -194.16,92.65 -56.711,89.03 -28.75,199.58 24.121,269.64 65.531,86.83 153.566,142.82 238.703,196.96 92.559,58.86 179.981,114.44 241.352,206.72 168.246,252.93 156.507,379.22 -57.09,614.22 -416.36,458.09 -448.727,1210.75 -340.192,1762.37 127.477,647.88 508.371,1232.34 1132.096,1737.15 641.11,518.87 1372.2,820.06 1872.62,981.36 936.59,301.87 1993.27,423.5 3140.56,361.51 1135.44,-61.33 2133.41,-302.23 2966.19,-716 475.4,-236.18 915,-548.6 1271.3,-903.49 399.2,-397.58 679,-838.93 809.2,-1276.33 170.8,-574.4 95.1,-1142.02 -225.3,-1687.09 C 11018.2,2363.2 10349.8,1796.18 9351.88,1271.56 8884.24,1025.7 8383.36,845.563 7863.14,736.121 7467.09,652.801 7062.49,634.109 6662.24,634.109" /><path
         id="path592"
         style="fill:#427287;fill-opacity:1;fill-rule:nonzero;stroke:none"
         d="m 3221.91,1574.82 v 0 z M 1605.53,1214.81 c -5.36,0 -10.75,-0.7 -16.11,-2.25 -16.58,-4.81 -31.07,-17.73 -41.84,-28.45 -112.75,-112.16 -125.44,-310.571 -28.89,-451.719 24.24,-35.442 58.15,-70.571 101.64,-102.211 73.4,65.929 124.14,145.3 145.43,228.949 29.43,115.66 -2.41,239.671 -81.11,315.961 -10.51,10.19 -44.04,39.72 -79.12,39.72 z m 866.68,-818.431 c -28.64,0 -57.98,5.922 -85.52,18.031 -67.79,29.84 -134.53,56.012 -205.39,48.52 -134.12,-14.149 -270.9,-4.188 -385.15,28.062 -65.52,18.469 -123.62,43.68 -174.01,75.399 -10.96,-8.661 -22.29,-17.02 -33.99,-25.121 C 1442.51,440.539 1259.96,392.621 1074.2,406.242 885.742,420.102 704.68,490.77 589.863,595.289 c -85.5,77.852 -144.937,195.961 -163.07,324.07 -18.563,131.081 6.215,256.931 69.766,354.351 l 41.875,-27.32 C 421.438,1067.02 461.195,780.051 623.523,632.27 728.75,536.48 902.844,468.98 1077.87,456.102 c 174.43,-12.821 345.56,32.039 481.83,126.277 6.64,4.59 13.14,9.281 19.51,14.062 -39.93,31.028 -73.92,66.989 -101.79,107.731 -109.71,160.387 -94.39,386.778 34.89,515.378 14.99,14.92 35.72,33.08 63.19,41.04 45.4,13.13 97.86,-4.93 143.95,-49.6 91.33,-88.54 128.53,-231.49 94.76,-364.177 -22.76,-89.473 -75.24,-174.094 -150.74,-244.891 117.1,-69.063 288.06,-112.934 512.59,-89.262 83.1,8.742 156.57,-19.82 230.77,-52.48 44.04,-19.371 107.88,-22.078 151.23,15.57 13.24,11.52 19.88,26.25 26.91,41.859 13.41,29.762 30.1,66.813 93.37,72.813 48.59,4.59 89.94,-10.281 129.95,-24.703 42.09,-15.156 81.85,-29.469 128.31,-20.278 20.21,4.008 41.2,11.7 66.05,24.188 46.44,23.351 108.69,65.172 141.48,131.781 27.15,55.121 12.66,95.66 -7.39,151.75 -4.71,13.192 -9.59,26.809 -14.12,41.34 -7.46,23.891 -7.6,46.121 -7.72,65.719 -0.09,14.011 -0.17,27.25 -2.78,40.111 -1.58,7.82 -10.09,21.25 -17.59,33.11 -16.33,25.79 -34.84,55.02 -24.65,84.33 7.36,21.2 28.65,37.39 51.19,54.53 15.02,11.41 32.04,24.35 38.25,34.8 24.23,40.78 42.17,92.46 53.3,153.62 5.96,54.88 -5.36,114.95 -36.66,194.57 -6.22,13.85 -4.08,27.92 -2.18,40.37 0.75,4.93 1.45,9.57 1.59,13.74 l 0.1,3.18 0.9,3.06 c 2.58,8.79 5.39,17.6 8.2,26.4 10.43,32.61 20.28,63.44 17.67,92.98 -1.56,9.01 -2.98,17.87 -4.37,26.61 -6.47,40.47 -12.12,75.79 -29.19,110.98 -7.39,-5.39 -16.79,-14.17 -21.61,-18.67 -2.22,-2.07 -4.29,-4.02 -6.17,-5.72 l -2.14,-1.74 c -11.93,-8.62 -24.59,-16.25 -36.82,-23.65 -19.08,-11.52 -37.12,-22.41 -53.17,-36.95 -16.52,-14.97 -33.97,-22.29 -51.87,-21.69 l -2.66,0.23 c -43.98,6.16 -83.35,16.08 -125.03,26.59 l -22.1,5.54 c -68.24,11.59 -143.33,15.69 -229.47,12.52 -48.27,-4.31 -88.87,-14.37 -127.69,-31.62 l -1.9,-0.75 c -21.73,-7.58 -56.46,-7.56 -98.47,35.7 l -2.3,2.74 c -3.41,4.69 -6.59,9.15 -9.62,13.41 -11.02,15.45 -19.73,27.67 -31.37,39.64 l -32.72,33.7 c -1.23,1.27 -2.59,2.74 -4.06,4.32 -2.63,2.83 -7.9,8.51 -11.99,11.76 -1.35,-1.78 -3.18,-5.42 -3.28,-8.35 l -0.1,-1.61 c -3.17,-32.72 -9.41,-65.28 -15.46,-96.79 -10.45,-54.5 -20.33,-105.99 -15.48,-157.68 0.85,-5.06 1.54,-10.45 2.23,-15.99 3.06,-24.45 5.98,-41.03 18.19,-48.18 l -25.31,-43.13 c -34.36,20.17 -39.06,57.7 -42.49,85.1 -0.64,5.08 -1.24,10.02 -2.05,14.63 l -0.25,1.86 c -5.74,59.15 5.34,116.94 16.06,172.81 5.78,30.15 11.76,61.32 14.73,91.51 0.76,15.46 8.08,31.79 18.96,42.36 10.84,12.31 22.96,15.21 31.33,15.44 0.4,0.02 0.79,0.02 1.18,0.02 22.76,0 40.01,-18.57 50.38,-29.75 1.18,-1.27 2.28,-2.47 3.28,-3.49 l 32.72,-33.7 c 14.28,-14.7 24.45,-28.96 36.21,-45.46 2.64,-3.69 5.38,-7.54 8.29,-11.56 12.74,-12.87 30.21,-26.55 44.15,-22.35 43.25,19.06 90.06,30.59 143.06,35.28 l 1.28,0.07 c 90.27,3.35 169.22,-1.01 241.31,-13.34 l 1.82,-0.37 23.15,-5.81 c 39.78,-10.03 77.37,-19.51 118.01,-25.31 5.39,0.34 11.49,4.88 15.76,8.75 19.64,17.79 40.62,30.46 60.89,42.71 11.46,6.91 22.31,13.46 32.26,20.56 1.43,1.31 2.96,2.75 4.58,4.27 19.78,18.48 44.37,41.45 70.33,35.41 6.95,-1.62 19.41,-6.82 26.34,-23.4 23.52,-44.66 30.38,-87.57 37.64,-132.96 1.41,-8.84 2.84,-17.8 4.42,-26.92 l 0.26,-1.87 c 3.89,-40.06 -8.11,-77.6 -19.72,-113.91 -2.39,-7.49 -4.79,-14.97 -7.02,-22.46 -0.39,-5.84 -1.22,-11.3 -1.97,-16.21 -0.64,-4.23 -1.6,-10.51 -1.35,-12.97 l 0.37,-0.91 c 23.42,-59.46 49.14,-138.2 39.99,-219.93 l -0.24,-1.66 c -12.19,-67.44 -32.27,-125 -59.68,-171.13 -11.18,-18.81 -31.41,-34.19 -50.96,-49.06 -11.91,-9.04 -31.82,-24.19 -34.24,-31.12 -2.26,-6.54 12.55,-29.93 19.67,-41.18 10.3,-16.26 20.94,-33.08 24.36,-49.94 3.57,-17.609 3.67,-33.93 3.77,-49.711 0.11,-17.68 0.21,-34.379 5.45,-51.141 4.23,-13.558 8.93,-26.687 13.47,-39.406 21.43,-59.941 41.67,-116.551 5.17,-190.672 -38.92,-79.05 -110.6,-127.57 -163.88,-154.359 -28.99,-14.582 -54.03,-23.652 -78.79,-28.559 -60.07,-11.902 -110.49,6.258 -154.97,22.27 -36.43,13.117 -70.83,25.508 -108.29,21.969 -34.34,-3.262 -40.41,-16.719 -52.5,-43.571 -8.09,-17.968 -18.17,-40.34 -39.71,-59.05 -31.52,-27.391 -74.22,-41.641 -118.64,-41.641" /><path
         id="path594"
         style="fill:#427287;fill-opacity:1;fill-rule:nonzero;stroke:none"
         d="m 2687.79,913.852 c -22.64,0 -45.08,3.82 -67.16,12.597 -36.49,14.531 -64.04,40 -90.68,64.621 -10.67,9.88 -20.76,19.2 -31.33,27.79 -24.97,20.29 -53,36.64 -82.69,53.95 -31.59,18.43 -64.26,37.49 -93.33,61.92 -107.1,90.02 -145.64,247.32 -91.64,374.05 2.33,5.46 5.02,10.61 7.62,15.58 4.98,9.55 9.7,18.56 9.32,25.14 -0.37,6.43 -9.64,19.87 -15.78,28.76 -3.54,5.13 -7.2,10.44 -10.23,15.58 l 43.1,25.35 c 2.29,-3.89 5.23,-8.11 8.28,-12.53 10.96,-15.88 23.39,-33.88 24.55,-54.33 1.16,-20.35 -7.76,-37.42 -14.93,-51.13 -2.12,-4.05 -4.24,-8.05 -5.93,-12.03 -45.59,-106.98 -12.87,-239.95 77.81,-316.16 25.79,-21.68 55.21,-38.84 86.36,-57 30.01,-17.51 61.05,-35.62 89.03,-58.34 11.8,-9.6 22.96,-19.92 33.74,-29.89 24.35,-22.52 47.36,-43.792 75.22,-54.87 68.81,-27.398 148.67,12.11 218.11,51.27 l 24.56,-43.551 c -63.21,-35.649 -129.37,-66.777 -194,-66.777" /></g></g></svg>
