<?xml version="1.0" encoding="UTF-8" standalone="no"?>
<!-- Created with Inkscape (http://www.inkscape.org/) -->

<svg
   width="600px"
   height="400px"
   viewBox="0 0 202.44923 167.39943"
   version="1.1"
   id="svg5"
   xml:space="preserve"
   sodipodi:docname="desenho-1.svg"
   xmlns:inkscape="http://www.inkscape.org/namespaces/inkscape"
   xmlns:sodipodi="http://sodipodi.sourceforge.net/DTD/sodipodi-0.dtd"
   xmlns="http://www.w3.org/2000/svg"
   xmlns:svg="http://www.w3.org/2000/svg"><sodipodi:namedview
     id="namedview7"
     pagecolor="#505050"
     bordercolor="#eeeeee"
     borderopacity="1"
     inkscape:showpageshadow="0"
     inkscape:pageopacity="0"
     inkscape:pagecheckerboard="0"
     inkscape:deskcolor="#505050"
     inkscape:document-units="mm"
     showgrid="false"
     inkscape:zoom="0.4204826"
     inkscape:cx="371.00227"
     inkscape:cy="378.13693"
     inkscape:window-width="2560"
     inkscape:window-height="1017"
     inkscape:window-x="1358"
     inkscape:window-y="-8"
     inkscape:window-maximized="1"
     inkscape:current-layer="layer1" /><defs
     id="defs2" /><g
     inkscape:label="Camada 1"
     inkscape:groupmode="layer"
     id="layer1"
     transform="translate(239.65685,-16.978437)"><g
       id="g447"
       transform="translate(68.586864,32.720339)"><path
         id="path16"
         style="fill:none;fill-opacity:0;fill-rule:nonzero;stroke:none;stroke-width:0.0296146"
         d="m -176.64098,150.14687 v 0.4537 c -0.0163,0.29852 -0.42083,0.58489 -1.0605,0.58489 h -58.63522 c -0.63967,0 -1.04391,-0.28637 -1.0605,-0.58489 v -0.0166 c 0,-0.15815 0.11343,-0.31688 0.35834,-0.43712 h 60.39788" /><path
         id="path18"
         style="fill:none;stroke:#719fb0;stroke-width:0.888439;stroke-linecap:round;stroke-linejoin:round;stroke-miterlimit:10;stroke-dasharray:none;stroke-opacity:1"
         d="m -176.64098,150.14687 v 0.4537 c -0.0163,0.29852 -0.42083,0.58489 -1.0605,0.58489 h -58.63522 c -0.63967,0 -1.04391,-0.28637 -1.0605,-0.58489 v -0.0166 c 0,-0.15815 0.11343,-0.31688 0.35834,-0.43712 z" /><path
         id="path20"
         style="fill:none;fill-opacity:1;fill-rule:nonzero;stroke:none;stroke-width:0.0296146"
         d="m -177.70148,151.2133 h -58.63522 c -1.03088,0 -1.45496,-1.23612 -0.61331,-1.79287 l 5.88383,-3.89877 c 1.10641,-0.73326 1.81686,-1.87875 1.94657,-3.13797 l 1.92022,-18.64034 h 40.3606 l 1.92022,18.64034 c 0.13001,1.25922 0.84016,2.40471 1.94657,3.13797 l 5.88383,3.89877 c 0.84165,0.55675 0.41757,1.79287 -0.61331,1.79287" /><path
         id="path22"
         style="fill:none;stroke:#719fb0;stroke-width:0.888439;stroke-linecap:round;stroke-linejoin:round;stroke-miterlimit:10;stroke-dasharray:none;stroke-opacity:1"
         d="m -177.70148,151.2133 h -58.63522 c -1.03088,0 -1.45496,-1.23612 -0.61331,-1.79287 l 5.88383,-3.89877 c 1.10641,-0.73326 1.81686,-1.87875 1.94657,-3.13797 l 1.92022,-18.64034 h 40.3606 l 1.92022,18.64034 c 0.13001,1.25922 0.84016,2.40471 1.94657,3.13797 l 5.88383,3.89877 c 0.84165,0.55675 0.41757,1.79287 -0.61331,1.79287 z" /><path
         id="path24"
         style="fill:none;fill-opacity:1;fill-rule:nonzero;stroke:none;stroke-width:0.0296146"
         d="M -106.23869,-10.425778 V 118.76335 c 0,2.69079 -2.18112,4.87191 -4.8722,4.87191 h -191.81669 c -2.69079,0 -4.87191,-2.18112 -4.87191,-4.87191 V -10.425778 c 0,-2.690786 2.18112,-4.871904 4.87191,-4.871904 h 191.81669 c 2.69108,0 4.8722,2.181118 4.8722,4.871904" /><path
         id="path26"
         style="fill:none;stroke:#719fb0;stroke-width:0.888439;stroke-linecap:round;stroke-linejoin:round;stroke-miterlimit:10;stroke-dasharray:none;stroke-opacity:1"
         d="M -106.23869,-10.425778 V 118.76335 c 0,2.69079 -2.18112,4.87191 -4.8722,4.87191 h -191.81669 c -2.69079,0 -4.87191,-2.18112 -4.87191,-4.87191 V -10.425778 c 0,-2.690786 2.18112,-4.871904 4.87191,-4.871904 h 191.81669 c 2.69108,0 4.8722,2.181118 4.8722,4.871904 z" /><path
         id="path28"
         style="fill:none;fill-opacity:1;fill-rule:nonzero;stroke:none;stroke-width:0.0296146"
         d="m -106.23869,105.21554 v 13.59342 c 0,1.22664 -0.46258,2.34696 -1.22546,3.19719 -0.89081,0.99861 -2.19415,1.62703 -3.64674,1.62703 h -191.8164 c -1.45259,0 -2.75593,-0.62842 -3.64674,-1.62703 -0.76288,-0.85023 -1.22546,-1.97055 -1.22546,-3.19719 v -13.59342 h 201.5608" /><path
         id="path30"
         style="fill:none;stroke:#719fb0;stroke-width:0.888439;stroke-linecap:round;stroke-linejoin:round;stroke-miterlimit:10;stroke-dasharray:none;stroke-opacity:1"
         d="m -106.23869,105.21554 v 13.59342 c 0,1.22664 -0.46258,2.34696 -1.22546,3.19719 -0.89081,0.99861 -2.19415,1.62703 -3.64674,1.62703 h -191.8164 c -1.45259,0 -2.75593,-0.62842 -3.64674,-1.62703 -0.76288,-0.85023 -1.22546,-1.97055 -1.22546,-3.19719 v -13.59342 z" /><path
         id="path32"
         style="fill:none;fill-opacity:1;fill-rule:nonzero;stroke:none;stroke-width:0.0296146"
         d="M -114.66406,-6.2575167 V 96.68386 H -299.37412 V -6.2575167 h 184.71006" /><path
         id="path34"
         style="fill:none;stroke:#719fb0;stroke-width:0.888439;stroke-linecap:round;stroke-linejoin:round;stroke-miterlimit:10;stroke-dasharray:none;stroke-opacity:1"
         d="M -114.66406,-6.2575167 V 96.68386 H -299.37412 V -6.2575167 Z" /></g></g></svg>
