<!-- Generator: Adobe Illustrator 27.5.0, SVG Export Plug-In . SVG Version: 6.00 Build 0)  -->
  <svg version="1.1" xmlns="http://www.w3.org/2000/svg" xmlns:xlink="http://www.w3.org/1999/xlink" x="0px" y="0px"
     viewBox="0 0 750 500" style="enable-background:new 0 0 750 500;" xml:space="preserve">
     <style>

      #path-1 {
        transform: translate(-400px, -350px) scale(1.5);
        animation: path1 2s ease-out infinite;
        -webkit-animation: path1 2s infinite;
        -moz-animation: path1 2s infinite;
        -o-animation: path1 2s infinite;
        -ms-animation: path1 2s infinite;
    }
    #path-2 {
        transform: translate(-200px, -250px) scale(1.5);
        animation: path2 2s ease-out infinite;
        -webkit-animation: path2 2s infinite;
        -moz-animation: path2 2s infinite;
        -o-animation: path2 2s infinite;
        -ms-animation: path2 2s infinite;
    }
    #path-3, #path-8 {
        transform: translate(10px, 100px) scale(1.7);
        animation: path3 2s ease-out infinite;
        -webkit-animation: path3 2s infinite;
        -moz-animation: path3 2s infinite;
        -o-animation: path3 2s infinite;
        -ms-animation: path3 2s infinite;
    }
    #path-4 {
        transform: translate(-10px, -500px) scale(1.7);
        animation: path4 2s ease-out infinite;
        -webkit-animation: path4 2s infinite;
        -moz-animation: path4 2s infinite;
        -o-animation: path4 2s infinite;
        -ms-animation: path4 2s infinite;
    }
    #path-5, #path-6, #path-7 {
        transform: translate(-550px, 110px) scale(1.7);
        animation: path5 2s ease-out infinite;
        -webkit-animation: path5 2s infinite;
        -moz-animation: path5 2s infinite;
        -o-animation: path5 2s infinite;
        -ms-animation: path5 2s infinite;
    }

    #sparkles {
        opacity: 0;
        animation: sparkles 0.5s linear infinite;
        animation-delay: 2s;
        -webkit-animation: sparkles 0.5s linear infinite;
        -moz-animation: sparkles 0.5s linear infinite;
        -o-animation: sparkles 0.5s linear infinite;
        -ms-animation: sparkles 0.5s linear infinite;
    }
    @keyframes textAnimation {
      to {
          transform: translateY(0px);
          opacity: 1;
      }
  }
  
  @keyframes path1 {
      to {
          transform: translate(100px, 100px);
          display: none;
      }
  }
  
  @keyframes path2 {
      to {
          transform: translate(0px, 300px);
          display: none;
      }
  }
  
  @keyframes path3 {
      to {
          transform: translate(-100px, -300px);
          display: none;
      }
  }
  
  @keyframes path4 {
      to {
          transform: translate(-100px, 300px);
          display: none;
      }
  }
  
  @keyframes path5 {
      to {
          transform: translate(50px, -300px);
          display: none;
      }
  }
     </style>
  <g id="BACKGROUND_2">
    <g>
  
        <radialGradient id="SVGID_1_" cx="375" cy="250" r="250" gradientTransform="matrix(1.5 0 0 1 -187.5 0)" gradientUnits="userSpaceOnUse">
        <stop  offset="0" style="stop-color:#181F4A"/>
        <stop  offset="1" style="stop-color:#00092D"/>
      </radialGradient>
      <rect style="fill:url(#SVGID_1_);" width="750" height="500"/>
      <g>
        <defs>
          <rect id="SVGID_00000011728257223161451320000007609886898297611455_" width="750" height="500"/>
        </defs>
        <clipPath id="SVGID_00000101783796757456652180000004091024939421597595_">
          <use xlink:href="#SVGID_00000011728257223161451320000007609886898297611455_"  style="overflow:visible;"/>
        </clipPath>
        <g style="clip-path:url(#SVGID_00000101783796757456652180000004091024939421597595_);">
  
            <linearGradient id="SVGID_00000140704390138860123530000015121796135587388603_" gradientUnits="userSpaceOnUse" x1="406.8521" y1="-152.8867" x2="307.8576" y2="543.077">
            <stop  offset="0" style="stop-color:#001E52;stop-opacity:0.8"/>
            <stop  offset="1" style="stop-color:#0C2858;stop-opacity:0"/>
          </linearGradient>
          <path style="fill:url(#SVGID_00000140704390138860123530000015121796135587388603_);" id="path-7" d="M-15.763,68.866
            c0,69.498,56.251,125.836,125.749,125.836c54.218,0,100.381-34.289,118.079-82.364c11.587,7.723,25.479,12.233,40.448,12.233
            c14.115,0,27.277-4.013,38.45-10.945c27.772,44.609,77.236,74.308,133.652,74.308c29.223,0,56.578-7.977,80.025-21.856
            c-0.003,0.364-0.017,0.726-0.017,1.091c0,70.022,56.668,126.785,126.688,126.785c70.022,0,126.687-56.763,126.687-126.785V-94
            H-15.491L-15.763,68.866z"/>
  
            <linearGradient id="SVGID_00000121263918060127056500000005314649076311831968_" gradientUnits="userSpaceOnUse" x1="-29.3997" y1="-59.4199" x2="302.0834" y2="272.0632">
            <stop  offset="0" style="stop-color:#223C69;stop-opacity:0.8"/>
            <stop  offset="1" style="stop-color:#15305E;stop-opacity:0"/>
          </linearGradient>
          <path style="fill:url(#SVGID_00000121263918060127056500000005314649076311831968_);" id="path-3" d="M265.611-43H-11v269.338
            c0,33.905,27.976,61.39,61.881,61.39c33.903,0,61.879-27.485,61.879-61.39c0-16.395-6.44-31.277-16.912-42.288
            c19.759-3.57,34.75-20.844,34.75-41.631c0-10.79-4.045-20.63-10.691-28.105c2.766,0.612,5.636,0.946,8.586,0.946
            c20.43,0,37.236-15.484,39.338-35.356c5.363,1.494,11.005,2.311,16.845,2.311c25.052,0,46.653-14.704,56.682-35.949
            c1.898,0.363,3.839,0.562,5.843,0.562c14.951,0,27.407-10.567,30.351-24.642c12.709-4.82,21.746-17.102,21.746-31.5
            C299.296-27.918,284.215-43,265.611-43z"/>
  
            <linearGradient id="SVGID_00000160189566982870815550000014538624637832330636_" gradientUnits="userSpaceOnUse" x1="704.1167" y1="-98.2512" x2="537.3763" y2="304.9763">
            <stop  offset="0" style="stop-color:#223670;stop-opacity:0.8"/>
            <stop  offset="1" style="stop-color:#173260;stop-opacity:0"/>
          </linearGradient>
          <path style="fill:url(#SVGID_00000160189566982870815550000014538624637832330636_);" id="path-6" d="M520.084-39.995
            c-15.091,0-27.193,12.234-27.193,27.326c0,15.092,12.303,27.327,27.394,27.327c2.546,0,5.04-0.356,7.377-1.007
            c3.065,14.767,13.639,26.745,27.557,31.875c-3.06,4.533-4.845,9.95-4.845,15.83c0,15.691,12.722,28.389,28.413,28.389
            c3.819,0,7.46-0.769,10.786-2.136c2.227,16.346,15.29,29.228,31.718,31.189c-1.652,4.906-2.561,10.152-2.561,15.615
            c0,27.001,21.888,48.887,48.889,48.887c10.441,0,20.11-3.284,28.053-8.86c-0.388,2.068-0.6,4.197-0.6,6.378
            c0,19.001,15.465,34.403,34.466,34.403c19.001,0,34.464-15.403,34.464-34.403V-39.641L520.084-39.995z"/>
  
            <linearGradient id="SVGID_00000150075332297999660210000003768209420733016493_" gradientUnits="userSpaceOnUse" x1="496.3508" y1="681.9255" x2="604.5029" y2="-100.5847" gradientTransform="matrix(1 0 0 1 -97.8652 0)">
            <stop  offset="0" style="stop-color:#193463;stop-opacity:0.8"/>
            <stop  offset="1" style="stop-color:#1B3562;stop-opacity:0"/>
          </linearGradient>
          <path style="fill:url(#SVGID_00000150075332297999660210000003768209420733016493_);" id="path-2" d="M-7,301.285
            c0-31.635,25.611-57.224,57.246-57.224s57.263,25.675,57.263,57.309c0,0.644-0.036,1.297-0.057,1.936
            c13.318-9.976,29.857-15.879,47.777-15.879c44.068,0,79.792,35.73,79.792,79.8c0,1.139-0.04,2.268-0.087,3.393
            c7.357-6.563,17.058-10.561,27.692-10.561c22.983,0,41.612,18.633,41.612,41.615c0,0.514-0.02,1.022-0.038,1.526
            c10.185-10.072,24.185-16.296,39.643-16.296c28.132,0,51.445,20.601,55.692,47.535c6.817-6.955,16.261-11.317,26.726-11.5
            c-4.604-5.857-7.357-13.235-7.357-21.265c0-19.024,15.422-34.445,34.447-34.445c4.291,0,8.397,0.792,12.186,2.226
            c-1.539-3.667-2.394-7.692-2.394-11.916c0-17,13.782-30.783,30.782-30.783c1.775,0,3.502,0.183,5.193,0.472
            c-2.317-3.741-3.678-8.138-3.678-12.862c0-13.529,10.967-24.496,24.494-24.496c2.436,0,4.782,0.366,7.003,1.028
            c7.6-19.729,26.729-33.74,49.141-33.74c5.521,0,10.845,0.854,15.846,2.432c-0.782-3.037-1.198-6.22-1.198-9.501
            c0-20.989,17.015-38.003,38.001-38.003c3.555,0,6.988,0.5,10.251,1.411c1.043-25.438,21.988-45.745,47.684-45.745
            c24.044,0,43.927,17.781,47.236,40.912c4.055-1.75,8.521-2.727,13.217-2.727c18.452,0,33.412,14.958,33.412,33.411
            c0,0.094-0.014,0.184-0.015,0.278c8.398-4.98,17.953-7.847,28.423-7.847c31.099,0,56.065,25.211,56.065,56.311V625H-4.684
            L-7,301.285z"/>
  
            <linearGradient id="SVGID_00000048462216601170391570000005710438460355720064_" gradientUnits="userSpaceOnUse" x1="-33.3224" y1="4.0191" x2="154.169" y2="167.5115">
            <stop  offset="0" style="stop-color:#355AA6;stop-opacity:0.8"/>
            <stop  offset="0.9973" style="stop-color:#23275F;stop-opacity:0"/>
          </linearGradient>
          <path style="fill:url(#SVGID_00000048462216601170391570000005710438460355720064_);" id="path-8" d="M94.957-28.849
            c27.156,0,49.046,21.89,49.046,49.045s-22.075,49.107-49.231,49.107c-6.209,0-12.178-1.194-17.648-3.295
            c0.742,2.713,1.131,5.55,1.131,8.498c0,17.81-14.446,32.24-32.257,32.24c-0.024,0-0.053-0.006-0.077-0.006
            c4.706,4.855,7.606,11.466,7.606,18.762c0,10.567-6.082,19.707-14.933,24.129c6.638,5.406,10.88,13.641,10.88,22.869
            c0,16.283-12.954,29.483-29.237,29.483S-9,188.783-9,172.5V-29L94.957-28.849z"/>
  
            <linearGradient id="SVGID_00000145029241931885485960000001905289414328413090_" gradientUnits="userSpaceOnUse" x1="596.6183" y1="131.5855" x2="794.6185" y2="-180.4152">
            <stop  offset="0" style="stop-color:#355AA6;stop-opacity:0.8"/>
            <stop  offset="0.9973" style="stop-color:#23275F;stop-opacity:0"/>
          </linearGradient>
          <path style="fill:url(#SVGID_00000145029241931885485960000001905289414328413090_);" id="path-5" d="M769.839,74.951
            c0,27.156-21.89,49.042-49.045,49.042c-27.155,0-49.107-22.077-49.107-49.233c0-6.209,1.194-12.178,3.295-17.649
            c-2.713,0.742-5.55,1.131-8.497,1.131c-17.811,0-32.24-14.447-32.24-32.257c0-0.024,0.006-0.053,0.006-0.077
            c-4.854,4.706-11.467,7.606-18.762,7.606c-10.567,0-19.707-6.082-24.13-14.933c-5.406,6.638-13.641,10.88-22.869,10.88
            c-16.283,0-29.483-12.948-29.483-29.231S552.207-29,568.49-29h201.5L769.839,74.951z"/>
  
            <linearGradient id="SVGID_00000054953086980574098530000018066075973696449211_" gradientUnits="userSpaceOnUse" x1="276.39" y1="200.6628" x2="31.9014" y2="716.6371">
            <stop  offset="0" style="stop-color:#1B4AA5;stop-opacity:0.8"/>
            <stop  offset="0.0299" style="stop-color:#1B49A3;stop-opacity:0.7761"/>
            <stop  offset="1" style="stop-color:#1E3264;stop-opacity:0"/>
          </linearGradient>
          <path style="fill:url(#SVGID_00000054953086980574098530000018066075973696449211_);" id="path-4" d="M-12.1,377.402
            c0-25.191,20.352-45.689,45.543-45.689c25.193,0,45.58,20.387,45.58,45.58c0,2.795-0.283,5.509-0.764,8.166
            c3.409-0.716,6.932-1.106,10.555-1.106c23.516,0,43.315,15.834,49.359,37.42c9.062-7.115,20.475-11.372,32.89-11.372
            c21.947,0,40.79,13.265,48.969,32.21c8.741-8.771,20.831-14.199,34.191-14.199c26.661,0,48.274,21.613,48.274,48.277
            c0,4.668-0.675,9.176-1.912,13.445c14.75,6.911,24.97,22.029,24.97,39.392c0,23.929-19.396,43.473-43.323,43.473H-11.955
            L-12.1,377.402z"/>
  
            <linearGradient id="SVGID_00000083782742176162820140000001333913735551794358_" gradientUnits="userSpaceOnUse" x1="498.3372" y1="295.0378" x2="730.8255" y2="601.0224">
            <stop  offset="0" style="stop-color:#2A419D;stop-opacity:0.8"/>
            <stop  offset="1" style="stop-color:#1C3663;stop-opacity:0"/>
          </linearGradient>
          <path style="fill:url(#SVGID_00000083782742176162820140000001333913735551794358_);" id="path-1" d="M778,336.188
            c0-31.224-25.388-56.534-56.611-56.534c-31.226,0-56.574,25.311-56.574,56.534c0,0.762,0.009,1.516,0.038,2.271
            c-2.378-0.329-4.813-0.513-7.281-0.513c-29.04,0-52.584,23.539-52.584,52.576c0,0.978,0.028,1.949,0.082,2.915
            c-6.717-4.046-14.584-6.377-22.997-6.377c-24.651,0-44.633,19.982-44.633,44.631c0,4.041,0.545,7.953,1.553,11.676
            c-6.773-3.579-14.489-5.614-22.684-5.614c-15.704,0-29.66,7.451-38.551,19.002c-4.782-8.056-13.563-13.459-23.61-13.459
            c-15.153,0-27.438,12.285-27.438,27.439c0,2.72,0.4,5.344,1.139,7.823c-11.255,6.379-18.855,18.456-18.855,32.315
            c0,20.505,16.623,37.128,37.128,37.128H778V336.188z"/>
        </g>
      </g>
      <g id="text">
        
          <!-- <text transform="matrix(1 0 0 1 230.583 278.8291)" style="fill:#84CBEF; font-family:'Dosis-Regular'; font-size:42px; letter-spacing:-2;"
          x="-10%">Por favor, me dá um emprego</text> -->
      </g>
      <g id="sparkles">
        <polygon style="opacity:0.6;fill:#84CBEF;" points="239.877,176.027 245.451,176.451 239.877,176.876 239.453,182.451
          239.028,176.876 233.453,176.451 239.028,176.027 239.453,170.452 		"/>
        <polygon style="opacity:0.9;fill:#84CBEF;" points="64.808,270.978 71.035,271.451 64.808,271.925 64.334,278.152 63.86,271.925
          57.633,271.451 63.86,270.978 64.334,264.751 		"/>
        <polygon style="opacity:0.9;fill:#84CBEF;" points="78.092,284.15 88.069,284.909 78.092,285.668 77.334,295.646 76.574,285.668
          66.598,284.909 76.574,284.15 77.334,274.174 		"/>
        <polygon style="opacity:0.4;fill:#84CBEF;" points="404.246,372.1 414.668,372.892 404.246,373.685 403.453,384.109
          402.659,373.685 392.235,372.892 402.659,372.1 403.453,361.676 		"/>
        <polygon style="opacity:0.1;fill:#84CBEF;" points="634.038,380.249 641.727,380.834 634.038,381.419 633.453,389.109
          632.867,381.419 625.178,380.834 632.867,380.249 633.453,372.56 		"/>
        <polygon style="opacity:0.1;fill:#84CBEF;" points="615.815,366.465 633.731,367.828 615.815,369.19 614.453,387.109
          613.088,369.19 595.171,367.828 613.088,366.465 614.453,348.548 		"/>
        <polygon style="opacity:0.1;fill:#84CBEF;" points="70.32,464.995 81.701,465.86 70.32,466.726 69.453,478.11 68.587,466.726
          57.203,465.86 68.587,464.995 69.453,453.612 		"/>
        <polygon style="opacity:0.1;fill:#84CBEF;" points="416.056,140.995 423.965,141.597 416.056,142.198 415.453,150.11
          414.851,142.198 406.94,141.597 414.851,140.995 415.453,133.085 		"/>
        <polygon style="opacity:0.1;fill:#84CBEF;" points="430.949,157.738 442.236,158.597 430.949,159.454 430.09,170.747
          429.229,159.454 417.94,158.597 429.229,157.738 430.09,146.449 		"/>
        <polygon style="opacity:0.1;fill:#84CBEF;" points="144.179,85.751 158.478,86.839 144.179,87.925 143.09,102.232 142,87.925
          127.697,86.839 142,85.751 143.09,71.449 		"/>
        <polygon style="opacity:0.1;fill:#84CBEF;" points="155.738,63.928 164.258,64.577 155.738,65.224 155.09,73.747 154.44,65.224
          145.919,64.577 154.44,63.928 155.09,55.408 		"/>
        <polygon style="opacity:0.4;fill:#84CBEF;" points="391.849,388.887 397.06,389.282 391.849,389.679 391.452,394.891
          391.056,389.679 385.844,389.282 391.056,388.887 391.452,383.675 		"/>
        <polygon style="opacity:0.1;fill:#84CBEF;" points="82.849,454.887 88.06,455.282 82.849,455.679 82.452,460.891 82.056,455.679
          76.844,455.282 82.056,454.887 82.452,449.675 		"/>
        <polygon style="opacity:0.1;fill:#84CBEF;" points="279.849,418.887 285.06,419.282 279.849,419.679 279.452,424.891
          279.056,419.679 273.844,419.282 279.056,418.887 279.452,413.675 		"/>
        <polygon style="opacity:0.3;fill:#84CBEF;" points="522.236,86.275 532.535,87.059 522.236,87.843 521.454,98.143 520.669,87.843
          510.369,87.059 520.669,86.275 521.454,75.976 		"/>
        <polygon style="opacity:0.3;fill:#84CBEF;" points="533.304,100.667 538.453,101.059 533.304,101.451 532.912,106.602
          532.519,101.451 527.369,101.059 532.519,100.667 532.912,95.517 		"/>
        <polygon style="opacity:0.6;fill:#84CBEF;" points="222.643,190.663 231.337,191.64 222.643,192.617 221.665,209.579
          220.688,192.617 212.269,191.64 220.688,190.663 221.665,181.968 		"/>
        <polygon style="opacity:0.1;fill:#84CBEF;" points="53.767,438.912 72.457,441.016 53.767,443.115 51.666,479.579 49.564,443.115
          31.467,441.016 49.564,438.912 51.666,420.222 		"/>
        <path style="opacity:0.6;fill:#FFFFFF;" d="M239.9,192.023c0,0.511-0.414,0.924-0.925,0.924c-0.511,0-0.925-0.414-0.925-0.924
          c0-0.511,0.414-0.925,0.925-0.925C239.486,191.099,239.9,191.512,239.9,192.023z"/>
        <path style="opacity:0.6;fill:#FFFFFF;" d="M231.9,183.023c0,0.511-0.414,0.924-0.925,0.924c-0.511,0-0.925-0.414-0.925-0.924
          c0-0.511,0.414-0.925,0.925-0.925C231.486,182.099,231.9,182.512,231.9,183.023z"/>
        <path style="opacity:0.4;fill:#FFFFFF;" d="M385.9,377.023c0,0.511-0.414,0.924-0.925,0.924c-0.511,0-0.925-0.413-0.925-0.924
          c0-0.512,0.414-0.925,0.925-0.925C385.486,376.099,385.9,376.512,385.9,377.023z"/>
        <path style="opacity:0.4;fill:#FFFFFF;" d="M394.9,362.023c0,0.511-0.414,0.924-0.925,0.924c-0.511,0-0.925-0.413-0.925-0.924
          c0-0.512,0.414-0.925,0.925-0.925C394.486,361.099,394.9,361.512,394.9,362.023z"/>
        <path style="opacity:0.1;fill:#FFFFFF;" d="M40.9,455.023c0,0.511-0.414,0.924-0.925,0.924c-0.511,0-0.925-0.413-0.925-0.924
          c0-0.512,0.414-0.925,0.925-0.925C40.486,454.099,40.9,454.512,40.9,455.023z"/>
        <path style="opacity:0.1;fill:#FFFFFF;" d="M692.856,444.357c0,0.67-0.543,1.212-1.213,1.212c-0.671,0-1.214-0.542-1.214-1.212
          c0-0.672,0.543-1.214,1.214-1.214C692.313,443.144,692.856,443.685,692.856,444.357z"/>
        <path style="opacity:0.1;fill:#FFFFFF;" d="M676.856,475.357c0,0.67-0.543,1.212-1.213,1.212c-0.671,0-1.214-0.542-1.214-1.212
          c0-0.672,0.543-1.214,1.214-1.214C676.313,474.144,676.856,474.685,676.856,475.357z"/>
        <path style="opacity:0.1;fill:#FFFFFF;" d="M593.856,47.357c0,0.67-0.543,1.212-1.213,1.212c-0.671,0-1.214-0.542-1.214-1.212
          c0-0.672,0.543-1.214,1.214-1.214C593.313,46.144,593.856,46.686,593.856,47.357z"/>
        <path style="opacity:0.1;fill:#FFFFFF;" d="M710.856,408.357c0,0.67-0.543,1.212-1.213,1.212c-0.671,0-1.214-0.542-1.214-1.212
          c0-0.672,0.543-1.214,1.214-1.214C710.313,407.144,710.856,407.685,710.856,408.357z"/>
        <path style="opacity:0.1;fill:#FFFFFF;" d="M543.856,473.357c0,0.67-0.543,1.212-1.213,1.212c-0.671,0-1.214-0.542-1.214-1.212
          c0-0.672,0.543-1.214,1.214-1.214C543.313,472.144,543.856,472.685,543.856,473.357z"/>
        <path style="opacity:0.1;fill:#FFFFFF;" d="M290.435,411.329c0,0.422-0.343,0.764-0.765,0.764c-0.423,0-0.766-0.342-0.766-0.764
          c0-0.424,0.343-0.766,0.766-0.766C290.093,410.564,290.435,410.905,290.435,411.329z"/>
        <path style="opacity:0.1;fill:#FFFFFF;" d="M62.855,450.357c0,0.67-0.543,1.212-1.213,1.212c-0.671,0-1.214-0.542-1.214-1.212
          c0-0.672,0.543-1.214,1.214-1.214C62.312,449.144,62.855,449.685,62.855,450.357z"/>
        <path style="opacity:0.1;fill:#FFFFFF;" d="M61.855,429.357c0,0.67-0.543,1.212-1.213,1.212c-0.671,0-1.214-0.542-1.214-1.212
          c0-0.672,0.543-1.214,1.214-1.214C61.312,428.144,61.855,428.685,61.855,429.357z"/>
        <path style="opacity:0.1;fill:#FFFFFF;" d="M602.856,310.357c0,0.67-0.543,1.212-1.213,1.212c-0.671,0-1.214-0.542-1.214-1.212
          c0-0.672,0.543-1.214,1.214-1.214C602.313,309.144,602.856,309.685,602.856,310.357z"/>
        <path style="opacity:0.1;fill:#FFFFFF;" d="M603.856,380.357c0,0.67-0.543,1.212-1.213,1.212c-0.671,0-1.214-0.542-1.214-1.212
          c0-0.672,0.543-1.214,1.214-1.214C603.313,379.144,603.856,379.685,603.856,380.357z"/>
        <path style="opacity:0.1;fill:#FFFFFF;" d="M727.856,165.357c0,0.67-0.543,1.212-1.213,1.212c-0.671,0-1.214-0.542-1.214-1.212
          c0-0.672,0.543-1.214,1.214-1.214C727.313,164.144,727.856,164.686,727.856,165.357z"/>
        <path style="opacity:0.1;fill:#FFFFFF;" d="M711.856,138.357c0,0.67-0.543,1.212-1.213,1.212c-0.671,0-1.214-0.542-1.214-1.212
          c0-0.672,0.543-1.214,1.214-1.214C711.313,137.144,711.856,137.686,711.856,138.357z"/>
        <path style="opacity:0.1;fill:#FFFFFF;" d="M385.855,210.357c0,0.67-0.543,1.212-1.213,1.212c-0.671,0-1.214-0.542-1.214-1.212
          c0-0.672,0.543-1.214,1.214-1.214C385.313,209.144,385.855,209.686,385.855,210.357z"/>
        <path style="opacity:0.1;fill:#FFFFFF;" d="M741.856,117.357c0,0.67-0.543,1.212-1.213,1.212c-0.671,0-1.214-0.542-1.214-1.212
          c0-0.672,0.543-1.214,1.214-1.214C741.313,116.144,741.856,116.686,741.856,117.357z"/>
        <path style="opacity:0.1;fill:#FFFFFF;" d="M661.856,209.357c0,0.67-0.543,1.212-1.213,1.212c-0.671,0-1.214-0.542-1.214-1.212
          c0-0.672,0.543-1.214,1.214-1.214C661.313,208.144,661.856,208.686,661.856,209.357z"/>
        <path style="opacity:0.1;fill:#FFFFFF;" d="M252.855,390.357c0,0.67-0.543,1.212-1.213,1.212c-0.671,0-1.214-0.542-1.214-1.212
          c0-0.672,0.543-1.214,1.214-1.214C252.313,389.144,252.855,389.685,252.855,390.357z"/>
        <path style="opacity:0.1;fill:#FFFFFF;" d="M365.855,106.357c0,0.67-0.543,1.212-1.213,1.212c-0.671,0-1.214-0.542-1.214-1.212
          c0-0.672,0.543-1.214,1.214-1.214C365.313,105.144,365.855,105.686,365.855,106.357z"/>
        <path style="opacity:0.3;fill:#FFFFFF;" d="M518.9,117.023c0,0.511-0.414,0.924-0.925,0.924c-0.511,0-0.925-0.414-0.925-0.924
          c0-0.511,0.414-0.925,0.925-0.925C518.486,116.099,518.9,116.512,518.9,117.023z"/>
        <path style="opacity:0.1;fill:#FFFFFF;" d="M402.9,136.023c0,0.511-0.414,0.924-0.925,0.924c-0.511,0-0.925-0.414-0.925-0.924
          c0-0.511,0.414-0.925,0.925-0.925C402.486,135.099,402.9,135.512,402.9,136.023z"/>
        <polygon style="opacity:0.4;fill:#84CBEF;" points="665.723,233.503 666.324,225.594 666.926,233.503 674.838,234.106
          666.926,234.708 666.324,242.62 665.723,234.708 657.813,234.106 		"/>
        <polygon style="opacity:0.4;fill:#84CBEF;" points="682.466,218.61 683.324,207.323 684.182,218.61 695.475,219.469
          684.182,220.33 683.324,231.62 682.466,220.33 671.177,219.469 		"/>
        <path style="opacity:0.1;fill:#FFFFFF;" d="M660.752,246.659c0.51,0,0.924,0.414,0.924,0.925s-0.414,0.925-0.924,0.925
          c-0.512,0-0.926-0.414-0.926-0.925S660.24,246.659,660.752,246.659z"/>
        <path style="opacity:0.6;fill:#FFFFFF;" d="M180.9,215.023c0,0.511-0.414,0.924-0.925,0.924c-0.511,0-0.925-0.414-0.925-0.924
          c0-0.511,0.414-0.925,0.925-0.925C180.486,214.099,180.9,214.512,180.9,215.023z"/>
        <path style="opacity:0.1;fill:#84CBEF;" d="M130.9,72.023c0,0.511-0.414,0.924-0.925,0.924c-0.511,0-0.925-0.414-0.925-0.924
          c0-0.511,0.414-0.925,0.925-0.925C130.486,71.099,130.9,71.512,130.9,72.023z"/>
        <path style="opacity:0.9;fill:#FFFFFF;" d="M84.9,296.023c0,0.511-0.414,0.924-0.925,0.924c-0.511,0-0.925-0.413-0.925-0.924
          c0-0.512,0.414-0.925,0.925-0.925C84.486,295.099,84.9,295.512,84.9,296.023z"/>
      </g>
    </g>
  </g>
  <g id="BACKGROUND_1">
  </g>
  </svg>