<?xml version="1.0" ?>
<svg height="300" id="svg2" version="1.1" viewBox="0 0 281.25 281.25" width="300" xml:space="preserve" xmlns="http://www.w3.org/2000/svg" xmlns:cc="http://creativecommons.org/ns#" xmlns:dc="http://purl.org/dc/elements/1.1/" xmlns:rdf="http://www.w3.org/1999/02/22-rdf-syntax-ns#" xmlns:svg="http://www.w3.org/2000/svg">

<style>
    #asa {
        animation: voar 1s linear infinite alternate;
        transform-origin: -6868px 3441px;
    }

    #corpo {
        transform: translateX(-10px);
        transform-origin: -6766px 3406px;
    }

    @keyframes voar {
        to {
            transform: rotateY(35deg) translateZ(10px);
        }
    }
</style>

<defs id="defs4"/>
<g id="layer1" transform="translate(6984.8564,-3399.5356)">
<g id="g47890">
<path d="m -6766.3206,3495.5821 c -3.2136,0.015 -5.6979,1.3801 -7.5586,2.6385 -6.8725,4.648 -10.6415,12.0217 -12.7497,19.1235 -2.0064,6.7592 -2.7441,13.8633 -2.2027,20.8814 -5.5774,0.4634 -10.8177,4.0233 -13.3832,9.4867 -1.5345,3.2678 -1.9323,6.8373 -1.3202,10.1605 -2.9258,0.7883 -5.3591,2.2494 -7.4158,3.7811 -2.0763,1.5464 -3.7849,3.1624 -5.3759,4.5282 -3.662,3.144 -8.2326,6.2703 -11.9971,10.9992 -4.3894,5.5139 -6.4712,11.678 -8.9246,16.7505 -3.177,6.5682 -7.3561,12.6248 -12.4658,17.6715 -1.7656,1.7438 -3.9693,3.6238 -5.9985,6.1834 -2.0614,2.6002 -3.9121,5.9405 -4.0961,9.9958 -0.053,1.1799 0.036,2.4682 0.4138,3.8031 0.3828,1.3486 1.049,2.7029 2.124,3.8965 1.5921,1.7677 3.6488,2.7301 5.7496,3.056 2.0533,0.3187 4.0038,0.012 5.7257,-0.6299 3.3754,-1.2542 5.5763,-3.5658 7.2564,-5.4895 6.0398,-6.9158 9.7441,-14.6374 14.5185,-20.5682 3.5616,-4.4243 8.0103,-8.364 12.7295,-12.2681 6.0324,-4.9904 12.5908,-9.9875 18.2629,-16.3696 2.0609,-2.3189 4.3377,-5.1458 5.5225,-8.9374 0.3998,-1.2798 0.6418,-2.656 0.6884,-4.0833 5.2361,-0.7511 10.0587,-4.217 12.486,-9.386 2.8394,-6.0464 1.7908,-13.1244 -2.3639,-17.763 2.8053,-3.3963 5.6742,-6.7408 8.606,-10.0287 2.9615,-3.3212 5.8226,-6.3379 8.9666,-8.4192 1.219,-0.8071 2.2868,-1.3021 3.0872,-1.452 0.3923,-0.073 0.7334,-0.07 0.965,-0.029 0.2221,0.039 0.3877,0.1264 0.4394,0.1648 0.045,0.033 0.1291,0.1681 0.1337,0.1868 0,0.012 -0.017,0.1361 -0.011,0.1153 0.01,-0.014 -0.052,0.044 -0.038,0.037 0.014,-0.01 -0.068,0 -0.053,0.011 a 4.6875,4.6875 0 0 0 -5.5169,3.6731 4.6875,4.6875 0 0 0 3.6731,5.517 c 2.0387,0.4091 4.1083,0.1458 5.9802,-0.7599 1.8718,-0.9057 3.3623,-2.366 4.3066,-4.2188 1.0594,-2.0787 1.3061,-4.3944 0.7544,-6.6247 -0.5496,-2.223 -1.8316,-4.1137 -3.6401,-5.4584 -1.3677,-1.0167 -2.8891,-1.6077 -4.4092,-1.875 h 0.01 c -1.5102,-0.2656 -2.9678,-0.2048 -4.314,0.048 -2.6778,0.5017 -4.8072,1.7046 -6.5386,2.8509 -4.3843,2.9025 -7.7396,6.5786 -10.7868,9.9958 -1.5188,1.7032 -3.0165,3.4243 -4.5026,5.1562 0.1535,-4.0372 0.8015,-8.0554 1.9483,-11.9183 1.7294,-5.8258 4.7146,-11.1191 9.0124,-14.0259 0.225,-0.1521 0.277,-0.096 0.4816,-0.2106 a 4.6875,4.6875 0 0 0 -0.921,4.9897 4.6875,4.6875 0 0 0 6.3098,2.0416 c 1.4115,-0.7212 2.6325,-1.7396 3.5962,-2.9975 0.7833,-1.0226 1.4354,-2.2528 1.7706,-3.7042 0.3401,-1.4722 0.3323,-3.0797 -0.2252,-4.693 -0.7033,-2.0351 -2.0793,-3.5364 -3.728,-4.5135 -1.6273,-0.9643 -3.3504,-1.3147 -4.9549,-1.3147 a 4.6879687,4.6879687 0 0 0 -0.022,0 z m -21.3208,51.9506 c 0.7863,0.01 1.5641,0.176 2.2851,0.5146 a 4.6875,4.6875 0 0 0 0.01,0 c 2.8789,1.3573 4.2421,5.1262 2.5306,8.7708 -1.5827,3.3704 -4.9254,4.7801 -7.6996,3.9074 -0.8273,-0.7871 -1.7434,-1.4297 -2.7155,-1.9354 -1.3623,-1.8063 -1.7242,-4.4819 -0.4962,-7.0971 1.2847,-2.7358 3.7292,-4.1825 6.0883,-4.1639 z m -11.9861,19.1584 c 0.3943,-0.014 0.7594,0.018 1.0913,0.082 0.6382,0.5528 1.331,1.0552 2.0764,1.4996 0.1213,0.2745 0.2191,0.5918 0.2618,0.9357 0.08,0.6443 0,1.445 -0.2526,2.2723 -0.5262,1.684 -1.8353,3.5389 -3.5852,5.5078 -4.8833,5.4945 -11.0197,10.2339 -17.2303,15.3717 -4.8636,4.0235 -9.8198,8.3486 -14.057,13.6121 -5.68,7.0559 -9.348,14.6374 -14.2749,20.2789 -1.3323,1.5255 -2.5435,2.5303 -3.4607,2.8711 a 4.6879687,4.6879687 0 0 0 -0.01,0 c -0.4222,0.1578 -0.8087,0.1802 -1.0144,0.1483 -0.1162,-0.018 -0.2072,-0.075 -0.2289,-0.082 0,0 0.011,0.024 0.01,0.02 -0.017,-0.019 -0.016,-0.023 -0.01,-0.02 0.012,0.012 -0.025,-0.03 -0.062,-0.1629 -0.046,-0.1637 -0.086,-0.4499 -0.069,-0.824 0.06,-1.3084 0.8026,-2.9874 2.0764,-4.5941 1.3066,-1.6481 3.1856,-3.3099 5.2404,-5.3394 5.9567,-5.8832 10.725,-12.8248 14.3207,-20.2588 2.7687,-5.7243 4.7345,-11.1232 7.815,-14.9927 2.6398,-3.3161 6.6321,-6.1722 10.7721,-9.7265 1.8002,-1.5455 3.3587,-2.9983 4.8669,-4.1217 1.4979,-1.1156 2.9708,-1.9159 4.3121,-2.2669 0.4849,-0.1267 0.9635,-0.1948 1.4118,-0.2105 z" id="corpo" style="color:#000000;fill:#FF6768;fill-opacity:1;fill-rule:evenodd;stroke-linecap:round;stroke-linejoin:round;-inkscape-stroke:none"/><path d="m -6868.3671,3441.6593 c -0.6052,0.013 -1.2166,0.056 -1.8329,0.1337 -2.5979,0.3279 -5.1937,1.2675 -7.4359,2.9828 -2.2656,1.7333 -4.0339,4.1665 -4.7992,7.1209 -0.5805,2.2411 -0.485,4.3762 -0.1575,6.2549 0.3252,1.8641 0.8717,3.4663 1.3513,4.8615 0.4789,1.3937 0.8943,2.5918 1.1261,3.6218 0.2293,1.019 0.2765,1.8906 0.1776,2.5177 -0.1319,0.8373 -0.6357,1.8943 -1.4721,2.9169 -0.8548,1.0451 -2.068,2.1003 -3.5083,3.2464 -1.4425,1.1479 -3.1283,2.3999 -4.7974,4.0357 -1.6801,1.6465 -3.3372,3.6927 -4.3781,6.3281 -1.5438,3.9091 -1.2395,7.6067 -1.0693,10.5139 0.1677,2.8617 0.1685,5.1369 -0.3827,6.6101 -0.5853,1.5642 -2.1902,3.3311 -4.3616,5.3064 -2.2049,2.0057 -5.1088,4.3851 -7.033,8.1903 -1.3045,2.5796 -1.8441,5.3188 -1.9208,7.9358 -0.076,2.6022 0.2993,5.0552 0.8295,7.3206 1.2564,5.3692 3.6197,10.429 6.8554,14.8681 -0.9626,0.4714 -1.9117,0.9729 -2.8418,1.5125 -3.6744,2.1317 -7.3657,4.9364 -10.036,8.9465 -1.3392,2.011 -2.3902,4.2935 -2.9425,6.7932 -0.5545,2.5098 -0.5917,5.1854 0.07,7.815 0.089,0.3546 0.2093,0.6818 0.3168,1.0199 -5.2495,5.4051 -10.8521,10.4704 -16.7597,15.1465 -2.2251,1.7612 -5.0216,3.7833 -7.24,6.9946 -1.1181,1.6184 -2.0502,3.5205 -2.4865,5.7074 -0.4414,2.2125 -0.3525,4.6279 0.5877,6.958 0.8214,2.0358 2.1953,3.7503 3.9606,5.0024 1.7621,1.2499 3.806,1.9625 5.9308,2.1058 3.7188,0.2507 6.9855,-1.225 9.4464,-3.3014 2.4021,-2.0268 3.949,-4.5069 5.0976,-6.8409 1.6735,-3.4007 2.6021,-6.2456 3.8874,-7.9211 1.1359,-1.4809 2.8743,-2.6246 4.6838,-3.0817 0.5329,-0.1346 1.0895,-0.209 1.6516,-0.2343 -0.2079,0.3586 -0.4297,0.7203 -0.6903,1.0803 -1.2306,1.7 -3.0425,3.4546 -4.9896,5.6305 -3.4371,3.8409 -6.569,8.4391 -8.0621,13.9526 -0.4494,1.6593 -0.8116,3.5938 -0.6446,5.7568 0.1703,2.2072 0.8973,4.5657 2.6258,6.568 2.074,2.4028 4.9652,3.5741 7.9138,3.6109 2.8947,0.037 5.5154,-1.0151 7.5952,-2.6734 2.5342,-2.0206 3.8723,-4.5257 4.8907,-6.5496 1.0073,-2.0022 1.7578,-3.5871 2.5379,-4.5575 0.9099,-1.132 2.3212,-2.114 3.977,-2.7668 1.6773,-0.6613 3.6477,-1.0268 5.7807,-1.1883 8.034,-0.6083 17.1524,1.9675 27.3761,1.344 3.4048,-0.2077 6.7517,-0.8592 9.9994,-1.8311 5.0291,-5.0113 9.1516,-11 12.2918,-17.492 0.1086,-0.2245 0.2131,-0.4765 0.3205,-0.705 -6.0409,6.2024 -14.544,10.1428 -23.1812,10.6696 -8.0867,0.4933 -17.2574,-2.1097 -27.5152,-1.333 -2.7389,0.2073 -5.6428,0.6821 -8.5108,1.8127 -2.8896,1.1392 -5.6968,2.9379 -7.8479,5.614 -1.8167,2.2599 -2.7499,4.5199 -3.6053,6.2201 -0.8446,1.6785 -1.652,2.87 -2.3584,3.4332 -0.526,0.4194 -1.1956,0.6337 -1.6333,0.6281 -0.3837,0 -0.8321,-0.2407 -0.9357,-0.3607 -0.1093,-0.1266 -0.3274,-0.5697 -0.3735,-1.1664 -0.049,-0.6408 0.06,-1.5265 0.346,-2.5818 0.961,-3.5485 3.1769,-6.9979 6.0004,-10.1532 1.6145,-1.8042 3.6947,-3.7603 5.5957,-6.3867 1.8479,-2.5528 3.48,-5.7894 3.6072,-9.6277 a 4.6875,4.6875 0 0 0 0.026,-0.52 c -0.01,-2.8143 -0.8613,-5.321 -1.9702,-7.4433 -1.0991,-2.1036 -2.4317,-3.8184 -3.6548,-5.3265 -2.4264,-2.9924 -4.3669,-5.4023 -4.8962,-7.5037 -0.2672,-1.062 -0.2755,-2.2972 -0.011,-3.5046 0.269,-1.2174 0.8185,-2.4607 1.5893,-3.6182 1.5497,-2.3272 4.0266,-4.3444 6.9379,-6.0333 9.1871,-5.3296 20.9081,-6.5067 30.9723,-3.1128 a 4.6875,4.6875 0 0 0 0.6958,0.09 4.6875,4.6875 0 0 0 0.8679,0.1117 4.6875,4.6875 0 0 0 0.9027,-0.1428 4.6875,4.6875 0 0 0 0.6647,-0.1062 4.6875,4.6875 0 0 0 0.3827,-0.1776 4.6875,4.6875 0 0 0 0.1117,-0.051 4.6875,4.6875 0 0 0 1.3861,-1.0693 4.6875,4.6875 0 0 0 0.038,-0.049 4.6875,4.6875 0 0 0 0.8625,-1.5015 4.6875,4.6875 0 0 0 0.027,-0.05 4.6875,4.6875 0 0 0 0.024,-0.091 4.6875,4.6875 0 0 0 0.099,-0.3827 4.6875,4.6875 0 0 0 0.059,-0.2966 4.6875,4.6875 0 0 0 0.044,-0.401 4.6875,4.6875 0 0 0 0.011,-0.293 4.6875,4.6875 0 0 0 -0.011,-0.3863 4.6875,4.6875 0 0 0 -0.04,-0.3315 4.6875,4.6875 0 0 0 -0.064,-0.3662 4.6875,4.6875 0 0 0 -0.086,-0.3003 4.6875,4.6875 0 0 0 -0.077,-0.2765 c -0.019,-0.05 -0.042,-0.098 -0.06,-0.1483 a 4.6875,4.6875 0 0 0 -0.01,-0.011 c -1.5288,-4.0781 -3.6513,-7.9232 -6.2988,-11.3818 -2.0761,-2.7123 -4.0176,-4.7872 -5.0775,-6.7328 -0.5246,-0.9628 -0.8467,-1.8902 -0.9522,-2.6843 -0.1023,-0.7687 0.011,-1.4819 0.2124,-1.9263 0.2539,-0.5575 0.9433,-1.3036 1.9629,-1.8878 1.0607,-0.6076 2.5116,-1.1027 4.2554,-1.6022 1.7484,-0.5009 3.8165,-1.0163 6.0205,-1.9995 2.2312,-0.9954 4.5878,-2.4843 6.3611,-4.9237 1.6851,-2.3182 2.3531,-4.8041 2.7374,-6.9434 0.3804,-2.118 0.5056,-3.9165 0.769,-5.3302 0.8371,-4.4925 3.5221,-8.7646 7.2107,-11.4825 2.1396,-1.5765 5.1298,-2.9349 8.3313,-5.0665 1.5368,-1.0231 3.1103,-2.2544 4.5301,-3.8214 a 4.6875,4.6875 0 0 0 0.119,-0.1245 c 0.023,-0.026 0.048,-0.049 0.071,-0.075 1.4775,-1.6799 2.7471,-3.7303 3.4186,-6.1652 0.766,-2.7785 0.5886,-5.2944 0.4046,-7.3443 -0.183,-2.0343 -0.363,-3.6597 -0.2545,-4.8633 0.1206,-1.3371 0.6105,-2.6107 1.3184,-3.5102 0.6876,-0.8738 1.7159,-1.507 2.6184,-1.6845 0.7258,-0.1427 1.6627,-0.069 2.5708,0.2563 0.9263,0.3312 1.8963,0.9314 2.7997,1.7414 1.8252,1.6369 3.3853,4.1584 5.0464,7.0953 5.1193,9.0516 9.7681,18.16 12.2699,27.6764 3.0608,11.6429 2.9887,24.1819 1.5509,36.6412 -1.1014,9.5428 -2.9962,18.9913 -5.5921,28.2404 0.8187,-0.3575 1.6657,-0.6849 2.5763,-0.9302 -0.6121,-3.3232 -0.2143,-6.8927 1.3202,-10.1605 2.0373,-4.3386 5.7702,-7.4451 10.0104,-8.7854 0.3749,-2.4235 0.7186,-4.8512 0.9997,-7.2876 1.5148,-13.1254 1.6893,-26.8348 -1.7981,-40.1001 -2.8494,-10.839 -7.9343,-20.642 -13.1762,-29.9103 -1.7091,-3.0219 -3.6775,-6.5255 -6.9489,-9.4592 -1.6451,-1.4752 -3.603,-2.7676 -5.8996,-3.5889 -1.1575,-0.4139 -2.382,-0.7004 -3.6475,-0.8185 v 0 c -1.2656,-0.1182 -2.5728,-0.068 -3.8892,0.1904 -3.3541,0.6595 -6.1805,2.5515 -8.1757,5.0867 -1.975,2.5094 -3.0214,5.4836 -3.2904,8.4668 -0.1294,1.4352 -0.081,2.7161 0.011,3.9001 -3.0392,-4.3264 -6.3313,-8.4746 -9.8749,-12.3999 -2.4957,-2.7648 -5.3313,-5.6992 -9.0197,-7.976 -2.8043,-1.7312 -6.0984,-3.0369 -9.6497,-3.3197 h -0.01 c -0.5919,-0.047 -1.1911,-0.064 -1.7962,-0.051 z m 0.1849,9.375 c 1.9984,-0.024 4.2746,0.6983 6.3409,1.9739 2.4123,1.4891 4.6772,3.7235 6.9855,6.2805 4.8592,5.3828 9.2269,11.2098 13.0426,17.3767 -0.1277,0.089 -0.2318,0.181 -0.3644,0.2692 -2.3354,1.555 -5.4816,2.9514 -8.6975,5.321 -5.654,4.166 -9.5787,10.3969 -10.8673,17.3127 -0.3981,2.1365 -0.5185,3.9566 -0.7764,5.3924 -0.2542,1.4153 -0.6567,2.488 -1.0949,3.0908 -0.4567,0.6283 -1.3659,1.3252 -2.5983,1.875 -1.2596,0.562 -2.8852,1.0037 -4.7827,1.5473 -1.9023,0.5449 -4.1035,1.2014 -6.3336,2.4792 -2.2711,1.3012 -4.5178,3.2455 -5.8356,6.1395 -1.0638,2.3365 -1.273,4.7856 -0.9723,7.0459 0.2974,2.2341 1.0751,4.2146 2.0123,5.9345 1.8638,3.421 4.2281,5.8044 5.8667,7.9449 0.2062,0.2694 0.3896,0.5559 0.5878,0.8313 -1.4786,-0.1447 -2.9616,-0.2284 -4.4458,-0.2343 v 0 c -3.9695,-0.016 -7.934,0.4777 -11.7865,1.4392 -3.3789,-3.8905 -5.8327,-8.6316 -7.0038,-13.6359 -0.4078,-1.7426 -0.6337,-3.3985 -0.5896,-4.9108 0.044,-1.4974 0.3642,-2.8871 0.9173,-3.9808 0.83,-1.6413 2.667,-3.3845 4.9769,-5.4858 2.3432,-2.1315 5.2781,-4.8037 6.8316,-8.9557 1.463,-3.9104 1.1298,-7.5678 0.9613,-10.4443 -0.1658,-2.831 -0.139,-5.0851 0.4285,-6.5222 0.3765,-0.9532 1.1474,-2.0222 2.2229,-3.0762 1.0865,-1.0649 2.4957,-2.1401 4.0723,-3.3948 1.5788,-1.2563 3.3374,-2.7039 4.9255,-4.6454 1.6063,-1.9639 3.0084,-4.4217 3.4772,-7.3956 0.3484,-2.2101 0.1099,-4.2521 -0.2912,-6.0352 -0.3988,-1.7722 -0.9517,-3.2863 -1.4062,-4.6087 -0.454,-1.3212 -0.8111,-2.4603 -0.9796,-3.4259 -0.1657,-0.9506 -0.1436,-1.7532 0,-2.2925 0.1766,-0.6818 0.7012,-1.4779 1.419,-2.027 0.7412,-0.5671 1.788,-0.9855 2.9169,-1.1279 0.2728,-0.035 0.5513,-0.053 0.8368,-0.057 z m 51.6229,26.7078 a 4.6875,4.6875 0 0 0 -0.8038,0.1025 4.6875,4.6875 0 0 0 -0.3259,0.04 4.6875,4.6875 0 0 0 -1.2177,0.4743 4.6875,4.6875 0 0 0 -0.044,0.035 4.6875,4.6875 0 0 0 -0.5585,0.4486 4.6875,4.6875 0 0 0 -0.5676,0.4761 4.6875,4.6875 0 0 0 -0.4322,0.661 4.6875,4.6875 0 0 0 -0.357,0.5713 4.6875,4.6875 0 0 0 -0.2051,0.7489 4.6875,4.6875 0 0 0 -0.1666,0.6684 4.6875,4.6875 0 0 0 -0.013,0.053 c -0.3297,3.7796 -2.7161,7.5919 -5.9729,9.5379 -2.372,1.4174 -5.9173,2.2197 -9.9756,3.9112 -2.0364,0.8488 -4.1997,1.9686 -6.167,3.684 -1.9931,1.7378 -3.7259,4.055 -4.5319,6.98 -1.0625,3.8559 -0.278,7.025 -0.1172,9.1516 0.079,1.0513 0.053,1.8833 -0.068,2.4518 -0.1135,0.533 -0.3414,0.8708 -0.4083,0.9357 -0.072,0.07 -0.4649,0.3285 -1.1628,0.509 -0.7268,0.188 -1.798,0.3084 -3.1787,0.5164 -1.3882,0.2092 -3.1069,0.5149 -4.9365,1.4209 -1.8933,0.9375 -3.7989,2.4873 -4.8212,4.9969 -0.7185,1.7632 -0.7934,3.541 -0.5035,5.1544 0.2855,1.589 0.91,2.9392 1.6296,4.0741 1.4248,2.247 3.1062,3.6071 4.2353,4.6875 2.9294,2.8028 5.4514,6.0455 7.4469,9.5746 a 4.6875,4.6875 0 0 0 6.3885,1.7743 4.6875,4.6875 0 0 0 1.7725,-6.3885 c -2.4492,-4.3315 -5.5307,-8.2934 -9.126,-11.7334 -1.376,-1.3166 -2.3679,-2.2525 -2.7997,-2.9334 -0.1942,-0.3064 -0.2758,-0.543 -0.3039,-0.6702 0.024,-0.015 0.087,-0.061 0.2398,-0.1373 0.384,-0.1901 1.1209,-0.3905 2.1753,-0.5493 1.062,-0.16 2.4623,-0.2817 4.1272,-0.7123 1.6936,-0.4381 3.6464,-1.2056 5.3467,-2.8564 1.7503,-1.6993 2.631,-3.7651 3.045,-5.7093 0.4066,-1.9083 0.3599,-3.6393 0.2491,-5.1123 -0.2212,-2.9246 -0.4791,-4.9253 -0.196,-5.9527 0.204,-0.7403 0.7864,-1.6434 1.659,-2.4042 0.898,-0.783 2.1362,-1.4826 3.609,-2.0965 2.96,-1.2337 7.0253,-2.0363 11.1804,-4.5191 2.3254,-1.3895 4.3361,-3.1953 5.9674,-5.2881 2.2621,7.0867 2.9849,14.756 2.5269,22.3957 -0.7133,11.8966 -4.2651,23.6516 -10.2613,33.9514 a 4.6875,4.6875 0 0 0 1.6938,6.4105 4.6875,4.6875 0 0 0 6.4087,-1.6937 c 6.7439,-11.5843 10.7168,-24.7277 11.5191,-38.1079 0.5533,-9.2297 -0.3958,-18.7187 -3.5779,-27.6581 -1.1722,-3.2932 -2.6356,-6.4778 -4.3707,-9.5124 a 4.6875,4.6875 0 0 0 -0.029,-0.038 4.6875,4.6875 0 0 0 -0.6811,-0.8954 4.6875,4.6875 0 0 0 -0.1062,-0.1007 4.6875,4.6875 0 0 0 -0.8368,-0.6464 4.6875,4.6875 0 0 0 -0.1429,-0.081 4.6875,4.6875 0 0 0 -0.9631,-0.4029 4.6875,4.6875 0 0 0 -0.079,-0.033 4.6875,4.6875 0 0 0 -0.081,-0.011 4.6875,4.6875 0 0 0 -0.7452,-0.1337 v 0 a 4.6875,4.6875 0 0 0 -0.1666,0.011 4.6875,4.6875 0 0 0 -0.2216,-0.029 z m -51.8683,80.2606 c -6.44,0 -12.3418,1.6309 -16.9391,4.5978 -4.5971,2.9669 -8.1097,7.6382 -8.1097,13.2294 9e-4,5.5901 3.5131,10.2628 8.1097,13.2293 4.5973,2.9669 10.4991,4.5978 16.9391,4.5978 6.4399,0 12.3399,-1.6309 16.9373,-4.5978 4.5973,-2.9669 8.1098,-7.6399 8.1097,-13.2312 -8e-4,-5.5903 -3.513,-10.261 -8.1097,-13.2275 -4.5974,-2.9669 -10.4974,-4.5978 -16.9373,-4.5978 z m 0,9.375 c 4.805,0 9.0843,1.3094 11.8561,3.0981 2.7719,1.7888 3.8159,3.6865 3.8159,5.3522 0,1.6657 -1.044,3.5634 -3.8159,5.3522 -2.7718,1.7889 -7.0511,3.1 -11.8561,3.1 -4.8051,0 -9.086,-1.3111 -11.8579,-3.1 -2.7718,-1.7888 -3.8159,-3.6865 -3.8159,-5.3522 0,-1.6657 1.0441,-3.5634 3.8159,-5.3522 2.7719,-1.7887 7.0528,-3.0981 11.8579,-3.0981 z m -43.2476,13.4766 c 0.5034,0.6083 1.0068,1.2065 1.4538,1.7578 0.3228,0.3979 0.5911,0.7654 0.8789,1.1444 -0.8241,0.089 -1.6443,0.2327 -2.4554,0.4376 -3.9089,0.9874 -7.3717,3.2629 -9.8255,6.4618 -2.6774,3.4902 -3.6602,7.0495 -4.8614,9.4904 -0.8114,1.6488 -1.7415,2.9764 -2.732,3.8122 -0.9317,0.7862 -2.0603,1.1611 -2.7703,1.1133 -0.3998,-0.027 -0.8334,-0.1831 -1.1353,-0.3973 -0.2985,-0.2116 -0.5667,-0.5535 -0.6921,-0.8643 -0.1472,-0.3649 -0.2149,-0.9775 -0.088,-1.615 0.1322,-0.663 0.4714,-1.4392 1.0052,-2.2119 1.0852,-1.5709 3.0143,-3.1271 5.3467,-4.9731 5.5625,-4.403 10.8625,-9.136 15.8753,-14.1559 z" id="asa" style="color:#000000;fill:#FF6768;fill-opacity:1;fill-rule:evenodd;stroke-linecap:round;stroke-linejoin:round"/></g></g></svg>