<?xml version="1.0" encoding="UTF-8" standalone="no"?>
<!-- Created with Inkscape (http://www.inkscape.org/) -->

<svg
   width="210mm"
   height="297mm"
   viewBox="0 0 210 297"
   version="1.1"
   id="svg5"
   xml:space="preserve"
   inkscape:version="1.2.2 (732a01da63, 2022-12-09)"
   sodipodi:docname="desenho.svg"
   inkscape:export-filename="desenho.png"
   inkscape:export-xdpi="48.380951"
   inkscape:export-ydpi="48.380951"
   xmlns:inkscape="http://www.inkscape.org/namespaces/inkscape"
   xmlns:sodipodi="http://sodipodi.sourceforge.net/DTD/sodipodi-0.dtd"
   xmlns="http://www.w3.org/2000/svg"
   xmlns:svg="http://www.w3.org/2000/svg"><sodipodi:namedview
     id="namedview7"
     pagecolor="#505050"
     bordercolor="#eeeeee"
     borderopacity="1"
     inkscape:showpageshadow="0"
     inkscape:pageopacity="0"
     inkscape:pagecheckerboard="0"
     inkscape:deskcolor="#505050"
     inkscape:document-units="mm"
     showgrid="false"
     inkscape:zoom="1.1893044"
     inkscape:cx="574.70568"
     inkscape:cy="528.88058"
     inkscape:window-width="2560"
     inkscape:window-height="1017"
     inkscape:window-x="1358"
     inkscape:window-y="-8"
     inkscape:window-maximized="1"
     inkscape:current-layer="layer1" /><defs
     id="defs2"><clipPath
       id="clipPath66"
       clipPathUnits="userSpaceOnUse"><path
         id="path64"
         d="M 3518.8,751.602 H 1850.11 c -63.31,0 -114.64,51.32 -114.64,114.636 V 3757.78 c 0,28.67 10.52,54.88 27.92,74.98 21.02,24.29 52.08,39.66 86.72,39.66 H 3518.8 c 63.32,0 114.65,-51.33 114.65,-114.64 V 1786.07 965.871 866.238 c 0,-42.996 -23.67,-80.457 -58.69,-100.078 -16.55,-9.269 -35.64,-14.558 -55.96,-14.558 M 2030.36,1233.6 V 1025.93 H 3400.98 V 1233.6 H 2030.36 m 598.99,570.5 v -40 h 387.86 v -433.05 h 40 v 0 473.05 h -427.86 m 183.92,981.09 v -398.9 h -660.56 v -427.85 h 40.01 v 387.85 h 660.55 v 438.9 h -40 m 540.27,236.08 v -59.04 h 157.32 v 59.04 h -157.32 m -720.74,0 v -59.04 h 615.87 v 59.04 H 2632.8 m 198.86,166.98 v -59.05 h 679.2 v 59.05 h -679.2 m 291.31,119.19 v -59.06 h 387.89 v 59.06 h -387.89 m -531.02,109.01 v -59.04 h 918.91 v 59.04 h -918.91" /></clipPath><linearGradient
       id="linearGradient72"
       spreadMethod="pad"
       gradientTransform="matrix(-1.364e-4,3120.82,3120.82,1.364e-4,2684.45,751.6)"
       gradientUnits="userSpaceOnUse"
       y2="0"
       x2="1"
       y1="0"
       x1="0"><stop
         id="stop68"
         offset="0"
         style="stop-opacity:1;stop-color:#3a2c80" /><stop
         id="stop70"
         offset="1"
         style="stop-opacity:1;stop-color:#62339a" /></linearGradient><clipPath
       id="clipPath96"
       clipPathUnits="userSpaceOnUse"><path
         id="path94"
         d="m 2591.95,3357.41 h 918.91 v 59.0391 h -918.91 z" /></clipPath><clipPath
       id="clipPath112"
       clipPathUnits="userSpaceOnUse"><path
         id="path110"
         d="m 3122.97,3248.38 h 387.891 v 59.0625 H 3122.97 Z" /></clipPath><clipPath
       id="clipPath128"
       clipPathUnits="userSpaceOnUse"><path
         id="path126"
         d="m 3353.54,2962.23 h 157.32 v 59.0391 h -157.32 z" /></clipPath><clipPath
       id="clipPath144"
       clipPathUnits="userSpaceOnUse"><path
         id="path142"
         d="m 2831.66,3129.2 h 679.199 v 59.0508 H 2831.66 Z" /></clipPath><clipPath
       id="clipPath160"
       clipPathUnits="userSpaceOnUse"><path
         id="path158"
         d="m 2632.8,2962.23 h 615.871 v 59.0391 H 2632.8 Z" /></clipPath><clipPath
       id="clipPath176"
       clipPathUnits="userSpaceOnUse"><path
         id="path174"
         d="m 2192.72,1958.44 h -40.01 v 427.85 h 660.56 v 398.9 h 40 v -438.9 h -660.55 v -387.85" /></clipPath><clipPath
       id="clipPath192"
       clipPathUnits="userSpaceOnUse"><path
         id="path190"
         d="m 3057.21,1331.05 h -40 v 433.05 h -387.86 v 40 h 427.86 v -473.05 0" /></clipPath><clipPath
       id="clipPath276"
       clipPathUnits="userSpaceOnUse"><path
         id="path274"
         d="M 3400.98,1025.93 H 2030.36 v 207.67 h 1370.62 v -207.67 m -1201.82,149.52 v -92.52 h 1048.43 v 92.52 H 2199.16" /></clipPath><clipPath
       id="clipPath292"
       clipPathUnits="userSpaceOnUse"><path
         id="path290"
         d="m 2199.16,1082.93 h 1048.43 v 92.5195 H 2199.16 Z" /></clipPath><clipPath
       id="clipPath308"
       clipPathUnits="userSpaceOnUse"><path
         style="clip-rule:evenodd"
         id="path306"
         d="m 2199,1172 v 4 h 91 v -4 z" /></clipPath><clipPath
       id="clipPath322"
       clipPathUnits="userSpaceOnUse"><path
         style="clip-rule:evenodd"
         id="path320"
         d="m 2199,1082 v 91 h 91 v -91 z" /></clipPath><clipPath
       id="clipPath336"
       clipPathUnits="userSpaceOnUse"><path
         style="clip-rule:evenodd"
         id="path334"
         d="m 2310,1172 v 4 h 110 v -4 z" /></clipPath><clipPath
       id="clipPath350"
       clipPathUnits="userSpaceOnUse"><path
         style="clip-rule:evenodd"
         id="path348"
         d="m 2310,1082 v 91 h 110 v -91 z" /></clipPath><clipPath
       id="clipPath364"
       clipPathUnits="userSpaceOnUse"><path
         style="clip-rule:evenodd"
         id="path362"
         d="m 2450,1172 v 4 h 90 v -4 z" /></clipPath><clipPath
       id="clipPath378"
       clipPathUnits="userSpaceOnUse"><path
         style="clip-rule:evenodd"
         id="path376"
         d="m 2450,1082 v 91 h 90 v -91 z" /></clipPath><clipPath
       id="clipPath392"
       clipPathUnits="userSpaceOnUse"><path
         style="clip-rule:evenodd"
         id="path390"
         d="m 2580,1172 v 4 h 90 v -4 z" /></clipPath><clipPath
       id="clipPath406"
       clipPathUnits="userSpaceOnUse"><path
         style="clip-rule:evenodd"
         id="path404"
         d="m 2580,1082 v 91 h 90 v -91 z" /></clipPath><clipPath
       id="clipPath420"
       clipPathUnits="userSpaceOnUse"><path
         style="clip-rule:evenodd"
         id="path418"
         d="m 2700,1172 v 4 h 90 v -4 z" /></clipPath><clipPath
       id="clipPath434"
       clipPathUnits="userSpaceOnUse"><path
         style="clip-rule:evenodd"
         id="path432"
         d="m 2700,1082 v 91 h 90 v -91 z" /></clipPath><clipPath
       id="clipPath448"
       clipPathUnits="userSpaceOnUse"><path
         style="clip-rule:evenodd"
         id="path446"
         d="m 2810,1172 v 4 h 100 v -4 z" /></clipPath><clipPath
       id="clipPath462"
       clipPathUnits="userSpaceOnUse"><path
         style="clip-rule:evenodd"
         id="path460"
         d="m 2810,1082 v 91 h 100 v -91 z" /></clipPath><clipPath
       id="clipPath476"
       clipPathUnits="userSpaceOnUse"><path
         style="clip-rule:evenodd"
         id="path474"
         d="m 2930,1172 v 4 h 90 v -4 z" /></clipPath><clipPath
       id="clipPath490"
       clipPathUnits="userSpaceOnUse"><path
         style="clip-rule:evenodd"
         id="path488"
         d="m 2930,1082 v 91 h 90 v -91 z" /></clipPath><clipPath
       id="clipPath504"
       clipPathUnits="userSpaceOnUse"><path
         style="clip-rule:evenodd"
         id="path502"
         d="m 3040,1172 v 4 h 80 v -4 z" /></clipPath><clipPath
       id="clipPath518"
       clipPathUnits="userSpaceOnUse"><path
         style="clip-rule:evenodd"
         id="path516"
         d="m 3040,1082 v 91 h 80 v -91 z" /></clipPath><clipPath
       id="clipPath532"
       clipPathUnits="userSpaceOnUse"><path
         style="clip-rule:evenodd"
         id="path530"
         d="m 3150,1172 v 4 h 98 v -4 z" /></clipPath><clipPath
       id="clipPath546"
       clipPathUnits="userSpaceOnUse"><path
         style="clip-rule:evenodd"
         id="path544"
         d="m 3150,1082 v 91 h 98 v -91 z" /></clipPath></defs><g
     inkscape:label="Camada 1"
     inkscape:groupmode="layer"
     id="layer1"><g
       transform="matrix(0.03563373,0,0,-0.03536677,11.763911,181.48621)"
       id="g12"><path
         id="path14"
         style="display:none;fill:#ffffff;fill-opacity:1;fill-rule:nonzero;stroke:none"
         d="M 0,0 H 5000 V 5000 H 0 Z" /><path
         id="path48"
         style="fill:#603199;fill-opacity:1;fill-rule:nonzero;stroke:none"
         d="m 4254.67,3692.38 h -5 c 0,-19.06 -7.71,-36.27 -20.2,-48.77 -12.49,-12.49 -29.69,-20.19 -48.75,-20.2 h -365.31 c -19.07,0.01 -36.27,7.71 -48.77,20.2 -12.49,12.5 -20.19,29.71 -20.19,48.77 v 267.08 c 0,19.06 7.7,36.27 20.19,48.76 12.5,12.48 29.7,20.19 48.77,20.19 h 365.31 c 19.06,0 36.26,-7.71 48.75,-20.19 12.49,-12.49 20.2,-29.7 20.2,-48.76 v -267.08 h 5 5 v 267.08 c -0.01,43.61 -35.34,78.95 -78.95,78.95 h -365.31 c -43.62,0 -78.96,-35.34 -78.96,-78.95 v -267.08 c 0,-43.61 35.34,-78.96 78.96,-78.97 h 365.31 c 43.61,0.01 78.94,35.36 78.95,78.97 h -5" /><path
         id="path50"
         style="fill:#603199;fill-opacity:1;fill-rule:nonzero;stroke:none"
         d="m 4070.82,3806.59 h -145.53 v 38.66 h 145.53 v -38.66" /><path
         id="path52"
         style="fill:#603199;fill-opacity:1;fill-rule:nonzero;stroke:none"
         d="m 3978.73,3753.16 v 145.52 h 38.65 v -145.52 h -38.65" /><path
         id="path54"
         style="fill:#603199;fill-opacity:1;fill-rule:nonzero;stroke:none"
         d="m 1350.87,3556.37 c -20.5,0 -37.17,16.68 -37.17,37.17 0,20.49 16.67,37.17 37.17,37.17 20.49,0 37.16,-16.68 37.16,-37.17 0,-20.49 -16.67,-37.17 -37.16,-37.17 z m 135.66,17.65 v 39.03 h -56.34 c -2,8.13 -5.22,15.78 -9.45,22.76 l 39.86,39.86 -27.6,27.6 -39.86,-39.87 c -6.98,4.25 -14.62,7.46 -22.76,9.46 v 56.35 h -39.03 v -56.35 c -8.13,-2 -15.77,-5.21 -22.75,-9.45 l -39.87,39.87 -27.6,-27.6 39.87,-39.87 c -4.24,-6.98 -7.45,-14.61 -9.46,-22.75 h -56.35 v -39.03 h 56.35 c 2,-8.14 5.22,-15.78 9.45,-22.76 l -39.86,-39.86 27.6,-27.6 39.86,39.87 c 6.98,-4.24 14.62,-7.46 22.75,-9.46 v -56.35 h 39.03 v 56.34 c 8.14,2.01 15.78,5.22 22.76,9.46 l 39.86,-39.86 27.6,27.59 -39.86,39.86 c 4.24,6.98 7.45,14.62 9.46,22.76 h 56.34" /><path
         id="path56"
         style="fill:#a666b9;fill-opacity:1;fill-rule:nonzero;stroke:none"
         d="m 2500,4092.56 c -12.31,0 -22.31,10.01 -22.31,22.32 0,12.3 10,22.31 22.31,22.31 12.3,0 22.31,-10.01 22.31,-22.31 0,-12.31 -10.01,-22.32 -22.31,-22.32 z m 81.46,10.6 v 23.43 h -33.83 c -1.2,4.89 -3.13,9.47 -5.68,13.67 l 23.94,23.93 -16.57,16.57 -23.94,-23.93 c -4.19,2.55 -8.78,4.47 -13.66,5.67 v 33.84 h -23.44 v -33.84 c -4.88,-1.2 -9.47,-3.12 -13.66,-5.67 l -23.94,23.94 -16.57,-16.57 23.94,-23.94 c -2.55,-4.19 -4.48,-8.78 -5.68,-13.66 h -33.83 v -23.44 h 33.83 c 1.2,-4.88 3.13,-9.47 5.68,-13.66 l -23.94,-23.94 16.57,-16.56 23.94,23.93 c 4.18,-2.54 8.77,-4.48 13.66,-5.68 v -33.83 l 23.43,-0.01 v 33.84 c 4.89,1.2 9.47,3.13 13.67,5.68 l 23.93,-23.93 16.57,16.56 -23.94,23.93 c 2.55,4.19 4.48,8.78 5.69,13.67 h 33.83" /><path
         id="path58"
         style="fill:#809ed9;fill-opacity:1;fill-rule:nonzero;stroke:none"
         d="M 3474.67,3828.29 H 1805.98 c -9.45,0 -18.58,-1.27 -27.36,-3.43 l -4.47,18.68 -44.35,-44.38 c -3.31,-2.96 -6.45,-6.1 -9.4,-9.42 l -1,-0.99 0.01,-0.1 c -17.45,-20.11 -28.08,-46.29 -28.08,-75.01 V 822.102 c 0,-63.321 51.33,-114.641 114.65,-114.641 h 1668.69 c 63.32,0 114.64,51.32 114.64,114.641 V 3713.64 c 0,63.32 -51.32,114.65 -114.64,114.65" /><g
         id="g60"><g
           clip-path="url(#clipPath66)"
           id="g62"><path
             id="path74"
             style="fill:url(#linearGradient72);fill-opacity:1;fill-rule:nonzero;stroke:none"
             d="M 3518.8,751.602 H 1850.11 c -63.31,0 -114.64,51.32 -114.64,114.636 V 3757.78 c 0,28.67 10.52,54.88 27.92,74.98 21.02,24.29 52.08,39.66 86.72,39.66 H 3518.8 c 63.32,0 114.65,-51.33 114.65,-114.64 V 1786.07 965.871 866.238 c 0,-42.996 -23.67,-80.457 -58.69,-100.078 -16.55,-9.269 -35.64,-14.558 -55.96,-14.558 M 2030.36,1233.6 V 1025.93 H 3400.98 V 1233.6 H 2030.36 m 598.99,570.5 v -40 h 387.86 v -433.05 h 40 v 0 473.05 h -427.86 m 183.92,981.09 v -398.9 h -660.56 v -427.85 h 40.01 v 387.85 h 660.55 v 438.9 h -40 m 540.27,236.08 v -59.04 h 157.32 v 59.04 h -157.32 m -720.74,0 v -59.04 h 615.87 v 59.04 H 2632.8 m 198.86,166.98 v -59.05 h 679.2 v 59.05 h -679.2 m 291.31,119.19 v -59.06 h 387.89 v 59.06 h -387.89 m -531.02,109.01 v -59.04 h 918.91 v 59.04 h -918.91" /></g></g><path
         id="path76"
         style="fill:#ffffff;fill-opacity:1;fill-rule:nonzero;stroke:none"
         d="m 3015.74,3672.55 c 0,-13.6 -11.03,-24.63 -24.64,-24.63 h -628.78 c -13.61,0 -24.64,11.03 -24.64,24.63 0,13.61 11.03,24.64 24.64,24.64 h 628.78 c 13.61,0 24.64,-11.03 24.64,-24.64" /><path
         id="path78"
         style="fill:#ffffff;fill-opacity:1;fill-rule:nonzero;stroke:none"
         d="m 3197.19,3672.55 c 0,-23.88 -19.37,-43.25 -43.25,-43.25 -23.89,0 -43.27,19.37 -43.27,43.25 0,23.89 19.38,43.26 43.27,43.26 23.88,0 43.25,-19.37 43.25,-43.26" /><path
         id="path80"
         style="fill:#6586cc;fill-opacity:1;fill-rule:nonzero;stroke:none"
         d="m 2391.34,2783.36 c 0,-54.79 -44.42,-99.2 -99.21,-99.2 H 1145.7 c -54.79,0 -99.21,44.41 -99.21,99.2 v 442.7 c 0,54.8 44.42,99.22 99.21,99.22 h 1146.43 c 54.79,0 99.21,-44.42 99.21,-99.22 v -442.7" /><path
         id="path82"
         style="fill:#b1c6ea;fill-opacity:1;fill-rule:nonzero;stroke:none"
         d="m 2424.44,2816.47 c 0,-54.8 -44.42,-99.21 -99.21,-99.21 H 1178.8 c -54.79,0 -99.21,44.41 -99.21,99.21 v 442.7 c 0,54.79 44.42,99.21 99.21,99.21 h 1146.43 c 54.79,0 99.21,-44.42 99.21,-99.21 v -442.7" /><g
         transform="scale(10)"
         id="g84"><text
   id="text88"
   style="font-variant:normal;font-weight:900;font-size:39.3691px;font-family:Montserrat;-inkscape-font-specification:Montserrat-Black;writing-mode:lr-tb;fill:#ffffff;fill-opacity:1;fill-rule:nonzero;stroke:none"
   transform="matrix(1,0,0,-1,135.649,290.582)"><tspan
     id="tspan86"
     y="0"
     x="0 32.282188 57.477982">&lt;/&gt;</tspan></text>
</g><g
         id="g90"><g
           clip-path="url(#clipPath96)"
           id="g92"><path
             id="path104"
             style="fill:url(#linearGradient466);fill-opacity:1;fill-rule:nonzero;stroke:none"
             d="m 2591.95,3357.41 h 918.91 v 59.0391 h -918.91 z" /></g></g><g
         id="g106"><g
           clip-path="url(#clipPath112)"
           id="g108"><path
             id="path120"
             style="fill:url(#linearGradient468);fill-opacity:1;fill-rule:nonzero;stroke:none"
             d="m 3122.97,3248.38 h 387.891 v 59.0625 H 3122.97 Z" /></g></g><g
         id="g122"><g
           clip-path="url(#clipPath128)"
           id="g124"><path
             id="path136"
             style="fill:url(#linearGradient470);fill-opacity:1;fill-rule:nonzero;stroke:none"
             d="m 3353.54,2962.23 h 157.32 v 59.0391 h -157.32 z" /></g></g><g
         id="g138"><g
           clip-path="url(#clipPath144)"
           id="g140"><path
             id="path152"
             style="fill:url(#linearGradient472);fill-opacity:1;fill-rule:nonzero;stroke:none"
             d="m 2831.66,3129.2 h 679.199 v 59.0508 H 2831.66 Z" /></g></g><g
         id="g154"><g
           clip-path="url(#clipPath160)"
           id="g156"><path
             id="path168"
             style="fill:url(#linearGradient474);fill-opacity:1;fill-rule:nonzero;stroke:none"
             d="m 2632.8,2962.23 h 615.871 v 59.0391 H 2632.8 Z" /></g></g><g
         id="g170"><g
           clip-path="url(#clipPath176)"
           id="g172"><path
             id="path184"
             style="fill:url(#linearGradient476);fill-opacity:1;fill-rule:nonzero;stroke:none"
             d="m 2192.72,1958.44 h -40.01 v 427.85 h 660.56 v 398.9 h 40 v -438.9 h -660.55 v -387.85" /></g></g><g
         id="g186"><g
           clip-path="url(#clipPath192)"
           id="g188"><path
             id="path200"
             style="fill:url(#linearGradient478);fill-opacity:1;fill-rule:nonzero;stroke:none"
             d="m 3057.21,1331.05 h -40 v 433.05 h -387.86 v 40 h 427.86 v -473.05 0" /></g></g><path
         id="path202"
         style="fill:#2e8588;fill-opacity:1;fill-rule:nonzero;stroke:none"
         d="m 2636.84,1553.04 c 0,-54.8 -44.43,-99.21 -99.22,-99.21 h -991.96 c -54.79,0 -99.2,44.41 -99.2,99.21 v 442.69 c 0,54.8 44.41,99.21 99.2,99.21 h 991.96 c 54.79,0 99.22,-44.41 99.22,-99.21 v -442.69" /><path
         id="path204"
         style="fill:#56c7d4;fill-opacity:1;fill-rule:nonzero;stroke:none"
         d="m 2669.93,1586.13 c 0,-54.79 -44.42,-99.21 -99.22,-99.21 h -991.95 c -54.79,0 -99.2,44.42 -99.2,99.21 v 442.71 c 0,54.79 44.41,99.21 99.2,99.21 h 991.95 c 54.8,0 99.22,-44.42 99.22,-99.21 v -442.71" /><g
         transform="scale(10)"
         id="g206"><text
   id="text210"
   style="font-variant:normal;font-weight:900;font-size:16px;font-family:Montserrat;-inkscape-font-specification:Montserrat-Black;writing-mode:lr-tb;fill:#ffffff;fill-opacity:1;fill-rule:nonzero;stroke:none"
   transform="matrix(1,0,0,-1,171.351,168.124)"><tspan
     id="tspan208"
     y="0"
     x="-10">.NET CORE</tspan></text>
</g><path
         id="path212"
         style="fill:#ffffff;fill-opacity:1;fill-rule:evenodd;stroke:none"
         d="m 3276.66,2000.26 h -22.5 v -38.1 h 22.5 v 38.1" /><path
         id="path214"
         style="fill:#ffffff;fill-opacity:1;fill-rule:evenodd;stroke:none"
         d="m 3276.66,2068.61 h -22.5 v -38.1 h 22.5 v 38.1" /><path
         id="path216"
         style="fill:#ffffff;fill-opacity:1;fill-rule:evenodd;stroke:none"
         d="m 3276.66,2136.74 h -22.5 v -38.11 h 22.5 v 38.11" /><path
         id="path218"
         style="fill:#ffffff;fill-opacity:1;fill-rule:evenodd;stroke:none"
         d="m 3276.66,1794.95 h -22.5 v -38.1 h 22.5 v 38.1" /><path
         id="path220"
         style="fill:#ffffff;fill-opacity:1;fill-rule:evenodd;stroke:none"
         d="m 3276.66,1863.3 h -22.5 v -38.1 h 22.5 v 38.1" /><path
         id="path222"
         style="fill:#ffffff;fill-opacity:1;fill-rule:evenodd;stroke:none"
         d="m 3276.66,1931.43 h -22.5 v -38.11 h 22.5 v 38.11" /><path
         id="path224"
         style="fill:#ffffff;fill-opacity:1;fill-rule:evenodd;stroke:none"
         d="m 3276.66,1589.64 h -22.5 v -38.11 h 22.5 v 38.11" /><path
         id="path226"
         style="fill:#ffffff;fill-opacity:1;fill-rule:evenodd;stroke:none"
         d="m 3276.66,1657.99 h -22.5 v -38.11 h 22.5 v 38.11" /><path
         id="path228"
         style="fill:#ffffff;fill-opacity:1;fill-rule:evenodd;stroke:none"
         d="m 3276.66,1726.12 h -22.5 v -38.11 h 22.5 v 38.11" /><path
         id="path230"
         style="fill:#ffffff;fill-opacity:1;fill-rule:evenodd;stroke:none"
         d="m 3276.66,1384.34 h -22.5 v -38.12 h 22.5 v 38.12" /><path
         id="path232"
         style="fill:#ffffff;fill-opacity:1;fill-rule:evenodd;stroke:none"
         d="m 3276.66,1452.69 h -22.5 v -38.12 h 22.5 v 38.12" /><path
         id="path234"
         style="fill:#ffffff;fill-opacity:1;fill-rule:evenodd;stroke:none"
         d="m 3276.66,1520.81 h -22.5 v -38.11 h 22.5 v 38.11" /><path
         id="path236"
         style="fill:#2d4c9d;fill-opacity:1;fill-rule:nonzero;stroke:none"
         d="m 4433.47,2117.35 c 0,-54.79 -44.42,-99.21 -99.21,-99.21 H 3187.83 c -54.79,0 -99.21,44.42 -99.21,99.21 v 442.7 c 0,54.8 44.42,99.22 99.21,99.22 h 1146.43 c 54.79,0 99.21,-44.42 99.21,-99.22 v -442.7" /><path
         id="path238"
         style="fill:#5977c4;fill-opacity:1;fill-rule:nonzero;stroke:none"
         d="m 4466.57,2150.46 c 0,-54.8 -44.41,-99.21 -99.21,-99.21 H 3220.94 c -54.8,0 -99.22,44.41 -99.22,99.21 v 442.7 c 0,54.79 44.42,99.21 99.22,99.21 h 1146.42 c 54.8,0 99.21,-44.42 99.21,-99.21 v -442.7" /><g
         transform="scale(10)"
         id="g240"><text
   id="text244"
   style="font-variant:normal;font-weight:900;font-size:16px;font-family:Montserrat;-inkscape-font-specification:Montserrat-Black;writing-mode:lr-tb;fill:#ffffff;fill-opacity:1;fill-rule:nonzero;stroke:none"
   transform="matrix(1,0,0,-1,334.089,226.911)"><tspan
     id="tspan242"
     y="0"
     x="0">ANGULAR</tspan></text>
</g><path
         id="path246"
         style="fill:#ffffff;fill-opacity:1;fill-rule:evenodd;stroke:none"
         d="m 2197.56,2474.44 v -22.5 h 33.55 v 22.5 h -33.55" /><path
         id="path248"
         style="fill:#ffffff;fill-opacity:1;fill-rule:evenodd;stroke:none"
         d="m 2137.38,2474.44 v -22.5 h 33.55 v 22.5 h -33.55" /><path
         id="path250"
         style="fill:#ffffff;fill-opacity:1;fill-rule:evenodd;stroke:none"
         d="m 2077.4,2474.44 v -22.5 h 33.55 v 22.5 h -33.55" /><path
         id="path252"
         style="fill:#ffffff;fill-opacity:1;fill-rule:evenodd;stroke:none"
         d="m 2378.32,2474.44 v -22.5 h 33.55 v 22.5 h -33.55" /><path
         id="path254"
         style="fill:#ffffff;fill-opacity:1;fill-rule:evenodd;stroke:none"
         d="m 2318.14,2474.44 v -22.5 h 33.55 v 22.5 h -33.55" /><path
         id="path256"
         style="fill:#ffffff;fill-opacity:1;fill-rule:evenodd;stroke:none"
         d="m 2258.16,2474.44 v -22.5 h 33.55 v 22.5 h -33.55" /><path
         id="path258"
         style="fill:#ffffff;fill-opacity:1;fill-rule:evenodd;stroke:none"
         d="m 2559.08,2474.44 v -22.5 h 33.55 v 22.5 h -33.55" /><path
         id="path260"
         style="fill:#ffffff;fill-opacity:1;fill-rule:evenodd;stroke:none"
         d="m 2498.9,2474.44 v -22.5 h 33.55 v 22.5 h -33.55" /><path
         id="path262"
         style="fill:#ffffff;fill-opacity:1;fill-rule:evenodd;stroke:none"
         d="m 2438.92,2474.44 v -22.5 h 33.56 v 22.5 h -33.56" /><path
         id="path264"
         style="fill:#ffffff;fill-opacity:1;fill-rule:evenodd;stroke:none"
         d="m 2066.78,2365.14 h 22.5 v 40.91 h -22.5 v -40.91" /><path
         id="path266"
         style="fill:#ffffff;fill-opacity:1;fill-rule:evenodd;stroke:none"
         d="m 2066.78,2291.74 h 22.5 v 40.93 h -22.5 v -40.93" /><path
         id="path268"
         style="fill:#ffffff;fill-opacity:1;fill-rule:evenodd;stroke:none"
         d="m 2066.78,2218.58 h 22.5 v 40.93 h -22.5 v -40.93" /><g
         id="g270"><g
           clip-path="url(#clipPath276)"
           id="g272"><path
             id="path284"
             style="fill:url(#linearGradient480);fill-opacity:1;fill-rule:nonzero;stroke:none"
             d="M 3400.98,1025.93 H 2030.36 v 207.67 h 1370.62 v -207.67 m -1201.82,149.52 v -92.52 h 1048.43 v 92.52 H 2199.16" /></g></g><g
         id="g286"><g
           clip-path="url(#clipPath292)"
           id="g288"><path
             id="path300"
             style="fill:url(#linearGradient482);fill-opacity:1;fill-rule:nonzero;stroke:none"
             d="m 2199.16,1082.93 h 1048.43 v 92.5195 H 2199.16 Z" /></g></g><g
         id="g302"><g
           clip-path="url(#clipPath308)"
           id="g304"><g
             transform="scale(10)"
             id="g310"><text
   id="text314"
   style="font-variant:normal;font-weight:800;font-size:12.7099px;font-family:Montserrat;-inkscape-font-specification:Montserrat-ExtraBold;writing-mode:lr-tb;fill:#9d76c2;fill-opacity:1;fill-rule:nonzero;stroke:none"
   transform="matrix(1,0,0,-1,219.483,108.471)"><tspan
     id="tspan312"
     y="0"
     x="0">C</tspan></text>
</g></g></g><g
         id="g316"><g
           clip-path="url(#clipPath322)"
           id="g318"><g
             transform="scale(10)"
             id="g324"><text
   id="text328"
   style="font-variant:normal;font-weight:800;font-size:12.7099px;font-family:Montserrat;-inkscape-font-specification:Montserrat-ExtraBold;writing-mode:lr-tb;fill:#9b76c2;fill-opacity:1;fill-rule:nonzero;stroke:none"
   transform="matrix(1,0,0,-1,219.483,108.471)"><tspan
     id="tspan326"
     y="0"
     x="0">C</tspan></text>
</g></g></g><g
         id="g330"><g
           clip-path="url(#clipPath336)"
           id="g332"><g
             transform="scale(10)"
             id="g338"><text
   id="text342"
   style="font-variant:normal;font-weight:800;font-size:12.7099px;font-family:Montserrat;-inkscape-font-specification:Montserrat-ExtraBold;writing-mode:lr-tb;fill:#9d76c2;fill-opacity:1;fill-rule:nonzero;stroke:none"
   transform="matrix(1,0,0,-1,231.214,108.471)"><tspan
     id="tspan340"
     y="0"
     x="0">O</tspan></text>
</g></g></g><g
         id="g344"><g
           clip-path="url(#clipPath350)"
           id="g346"><g
             transform="scale(10)"
             id="g352"><text
   id="text356"
   style="font-variant:normal;font-weight:800;font-size:12.7099px;font-family:Montserrat;-inkscape-font-specification:Montserrat-ExtraBold;writing-mode:lr-tb;fill:#9b76c2;fill-opacity:1;fill-rule:nonzero;stroke:none"
   transform="matrix(1,0,0,-1,231.214,108.471)"><tspan
     id="tspan354"
     y="0"
     x="0">O</tspan></text>
</g></g></g><g
         id="g358"><g
           clip-path="url(#clipPath364)"
           id="g360"><g
             transform="scale(10)"
             id="g366"><text
   id="text370"
   style="font-variant:normal;font-weight:800;font-size:12.7099px;font-family:Montserrat;-inkscape-font-specification:Montserrat-ExtraBold;writing-mode:lr-tb;fill:#9d76c2;fill-opacity:1;fill-rule:nonzero;stroke:none"
   transform="matrix(1,0,0,-1,244.509,108.471)"><tspan
     id="tspan368"
     y="0"
     x="0">N</tspan></text>
</g></g></g><g
         id="g372"><g
           clip-path="url(#clipPath378)"
           id="g374"><g
             transform="scale(10)"
             id="g380"><text
   id="text384"
   style="font-variant:normal;font-weight:800;font-size:12.7099px;font-family:Montserrat;-inkscape-font-specification:Montserrat-ExtraBold;writing-mode:lr-tb;fill:#9b76c2;fill-opacity:1;fill-rule:nonzero;stroke:none"
   transform="matrix(1,0,0,-1,244.509,108.471)"><tspan
     id="tspan382"
     y="0"
     x="0">N</tspan></text>
</g></g></g><g
         id="g386"><g
           clip-path="url(#clipPath392)"
           id="g388"><g
             transform="scale(10)"
             id="g394"><text
   id="text398"
   style="font-variant:normal;font-weight:800;font-size:12.7099px;font-family:Montserrat;-inkscape-font-specification:Montserrat-ExtraBold;writing-mode:lr-tb;fill:#9d76c2;fill-opacity:1;fill-rule:nonzero;stroke:none"
   transform="matrix(1,0,0,-1,257.295,108.471)"><tspan
     id="tspan396"
     y="0"
     x="0">N</tspan></text>
</g></g></g><g
         id="g400"><g
           clip-path="url(#clipPath406)"
           id="g402"><g
             transform="scale(10)"
             id="g408"><text
   id="text412"
   style="font-variant:normal;font-weight:800;font-size:12.7099px;font-family:Montserrat;-inkscape-font-specification:Montserrat-ExtraBold;writing-mode:lr-tb;fill:#9b76c2;fill-opacity:1;fill-rule:nonzero;stroke:none"
   transform="matrix(1,0,0,-1,257.295,108.471)"><tspan
     id="tspan410"
     y="0"
     x="0">N</tspan></text>
</g></g></g><g
         id="g414"><g
           clip-path="url(#clipPath420)"
           id="g416"><g
             transform="scale(10)"
             id="g422"><text
   id="text426"
   style="font-variant:normal;font-weight:800;font-size:12.7099px;font-family:Montserrat;-inkscape-font-specification:Montserrat-ExtraBold;writing-mode:lr-tb;fill:#9d76c2;fill-opacity:1;fill-rule:nonzero;stroke:none"
   transform="matrix(1,0,0,-1,270.081,108.471)"><tspan
     id="tspan424"
     y="0"
     x="0">E</tspan></text>
</g></g></g><g
         id="g428"><g
           clip-path="url(#clipPath434)"
           id="g430"><g
             transform="scale(10)"
             id="g436"><text
   id="text440"
   style="font-variant:normal;font-weight:800;font-size:12.7099px;font-family:Montserrat;-inkscape-font-specification:Montserrat-ExtraBold;writing-mode:lr-tb;fill:#9b76c2;fill-opacity:1;fill-rule:nonzero;stroke:none"
   transform="matrix(1,0,0,-1,270.081,108.471)"><tspan
     id="tspan438"
     y="0"
     x="0">E</tspan></text>
</g></g></g><g
         id="g442"><g
           clip-path="url(#clipPath448)"
           id="g444"><g
             transform="scale(10)"
             id="g450"><text
   id="text454"
   style="font-variant:normal;font-weight:800;font-size:12.7099px;font-family:Montserrat;-inkscape-font-specification:Montserrat-ExtraBold;writing-mode:lr-tb;fill:#9d76c2;fill-opacity:1;fill-rule:nonzero;stroke:none"
   transform="matrix(1,0,0,-1,281.151,108.471)"><tspan
     id="tspan452"
     y="0"
     x="0">C</tspan></text>
</g></g></g><g
         id="g456"><g
           clip-path="url(#clipPath462)"
           id="g458"><g
             transform="scale(10)"
             id="g464"><text
   id="text468"
   style="font-variant:normal;font-weight:800;font-size:12.7099px;font-family:Montserrat;-inkscape-font-specification:Montserrat-ExtraBold;writing-mode:lr-tb;fill:#9b76c2;fill-opacity:1;fill-rule:nonzero;stroke:none"
   transform="matrix(1,0,0,-1,281.151,108.471)"><tspan
     id="tspan466"
     y="0"
     x="0">C</tspan></text>
</g></g></g><g
         id="g470"><g
           clip-path="url(#clipPath476)"
           id="g472"><g
             transform="scale(10)"
             id="g478"><text
   id="text482"
   style="font-variant:normal;font-weight:800;font-size:12.7099px;font-family:Montserrat;-inkscape-font-specification:Montserrat-ExtraBold;writing-mode:lr-tb;fill:#9d76c2;fill-opacity:1;fill-rule:nonzero;stroke:none"
   transform="matrix(1,0,0,-1,292.997,108.471)"><tspan
     id="tspan480"
     y="0"
     x="0">T</tspan></text>
</g></g></g><g
         id="g484"><g
           clip-path="url(#clipPath490)"
           id="g486"><g
             transform="scale(10)"
             id="g492"><text
   id="text496"
   style="font-variant:normal;font-weight:800;font-size:12.7099px;font-family:Montserrat;-inkscape-font-specification:Montserrat-ExtraBold;writing-mode:lr-tb;fill:#9b76c2;fill-opacity:1;fill-rule:nonzero;stroke:none"
   transform="matrix(1,0,0,-1,292.997,108.471)"><tspan
     id="tspan494"
     y="0"
     x="0">T</tspan></text>
</g></g></g><g
         id="g498"><g
           clip-path="url(#clipPath504)"
           id="g500"><g
             transform="scale(10)"
             id="g506"><text
   id="text510"
   style="font-variant:normal;font-weight:800;font-size:12.7099px;font-family:Montserrat;-inkscape-font-specification:Montserrat-ExtraBold;writing-mode:lr-tb;fill:#9d76c2;fill-opacity:1;fill-rule:nonzero;stroke:none"
   transform="matrix(1,0,0,-1,303.609,108.471)"><tspan
     id="tspan508"
     y="0"
     x="0">E</tspan></text>
</g></g></g><g
         id="g512"><g
           clip-path="url(#clipPath518)"
           id="g514"><g
             transform="scale(10)"
             id="g520"><text
   id="text524"
   style="font-variant:normal;font-weight:800;font-size:12.7099px;font-family:Montserrat;-inkscape-font-specification:Montserrat-ExtraBold;writing-mode:lr-tb;fill:#9b76c2;fill-opacity:1;fill-rule:nonzero;stroke:none"
   transform="matrix(1,0,0,-1,303.609,108.471)"><tspan
     id="tspan522"
     y="0"
     x="0">E</tspan></text>
</g></g></g><g
         id="g526"><g
           clip-path="url(#clipPath532)"
           id="g528"><g
             transform="scale(10)"
             id="g534"><text
   id="text538"
   style="font-variant:normal;font-weight:800;font-size:12.7099px;font-family:Montserrat;-inkscape-font-specification:Montserrat-ExtraBold;writing-mode:lr-tb;fill:#9d76c2;fill-opacity:1;fill-rule:nonzero;stroke:none"
   transform="matrix(1,0,0,-1,314.692,108.471)"><tspan
     id="tspan536"
     y="0"
     x="0">D</tspan></text>
</g></g></g><g
         id="g540"><g
           clip-path="url(#clipPath546)"
           id="g542"><g
             transform="scale(10)"
             id="g548"><text
   id="text552"
   style="font-variant:normal;font-weight:800;font-size:12.7099px;font-family:Montserrat;-inkscape-font-specification:Montserrat-ExtraBold;writing-mode:lr-tb;fill:#9b76c2;fill-opacity:1;fill-rule:nonzero;stroke:none"
   transform="matrix(1,0,0,-1,314.692,108.471)"><tspan
     id="tspan550"
     y="0"
     x="0">D</tspan></text>
</g></g></g><g
         transform="scale(10)"
         id="g554"><text
   id="text558"
   fill="#603199"
   stroke="none"
   style="font-variant:normal;font-weight:900;font-size:13.6081px;font-family:Montserrat;-inkscape-font-specification:Montserrat-Black;writing-mode:lr-tb;fill-opacity:1;fill-rule:nonzero"
   transform="matrix(1,0,0,-1,283.165,404.834)"><tspan
     id="tspan556"
     y="0"
     x="0">TYPESCRIPT</tspan></text>
</g><path
         id="path560"
         style="fill:#603199;fill-opacity:1;fill-rule:nonzero;stroke:none"
         d="m 4373.86,2988.46 h -15 c -0.04,-18.97 -15.38,-34.32 -34.36,-34.35 -9.53,0 -18.03,3.82 -24.29,10.06 -6.24,6.26 -10.06,14.76 -10.06,24.29 0,9.54 3.82,18.03 10.06,24.3 6.27,6.24 14.76,10.05 24.29,10.06 9.54,-0.01 18.03,-3.82 24.3,-10.06 6.24,-6.27 10.05,-14.76 10.06,-24.3 h 15 15 c -0.01,35.55 -28.8,64.35 -64.36,64.36 -35.55,-0.01 -64.34,-28.81 -64.35,-64.36 0.01,-35.55 28.81,-64.34 64.35,-64.35 35.56,0 64.35,28.8 64.36,64.35 h -15" /><path
         id="path562"
         style="fill:#603199;fill-opacity:1;fill-rule:nonzero;stroke:none"
         d="m 4574.77,3386.93 h -10 c -0.03,-14.4 -11.67,-26.04 -26.07,-26.07 -14.4,0.03 -26.04,11.67 -26.06,26.07 0.02,14.4 11.67,26.04 26.06,26.07 14.4,-0.03 26.04,-11.67 26.07,-26.07 h 10 10 c -0.01,25.44 -20.62,46.06 -46.07,46.07 -25.45,-0.01 -46.06,-20.63 -46.06,-46.07 0,-25.45 20.61,-46.06 46.06,-46.07 25.45,0.01 46.06,20.62 46.07,46.07 h -10" /><path
         id="path564"
         style="fill:#603199;fill-opacity:1;fill-rule:nonzero;stroke:none"
         d="m 983.34,3806.58 h -10 c -0.027,-14.4 -11.668,-26.04 -26.067,-26.06 -14.394,0.02 -26.035,11.66 -26.062,26.06 0.027,14.4 11.668,26.05 26.062,26.07 14.399,-0.02 26.04,-11.67 26.067,-26.07 h 10 10 c -0.004,25.45 -20.617,46.07 -46.067,46.07 -25.445,0 -46.058,-20.62 -46.062,-46.07 0.004,-25.44 20.617,-46.06 46.062,-46.06 25.45,0 46.063,20.62 46.067,46.06 h -10" /></g></g><style
     id="style132">

   #path48, #path52, #path50 {
    animation:translate-animation 2s linear infinite alternate
   }

    #path564, #path56, #path560  {
      animation: rotate-animation 1s linear infinite alternate;
      animation-delay: 1s
    }

    #path54, #path562 {
      animation: rotate-animation 1s linear infinite alternate;
    }

      @keyframes translate-animation {

      to {
        transform: scale(.9);
      }
    }

    @keyframes rotate-animation {
      to {
        transform: rotate(1deg);
        }
    }

   </style></svg>
