<?xml version="1.0" ?>
<svg viewBox="0 0 22.105 22.104" xmlns="http://www.w3.org/2000/svg">
<defs>
<style>
.cls-1{fill:#1a171b;}</style>
</defs><g data-name="Layer 2" id="Layer_2">
<g data-name="Layer 1" id="Layer_1-2">
<path class="cls-1" id="path" d="M17.276,20.319a.335.335,0,0,1,0,.67A.335.335,0,0,1,17.276,20.319Zm1.843.67a.335.335,0,0,0,0-.67A.335.335,0,0,0,19.119,20.989ZM18.2,12.726a.336.336,0,0,0,0,.671A.336.336,0,0,0,18.2,12.726Zm3.907.112v8.039A1.229,1.229,0,0,1,20.877,22.1H15.518a1.228,1.228,0,0,1-1.227-1.227V12.838a1.229,1.229,0,0,1,1.227-1.228h5.359A1.23,1.23,0,0,1,22.105,12.838Zm-.669,7.033H14.96c.048.5-.233,1.543.558,1.564h5.359a.56.56,0,0,0,.559-.558Zm0-7.033a.559.559,0,0,0-.559-.558H15.518a.558.558,0,0,0-.558.558V19.2h6.476ZM13.284,22.1H8.373a1.23,1.23,0,0,1-1.228-1.228V5.693A1.23,1.23,0,0,1,8.373,4.465h12.5a1.23,1.23,0,0,1,1.228,1.228v4.912a.335.335,0,0,1-.67,0V7.367H7.815V19.2h5.469a.335.335,0,1,1,0,.669H7.815c.047.5-.233,1.543.558,1.563h4.911A.335.335,0,0,1,13.284,22.1ZM7.815,6.7h13.62c-.047-.5.232-1.542-.558-1.562H8.373a.558.558,0,0,0-.558.558Zm6.81-1.116a.335.335,0,0,0,0,.67A.335.335,0,0,0,14.625,5.581ZM10.718,20.653a.335.335,0,0,0,.669,0A.335.335,0,0,0,10.718,20.653Zm-4.578-4.8a.335.335,0,0,0,0-.67H.67V1.228A.558.558,0,0,1,1.228.67H20.876a.559.559,0,0,1,.559.558V3.46a.335.335,0,0,0,.669,0V1.228A1.23,1.23,0,0,0,20.876,0H1.228A1.23,1.23,0,0,0,0,1.228V17.75a1.23,1.23,0,0,0,1.228,1.228H4.019v2.457H.335a.335.335,0,1,0,0,.669H6.14a.335.335,0,1,0,0-.669H4.688V18.978H6.139a.335.335,0,0,0,0-.669H1.228A.559.559,0,0,1,.67,17.75v-1.9Z" data-name="responsive design"/>
</g>
</g>
</svg>