<?xml version="1.0" encoding="UTF-8" standalone="no"?>
<svg
   xmlns:dc="http://purl.org/dc/elements/1.1/"
   xmlns:cc="http://creativecommons.org/ns#"
   xmlns:rdf="http://www.w3.org/1999/02/22-rdf-syntax-ns#"
   xmlns:svg="http://www.w3.org/2000/svg"
   xmlns="http://www.w3.org/2000/svg"
   viewBox="0 0 473.33334 521.28003"
   height="521.28003"
   width="473.33334"
   xml:space="preserve"
   id="svg2"
   version="1.1"><metadata
     id="metadata8"><rdf:RDF><cc:Work
         rdf:about=""><dc:format>image/svg+xml</dc:format><dc:type
           rdf:resource="http://purl.org/dc/dcmitype/StillImage" /></cc:Work></rdf:RDF></metadata><defs
     id="defs6"><clipPath
       id="clipPath78"
       clipPathUnits="userSpaceOnUse"><path
         id="path76"
         d="m 1366.7,2450.68 c 42.07,-294.62 76.69,-489.28 288.11,-483.04 211.43,6.26 480.53,249.43 477.5,505.7 -2.98,256.25 -176.8,458.95 -388.22,452.67 -211.42,-6.26 -380.38,-219.07 -377.39,-475.33" /></clipPath></defs><g
     transform="matrix(1.3333333,0,0,-1.3333333,0,521.28)"
     id="g10"><g
       transform="scale(0.1)"
       id="g12"><path
         id="path14"
         style="fill:#f3dcf0;fill-opacity:1;fill-rule:evenodd;stroke:none"
         d="m 1785.84,3909.59 c 925,0 1674.87,-749.87 1674.87,-1674.87 0,-925.01 -749.87,-1674.88 -1674.87,-1674.88 -925.004,0.012 -1674.867,749.88 -1674.867,1674.89 0,925 749.863,1674.86 1674.867,1674.86" /><path
         id="path16"
         style="fill:#d894d0;fill-opacity:1;fill-rule:evenodd;stroke:none"
         d="m 1116.91,941.77 c 0,0 -107.97,-13.489 -206.246,3.449 -30.156,5.211 -13.945,-22.047 -10.293,-24.387 19.063,-12.293 87.328,-29.043 83.43,-33.133 -8.176,-8.578 -137.496,-21.09 -182.996,-20.168 -4.578,0.09 -53.973,2.828 -53.856,-4.062 0.215,-16.047 26.293,-20.008 38.414,-21.68 41.106,-5.648 167.367,-3.758 161.09,-4.68 -11.297,-1.629 -107.183,-19.738 -144.164,-25.05 -2.402,-0.348 -54.687,-7.809 -53.629,-14.508 2.176,-13.59 42.992,-12.602 52.41,-11.77 37.059,3.199 137.934,10.617 150.743,11.418 5.328,0.352 -35.032,-12.129 -46.321,-15.469 -34.949,-10.289 -72.137,-15.058 -106.594,-26.468 -6.753,-2.242 -30.574,-7.864 -27.535,-19.43 1.981,-7.543 21.543,-7.934 26.86,-7.891 33.136,0.278 250.827,46.071 305.907,78.071 21.2,12.297 63.58,13.758 63.58,13.758 0,0 6.64,101.289 -50.8,122" /><path
         id="path18"
         style="fill:#4c42a2;fill-opacity:1;fill-rule:evenodd;stroke:none"
         d="m 1020.17,2469.84 c 0,100.42 -81.537,181.96 -181.955,181.96 H 381.324 c -100.426,0 -181.957,-81.54 -181.957,-181.96 v -192.09 c 0,-100.44 81.531,-181.96 181.957,-181.96 h 153.25 l 108.418,-160.31 c 0,0 27.598,-41.12 55.153,-36.87 31.835,4.94 26.804,58.85 26.804,58.85 l 6.961,138.33 h 106.305 c 100.418,0 181.955,81.52 181.955,181.96 v 192.09" /><path
         id="path20"
         style="fill:#ffffff;fill-opacity:1;fill-rule:evenodd;stroke:none"
         d="m 345.836,2465.16 1.051,-0.13 1.035,-0.19 1.019,-0.27 1.012,-0.34 0.965,-0.4 0.941,-0.48 0.914,-0.52 0.883,-0.6 0.828,-0.65 0.786,-0.71 0.726,-0.76 0.688,-0.81 0.625,-0.86 0.558,-0.89 0.508,-0.92 0.438,-0.97 0.367,-0.99 0.297,-1.01 0.242,-1.03 0.16,-1.04 0.082,-1.05 1.172,-22.82 1.172,-22.86 0.566,-11.45 0.563,-11.44 0.546,-11.45 0.536,-11.45 0.519,-11.46 0.5,-11.47 0.477,-11.46 0.437,-11.46 0.43,-11.47 0.387,-11.46 0.187,-5.73 0.168,-5.73 0.172,-5.74 0.152,-5.72 v -1.05 l -0.09,-1.05 -0.144,-1.04 -0.215,-1.04 -0.305,-1.01 -0.355,-0.99 -0.43,-0.96 -0.492,-0.94 -0.559,-0.91 -0.613,-0.86 -0.664,-0.81 -0.734,-0.76 -0.77,-0.72 -0.832,-0.66 -0.867,-0.6 -0.902,-0.55 -0.946,-0.47 -0.964,-0.42 -1,-0.34 -1.024,-0.29 -1.027,-0.21 -1.059,-0.13 -1.047,-0.07 h -1.054 l -1.055,0.09 -1.051,0.15 -1.031,0.21 -1.012,0.31 -1,0.36 -0.965,0.43 -0.933,0.49 -0.895,0.54 -0.859,0.63 -0.813,0.66 -0.761,0.73 -0.723,0.78 -0.664,0.83 -0.602,0.86 -0.539,0.91 -0.48,0.94 -0.41,0.97 -0.36,1 -0.277,1.02 -0.203,1.03 -0.141,1.06 -0.066,1.04 -0.145,5.7 -0.164,5.68 -0.183,5.68 -0.172,5.68 -0.395,11.39 -0.41,11.39 -0.449,11.38 -0.477,11.4 -0.492,11.41 -0.516,11.41 -0.527,11.41 -0.547,11.41 -0.57,11.42 -0.567,11.41 -1.164,22.84 -1.171,22.81 -0.008,1.06 0.05,1.05 0.118,1.06 0.207,1.03 0.269,1.02 0.332,1 0.41,0.98 0.461,0.94 0.539,0.91 0.59,0.87 0.657,0.84 0.707,0.79 0.761,0.73 0.805,0.67 0.852,0.64 0.89,0.56 0.934,0.5 0.957,0.44 0.984,0.37 1.012,0.3 1.031,0.24 1.055,0.16 1.054,0.08 1.051,0.03 1.055,-0.06" /><path
         id="path22"
         style="fill:#ffffff;fill-opacity:1;fill-rule:evenodd;stroke:none"
         d="m 460.883,2474.52 1.074,-0.13 1.066,-0.2 1.04,-0.27 1.019,-0.36 1.004,-0.42 0.965,-0.48 0.922,-0.55 0.894,-0.62 0.836,-0.68 0.793,-0.73 0.746,-0.78 0.676,-0.84 0.621,-0.88 0.563,-0.93 0.492,-0.95 0.429,-1 0.356,-1.02 0.281,-1.03 0.211,-1.07 0.141,-1.07 0.051,-1.08 -0.008,-1.08 -0.137,-2.92 -0.133,-2.88 -0.097,-2.89 -0.094,-2.89 -0.078,-2.89 -0.051,-2.9 -0.055,-2.9 -0.019,-2.9 -0.024,-2.92 -0.012,-2.91 0.012,-2.91 0.024,-2.92 0.027,-2.92 0.035,-2.92 0.055,-2.94 0.062,-2.93 0.063,-2.93 0.078,-2.94 0.184,-5.91 0.203,-5.89 0.234,-5.92 0.25,-5.93 0.27,-5.95 0.554,-11.92 0.563,-11.97 0.269,-5.99 0.258,-6.02 0.242,-6.03 0.227,-6.02 0.195,-6.04 0.086,-3.03 0.074,-3.03 0.075,-3.03 0.054,-3.03 0.051,-3.04 0.047,-3.03 0.023,-3.04 0.02,-3.04 v -3.05 l -0.012,-3.04 -0.023,-3.05 -0.028,-3.06 -0.054,-3.04 -0.063,-3.05 -0.082,-3.07 -0.105,-3.05 -0.106,-3.06 -0.137,-3.02 -0.089,-1.08 -0.153,-1.07 -0.234,-1.05 -0.313,-1.03 -0.375,-1.02 -0.449,-0.98 -0.515,-0.95 -0.582,-0.91 -0.637,-0.87 -0.707,-0.82 -0.75,-0.77 -0.809,-0.71 -0.859,-0.67 -0.903,-0.58 -0.933,-0.54 -0.977,-0.47 -1.007,-0.39 -1.024,-0.32 -1.055,-0.25 -1.062,-0.18 -1.074,-0.11 -1.086,-0.03 -1.074,0.05 -1.075,0.13 -1.062,0.19 -1.039,0.27 -1.032,0.34 -0.992,0.41 -0.965,0.49 -0.933,0.55 -0.895,0.61 -0.847,0.67 -0.793,0.74 -0.742,0.78 -0.688,0.83 -0.625,0.88 -0.566,0.92 -0.5,0.95 -0.43,1 -0.359,1.01 -0.293,1.05 -0.215,1.05 -0.137,1.08 -0.07,1.07 0.015,1.09 0.129,2.92 0.106,2.89 0.097,2.88 0.075,2.9 0.062,2.89 0.043,2.9 0.047,2.91 0.019,2.9 v 2.91 2.92 l -0.019,2.91 -0.02,2.92 -0.046,2.94 -0.043,2.92 -0.063,2.93 -0.062,2.95 -0.079,2.93 -0.086,2.95 -0.195,5.89 -0.215,5.91 -0.234,5.93 -0.258,5.93 -0.269,5.96 -0.563,11.93 -0.555,11.97 -0.269,6 -0.258,6.02 -0.234,6.02 -0.203,6.04 -0.196,6.04 -0.074,3.03 -0.074,3.03 -0.055,3.04 -0.051,3.03 -0.047,3.04 -0.031,3.03 -0.019,3.04 -0.012,3.05 0.012,3.04 0.019,3.05 0.031,3.06 0.047,3.04 0.063,3.06 0.07,3.05 0.102,3.06 0.117,3.06 0.129,3.06 0.137,3.01 0.097,1.09 0.164,1.06 0.235,1.05 0.312,1.03 0.383,1.01 0.457,0.98 0.512,0.96 0.59,0.9 0.644,0.87 0.699,0.81 0.766,0.77 0.816,0.71 0.86,0.65 0.902,0.59 0.941,0.53 0.985,0.47 0.996,0.39 1.027,0.31 1.055,0.25 1.066,0.17 1.075,0.11 1.082,0.02 1.074,-0.05" /><path
         id="path24"
         style="fill:#ffffff;fill-opacity:1;fill-rule:evenodd;stroke:none"
         d="m 458.262,2376.7 0.816,-0.06 0.82,-0.1 0.817,-0.15 0.793,-0.18 0.797,-0.24 0.773,-0.27 0.762,-0.31 0.738,-0.36 0.735,-0.4 0.699,-0.43 0.672,-0.45 0.656,-0.51 0.625,-0.54 0.601,-0.57 0.559,-0.6 0.539,-0.63 0.492,-0.66 0.465,-0.67 0.414,-0.71 0.391,-0.73 0.344,-0.75 0.308,-0.76 0.27,-0.78 0.226,-0.8 0.168,-0.8 0.145,-0.81 0.097,-0.82 0.051,-0.82 0.012,-0.83 -0.043,-0.82 -0.074,-0.81 -0.133,-0.82 -0.16,-0.8 -0.215,-0.8 -0.242,-0.79 -0.305,-0.77 -0.332,-0.75 -0.367,-0.73 -0.418,-0.72 -0.449,-0.69 -0.485,-0.66 -0.515,-0.65 -0.559,-0.6 -0.582,-0.58 -0.613,-0.55 -0.645,-0.51 -0.676,-0.49 -0.687,-0.44 -0.719,-0.41 -0.742,-0.36 -0.75,-0.32 -0.777,-0.29 -0.782,-0.25 -0.797,-0.21 -0.812,-0.16 -0.809,-0.11 -0.828,-0.07 -3.468,-0.21 -3.516,-0.21 -3.512,-0.19 -3.523,-0.17 -7.035,-0.34 -7.036,-0.31 -7.027,-0.31 -7.008,-0.33 -3.492,-0.18 -3.48,-0.19 -3.457,-0.2 -3.461,-0.22 -3.45,-0.23 -3.425,-0.25 -3.418,-0.28 -3.395,-0.3 -3.383,-0.32 -3.375,-0.34 -1.664,-0.2 -1.664,-0.18 -1.656,-0.2 -1.652,-0.22 -1.653,-0.21 -1.648,-0.23 -1.629,-0.24 -1.637,-0.23 -1.621,-0.26 -1.621,-0.26 -1.609,-0.27 -1.606,-0.29 -1.597,-0.29 -1.594,-0.3 -1.578,-0.31 -1.567,-0.32 -1.57,-0.33 -1.559,-0.35 -1.558,-0.35 -1.598,-0.38 -0.805,-0.17 -0.82,-0.13 -0.816,-0.07 -0.825,-0.05 -0.82,0.01 -0.824,0.05 -0.816,0.09 -0.817,0.13 -0.793,0.18 -0.797,0.23 -0.789,0.25 -0.758,0.32 -0.754,0.34 -0.726,0.38 -0.699,0.43 -0.688,0.46 -0.66,0.49 -0.629,0.53 -0.605,0.56 -0.567,0.6 -0.539,0.63 -0.508,0.64 -0.468,0.67 -0.43,0.7 -0.398,0.73 -0.352,0.75 -0.313,0.76 -0.281,0.77 -0.238,0.79 -0.18,0.8 -0.152,0.81 -0.106,0.82 -0.062,0.82 -0.012,0.83 0.02,0.81 0.074,0.83 0.121,0.82 0.148,0.8 0.204,0.8 0.25,0.78 0.277,0.78 0.324,0.76 0.363,0.74 0.407,0.71 0.445,0.7 0.469,0.68 0.515,0.64 0.547,0.61 0.582,0.59 0.602,0.55 0.644,0.53 0.661,0.48 0.695,0.45 0.711,0.42 0.726,0.38 0.75,0.33 0.778,0.29 0.781,0.26 0.797,0.21 1.726,0.41 1.797,0.41 1.793,0.39 1.797,0.4 1.801,0.36 1.808,0.35 1.805,0.34 1.805,0.34 1.816,0.31 1.805,0.3 1.816,0.3 1.813,0.28 1.805,0.27 1.816,0.26 1.816,0.24 1.817,0.25 1.812,0.23 1.828,0.22 1.817,0.21 1.824,0.2 3.621,0.38 3.637,0.34 3.625,0.32 3.625,0.3 3.617,0.26 3.621,0.25 3.609,0.22 3.598,0.21 3.59,0.2 3.59,0.18 7.109,0.34 7.071,0.31 7.007,0.31 6.938,0.32 3.418,0.18 3.402,0.19 3.387,0.2 3.39,0.2 0.833,0.03 0.824,-0.01" /><path
         id="path26"
         style="fill:#ffffff;fill-opacity:1;fill-rule:evenodd;stroke:none"
         d="m 612.738,2481.6 0.852,-0.09 0.848,-0.14 0.828,-0.18 0.828,-0.23 0.804,-0.27 0.797,-0.31 0.774,-0.36 0.75,-0.4 0.719,-0.44 0.71,-0.48 0.676,-0.52 0.645,-0.56 0.613,-0.59 0.582,-0.62 0.547,-0.66 0.512,-0.69 0.476,-0.7 0.43,-0.74 0.383,-0.76 0.347,-0.77 0.313,-0.8 0.254,-0.81 0.215,-0.83 0.16,-0.84 0.133,-0.84 0.074,-0.85 0.035,-0.85 -0.027,-0.85 -0.063,-0.85 -0.117,-0.85 -0.152,-0.84 -0.204,-0.82 -0.253,-0.82 -0.293,-0.8 -0.332,-0.78 -0.387,-0.76 -0.418,-0.75 -0.465,-0.71 -0.492,-0.69 -0.547,-0.66 -0.574,-0.63 -0.602,-0.6 -0.64,-0.56 -0.664,-0.54 -0.7,-0.48 -0.734,-0.45 -0.742,-0.41 -0.77,-0.38 -0.789,-0.32 -0.805,-0.28 -0.812,-0.24 -0.828,-0.19 -0.848,-0.15 -1.933,-0.28 -2.012,-0.27 -1.996,-0.26 -2,-0.22 -1.996,-0.22 -1.993,-0.2 -1.996,-0.18 -1.976,-0.16 -1.988,-0.15 -1.965,-0.15 -1.977,-0.12 -1.969,-0.11 -1.961,-0.11 -1.957,-0.08 -1.953,-0.08 -1.961,-0.08 -3.867,-0.11 -3.855,-0.1 -3.832,-0.07 -3.825,-0.06 -7.562,-0.09 -3.75,-0.03 -3.731,-0.06 -3.699,-0.07 -3.672,-0.08 -3.66,-0.11 -1.808,-0.06 -1.805,-0.07 -1.801,-0.07 -1.797,-0.1 -1.785,-0.1 -1.769,-0.11 -1.774,-0.11 -1.773,-0.13 -1.754,-0.14 -1.746,-0.15 -1.742,-0.17 -1.739,-0.17 -1.718,-0.2 -1.719,-0.21 -1.723,-0.23 -1.695,-0.23 -1.699,-0.26 -1.688,-0.27 -1.687,-0.29 -1.676,-0.31 -1.656,-0.32 -1.665,-0.35 -1.64,-0.36 -1.645,-0.39 -1.644,-0.4 -1.731,-0.45 -0.824,-0.19 -0.84,-0.15 -0.851,-0.1 -0.844,-0.05 -0.848,-0.01 -0.859,0.04 -0.852,0.08 -0.839,0.14 -0.836,0.17 -0.821,0.23 -0.804,0.28 -0.789,0.32 -0.778,0.35 -0.754,0.4 -0.726,0.45 -0.711,0.47 -0.676,0.53 -0.645,0.54 -0.613,0.59 -0.578,0.63 -0.551,0.65 -0.511,0.69 -0.477,0.71 -0.43,0.73 -0.383,0.76 -0.359,0.78 -0.301,0.79 -0.254,0.82 -0.214,0.81 -0.176,0.84 -0.129,0.85 -0.07,0.85 -0.036,0.85 0.02,0.85 0.066,0.86 0.11,0.84 0.16,0.83 0.199,0.83 0.25,0.82 0.289,0.8 0.348,0.79 0.375,0.76 0.418,0.74 0.461,0.72 0.492,0.69 0.543,0.65 0.574,0.64 0.606,0.6 0.644,0.57 0.664,0.52 0.699,0.5 0.719,0.45 0.75,0.41 0.77,0.36 0.781,0.34 0.805,0.28 0.812,0.23 1.938,0.51 2.019,0.5 2.031,0.47 2.024,0.44 2.015,0.42 2.02,0.4 2.023,0.37 2.008,0.35 2.004,0.32 2.012,0.3 2,0.29 2.012,0.26 1.996,0.24 1.988,0.22 1.984,0.21 1.989,0.19 1.988,0.17 1.976,0.17 1.977,0.13 1.965,0.14 1.969,0.12 1.964,0.11 1.954,0.09 1.953,0.08 1.949,0.09 1.953,0.06 3.859,0.11 3.844,0.09 3.836,0.07 3.813,0.04 3.785,0.06 7.519,0.08 3.715,0.06 3.695,0.06 3.68,0.1 3.66,0.11 1.793,0.06 1.805,0.07 1.809,0.09 1.793,0.1 1.781,0.09 1.773,0.12 1.77,0.12 1.773,0.14 1.754,0.14 1.754,0.16 1.738,0.17 1.739,0.2 1.73,0.2 1.719,0.22 1.719,0.22 1.785,0.26 0.847,0.11 0.852,0.05 h 0.844 l 0.847,-0.04" /><path
         id="path28"
         style="fill:#ffffff;fill-opacity:1;fill-rule:evenodd;stroke:none"
         d="m 552.168,2470.69 1.055,-0.11 1.039,-0.19 1.023,-0.27 1,-0.32 0.977,-0.4 0.957,-0.46 0.914,-0.54 0.883,-0.58 0.824,-0.65 0.797,-0.7 0.742,-0.75 0.672,-0.81 0.637,-0.85 0.57,-0.89 0.504,-0.92 0.449,-0.96 0.379,-0.99 0.308,-1.01 0.239,-1.03 0.164,-1.04 0.105,-1.05 0.332,-5.78 0.313,-5.81 0.289,-5.81 0.277,-5.81 0.25,-5.8 0.235,-5.79 0.226,-5.8 0.203,-5.79 0.184,-5.8 0.183,-5.78 0.161,-5.78 0.16,-5.79 0.293,-11.55 0.254,-11.54 0.25,-11.53 0.234,-11.52 0.246,-11.49 0.262,-11.48 0.289,-11.49 0.148,-5.73 0.164,-5.72 0.168,-5.73 0.188,-5.72 0.199,-5.72 0.203,-5.74 0.012,-1.05 -0.074,-1.05 -0.141,-1.05 -0.199,-1.04 -0.293,-1.01 -0.344,-1 -0.418,-0.98 -0.484,-0.93 -0.547,-0.9 -0.613,-0.87 -0.657,-0.81 -0.718,-0.78 -0.774,-0.73 -0.816,-0.67 -0.86,-0.61 -0.906,-0.55 -0.93,-0.49 -0.968,-0.42 -1,-0.35 -1.012,-0.3 -1.039,-0.22 -1.039,-0.14 -1.055,-0.08 h -1.054 l -1.051,0.06 -1.055,0.15 -1.031,0.21 -1.02,0.28 -1,0.36 -0.968,0.42 -0.942,0.47 -0.902,0.55 -0.86,0.61 -0.832,0.66 -0.769,0.72 -0.723,0.77 -0.664,0.81 -0.609,0.86 -0.563,0.91 -0.484,0.93 -0.43,0.97 -0.351,1 -0.293,1.01 -0.215,1.04 -0.153,1.04 -0.07,1.06 -0.215,5.77 -0.195,5.8 -0.191,5.79 -0.172,5.77 -0.16,5.79 -0.161,5.78 -0.285,11.55 -0.254,11.54 -0.25,11.53 -0.234,11.51 -0.246,11.5 -0.262,11.49 -0.285,11.47 -0.164,5.73 -0.16,5.72 -0.172,5.73 -0.195,5.73 -0.204,5.71 -0.214,5.71 -0.227,5.71 -0.258,5.7 -0.258,5.71 -0.289,5.69 -0.312,5.7 -0.332,5.73 -0.024,1.05 0.043,1.05 0.118,1.05 0.195,1.04 0.258,1.02 0.332,1.01 0.402,0.97 0.457,0.96 0.527,0.91 0.594,0.88 0.645,0.83 0.707,0.79 0.75,0.74 0.808,0.68 0.848,0.64 0.895,0.56 0.921,0.51 0.957,0.45 0.989,0.38 1.008,0.31 1.031,0.23 1.047,0.18 1.047,0.09 1.054,0.03 1.051,-0.06" /><path
         id="path30"
         style="fill:#ffffff;fill-opacity:1;fill-rule:evenodd;stroke:none"
         d="m 765.363,2496.83 1.082,-0.09 0.063,-0.01 1.152,-0.17 1.129,-0.26 1.106,-0.34 0.062,-0.02 0.84,-0.32 0.816,-0.37 0.793,-0.42 0.067,-0.04 0.847,-0.52 0.825,-0.56 0.07,-0.06 0.582,-0.45 0.555,-0.47 0.062,-0.08 0.594,-0.55 0.558,-0.6 0.149,-0.17 0.473,-0.54 0.441,-0.56 0.453,-0.62 0.617,-0.96 0.477,-0.82 0.41,-0.74 0.352,-0.7 0.355,-0.72 0.559,-1.23 0.535,-1.27 0.508,-1.22 0.46,-1.19 0.442,-1.16 0.73,-2 0.536,-1.53 0.324,-0.92 0.48,-1.58 0.43,-1.48 0.41,-1.48 0.379,-1.5 0.363,-1.48 0.332,-1.49 0.324,-1.5 0.301,-1.48 0.282,-1.48 0.257,-1.48 0.235,-1.49 0.222,-1.48 0.207,-1.48 0.196,-1.47 0.179,-1.48 0.161,-1.46 0.14,-1.47 0.141,-1.45 0.117,-1.46 0.105,-1.44 0.098,-1.45 0.09,-1.43 0.07,-1.44 0.078,-1.44 0.094,-2.8 0.078,-2.79 0.043,-2.77 0.02,-2.69 0.019,-5.43 v -5.4 l -0.019,-10.78 -0.031,-10.77 -0.04,-10.76 -0.035,-10.73 -0.011,-10.73 v -5.34 l 0.019,-5.35 0.035,-5.34 0.032,-5.34 0.066,-5.33 0.074,-5.33 0.086,-5.32 0.117,-5.31 0.137,-5.31 0.152,-5.29 0.188,-5.3 0.215,-5.3 0.23,-5.27 0.281,-5.3 0.141,-2.62 0.16,-2.64 0.164,-2.63 0.168,-2.63 0.188,-2.63 0.179,-2.62 0.207,-2.62 0.204,-2.64 0.214,-2.61 0.235,-2.63 0.234,-2.61 0.25,-2.66 0.063,-1.15 -0.02,-1.15 -0.105,-1.15 -0.196,-1.14 -0.281,-1.13 -0.355,-1.09 -0.442,-1.08 -0.523,-1.03 -0.594,-0.99 -0.672,-0.94 -0.734,-0.89 -0.805,-0.84 -0.859,-0.76 -0.922,-0.72 -0.969,-0.63 -1.008,-0.56 -1.054,-0.48 -1.086,-0.41 -1.11,-0.32 -1.125,-0.23 -1.148,-0.16 -1.164,-0.06 -1.145,0.02 -1.164,0.11 -1.137,0.19 -1.117,0.28 -1.105,0.35 -1.063,0.45 -1.031,0.51 -1.004,0.6 -0.93,0.67 -0.894,0.74 -0.84,0.81 -0.769,0.86 -0.7,0.91 -0.644,0.97 -0.559,1.02 -0.488,1.04 -0.395,1.1 -0.324,1.1 -0.23,1.12 -0.153,1.15 -0.257,2.71 -0.25,2.74 -0.235,2.74 -0.226,2.73 -0.223,2.74 -0.207,2.74 -0.195,2.73 -0.192,2.74 -0.172,2.72 -0.172,2.73 -0.16,2.74 -0.152,2.74 -0.277,5.45 -0.246,5.46 -0.231,5.45 -0.18,5.45 -0.16,5.44 -0.14,5.45 -0.118,5.43 -0.097,5.44 -0.074,5.42 -0.055,5.43 -0.043,5.43 -0.031,5.41 -0.024,5.42 v 5.4 l 0.012,10.79 0.031,10.78 0.043,10.77 0.031,10.73 0.024,10.71 v 5.35 l -0.024,5.32 -0.007,2.49 -0.012,0.46 -0.41,-1.06 -1.481,-3.97 -2.996,-8.01 -1.527,-4.05 -1.543,-4.05 -1.574,-4.06 -0.789,-2.06 -0.821,-2.04 -0.816,-2.04 -0.836,-2.04 -0.84,-2.05 -0.859,-2.04 -0.868,-2.05 -0.894,-2.04 -0.902,-2.05 -0.907,-2.01 -1.136,-2.51 -0.7,-1.52 -0.781,-1.66 -0.859,-1.75 -0.473,-0.95 -0.492,-0.95 -0.508,-0.96 -0.539,-0.99 -0.555,-0.99 -0.589,-0.99 -0.618,-1.01 -0.632,-1.02 -0.676,-1.03 -0.707,-1.03 -0.754,-1.04 -0.793,-1.03 -0.84,-1.03 -0.906,-1.04 -0.91,-0.97 -0.559,-0.57 -0.535,-0.52 -0.547,-0.5 -0.582,-0.52 -0.602,-0.5 -0.632,-0.49 -0.672,-0.5 -0.696,-0.48 -0.718,-0.47 -0.762,-0.47 -0.805,-0.44 -0.84,-0.43 -0.879,-0.4 -0.617,-0.25 -1.058,-0.39 -1.102,-0.31 -1.105,-0.23 -1.129,-0.15 -1.129,-0.06 -1.125,0.02 -1.141,0.09 -1.117,0.19 -1.094,0.27 -1.082,0.34 -1.054,0.42 -1.024,0.51 -0.976,0.56 -0.024,0.01 -0.922,0.64 -0.871,0.7 -0.824,0.76 -0.766,0.83 -0.484,0.56 -0.738,1.01 -0.743,1.12 -0.82,1.3 -0.976,1.56 -2.317,3.78 -2.644,4.35 -5.047,8.3 -1.774,2.9 -0.515,0.84 -0.215,0.33 -1.012,1.55 -1.105,1.75 -1.063,1.74 -1.047,1.73 -1.019,1.73 -0.985,1.72 -0.976,1.71 -0.949,1.69 -1.844,3.32 -1.809,3.26 -1.793,3.2 -0.871,1.54 -0.879,1.52 -0.886,1.51 -0.887,1.47 -0.887,1.43 -0.887,1.4 -0.894,1.38 -0.922,1.36 -0.437,0.64 -0.458,0.64 -0.457,0.65 -0.464,0.63 -0.457,0.61 -0.477,0.61 -0.473,0.61 -0.472,0.6 -0.477,0.58 -0.48,0.57 -0.485,0.57 -0.492,0.55 -0.289,0.33 0.094,-1.9 0.148,-2.27 0.317,-4.48 0.125,-2.17 0.07,-1.11 0.035,-1.03 0.18,-3.93 0.168,-3.91 0.183,-3.95 0.161,-4 0.078,-2.03 0.074,-2.04 0.051,-2.05 0.047,-2.06 0.042,-2.07 0.02,-2.08 v -2.11 l -0.012,-2.1 -0.043,-2.95 -0.062,-2.94 -0.078,-2.92 -0.094,-2.93 -0.098,-2.9 -0.105,-2.9 -0.242,-5.74 -0.243,-5.71 -0.25,-5.66 -0.214,-5.63 -0.098,-2.78 -0.082,-2.8 -0.055,-2.18 -0.043,-2.17 -0.09,-4.41 -0.039,-4.4 -0.023,-4.4 -0.012,-4.43 0.024,-4.44 0.031,-4.44 0.047,-4.45 0.051,-4.47 0.054,-4.47 0.137,-8.99 0.133,-9.01 0.054,-4.52 0.043,-4.51 -0.035,-1.15 -0.117,-1.15 -0.203,-1.14 -0.289,-1.12 -0.367,-1.1 -0.453,-1.06 -0.539,-1.04 -0.598,-0.97 -0.676,-0.95 -0.754,-0.88 -0.805,-0.83 -0.871,-0.76 -0.925,-0.7 -0.977,-0.62 -1.008,-0.55 -1.066,-0.48 -1.082,-0.39 -1.121,-0.31 -1.125,-0.22 -1.149,-0.15 -1.164,-0.05 -1.144,0.03 -1.153,0.12 -1.14,0.2 -1.125,0.29 -1.094,0.38 -1.066,0.45 -1.032,0.52 -0.98,0.61 -0.942,0.67 -0.882,0.75 -0.829,0.81 -0.761,0.87 -0.696,0.93 -0.625,0.98 -0.546,1.01 -0.477,1.06 -0.395,1.08 -0.312,1.13 -0.223,1.12 -0.144,1.15 -0.055,1.16 -0.043,4.47 -0.051,4.46 -0.129,8.96 -0.132,8.99 -0.063,4.52 -0.055,4.53 -0.043,4.53 -0.027,4.54 -0.027,4.56 0.015,4.56 0.02,4.58 0.055,4.58 0.074,4.57 0.051,2.31 0.07,2.3 0.082,2.91 0.098,2.92 0.226,5.77 0.238,5.73 0.243,5.69 0.242,5.66 0.105,2.79 0.094,2.8 0.086,2.78 0.074,2.78 0.055,2.76 0.043,2.74 0.012,1.85 v 1.83 l -0.024,1.86 -0.031,1.86 -0.039,1.88 -0.055,1.89 -0.066,1.9 -0.074,1.91 -0.161,3.87 -0.171,3.9 -0.188,3.96 -0.16,3.95 -0.039,0.85 -0.043,0.82 -0.117,1.94 -0.313,4.45 -0.152,2.47 -0.153,2.58 -0.05,1.36 -0.055,1.37 -0.047,1.4 -0.016,1.41 -0.011,1.44 0.011,1.45 0.032,1.47 0.066,1.5 0.07,1.5 0.118,1.51 0.152,1.54 0.195,1.49 0.117,0.83 0.118,0.78 0.14,0.8 0.153,0.79 0.16,0.8 0.183,0.8 0.196,0.8 0.215,0.82 0.222,0.81 0.246,0.82 0.266,0.83 0.305,0.82 0.312,0.83 0.34,0.84 0.379,0.84 0.535,1.13 0.375,0.67 0.477,0.79 0.515,0.74 0.137,0.19 0.57,0.73 0.614,0.7 0.148,0.16 0.656,0.66 0.688,0.61 0.16,0.15 0.711,0.56 0.73,0.5 0.18,0.13 0.723,0.44 0.726,0.41 0.207,0.11 0.707,0.34 0.715,0.3 0.223,0.09 0.664,0.25 0.679,0.2 0.84,0.25 1.438,0.29 1.32,0.17 1.227,0.07 1.136,0.01 1.043,-0.05 0.981,-0.08 0.914,-0.14 0.859,-0.13 0.813,-0.17 0.773,-0.19 0.742,-0.19 0.7,-0.2 0.687,-0.22 0.731,-0.25 1.191,-0.44 1.211,-0.49 1.172,-0.51 1.121,-0.52 1.082,-0.53 1.066,-0.55 1.02,-0.55 0.988,-0.54 0.953,-0.54 0.914,-0.55 0.895,-0.53 0.84,-0.52 0.836,-0.53 1.437,-0.95 1.317,-0.91 1.113,-0.81 0.687,-0.54 0.645,-0.53 1,-0.92 0.859,-0.8 0.836,-0.81 0.828,-0.82 0.809,-0.82 0.793,-0.83 0.773,-0.84 0.762,-0.84 0.742,-0.85 0.731,-0.86 0.718,-0.84 0.707,-0.86 0.692,-0.86 0.676,-0.88 0.664,-0.87 0.644,-0.86 0.645,-0.87 0.625,-0.88 0.625,-0.88 0.621,-0.89 1.164,-1.73 1.137,-1.75 1.105,-1.75 1.078,-1.74 1.039,-1.74 1.02,-1.73 1,-1.72 0.976,-1.72 1.872,-3.35 1.828,-3.3 1.8,-3.23 0.883,-1.57 0.879,-1.55 0.871,-1.52 0.883,-1.5 0.879,-1.46 0.883,-1.43 0.89,-1.4 1.02,-1.56 0.418,-0.68 0.656,-1.05 1.719,-2.83 0.551,1.21 0.816,1.84 0.805,1.86 0.797,1.87 0.797,1.89 0.781,1.89 0.773,1.9 0.762,1.93 0.762,1.92 0.761,1.92 1.504,3.92 1.496,3.93 1.493,3.95 3,8 1.503,4.03 1.532,4.06 1.558,4.05 1.59,4.07 0.817,2.06 0.832,2.04 0.824,2.04 0.804,1.94 0.079,0.2 0.109,0.27 0.395,1.08 1.171,3.23 0.727,2 0.82,2.19 0.879,2.28 0.477,1.21 0.492,1.2 0.504,1.21 0.515,1.22 0.547,1.22 0.563,1.22 0.582,1.22 0.598,1.21 0.644,1.22 0.676,1.22 0.695,1.15 0.434,0.68 0.418,0.62 0.437,0.64 0.485,0.65 0.507,0.66 0.567,0.68 0.637,0.71 0.699,0.71 0.804,0.76 0.922,0.77 1.09,0.79 1.266,0.8 0.816,0.42 0.699,0.33 0.719,0.3 0.207,0.09 0.985,0.34 1.011,0.28 1.02,0.21 0.054,0.01 1.083,0.15 1.089,0.06 h 1.086" /><path
         id="path32"
         style="fill:#ffffff;fill-opacity:1;fill-rule:evenodd;stroke:none"
         d="m 833.453,2494.54 1.172,-0.15 1.156,-0.24 1.137,-0.33 1.117,-0.42 1.078,-0.49 1.028,-0.58 0.992,-0.65 0.933,-0.74 0.875,-0.79 0.813,-0.87 0.742,-0.93 0.664,-0.97 0.594,-1.02 0.516,-1.08 0.429,-1.1 0.344,-1.13 0.258,-1.16 0.16,-1.17 0.082,-1.19 -0.02,-1.18 -0.265,-5.32 -0.262,-5.3 -0.234,-5.33 -0.223,-5.34 -0.215,-5.36 -0.195,-5.37 -0.172,-5.39 -0.16,-5.4 -0.141,-5.4 -0.109,-5.42 -0.098,-5.41 -0.074,-5.43 -0.043,-5.43 -0.027,-5.43 v -5.43 l 0.027,-5.42 0.055,-5.43 0.086,-5.41 0.117,-5.42 0.144,-5.41 0.082,-2.69 0.098,-2.68 0.098,-2.7 0.105,-2.68 0.117,-2.69 0.129,-2.68 0.129,-2.68 0.141,-2.68 0.148,-2.66 0.164,-2.66 0.168,-2.67 0.188,-2.65 0.179,-2.66 0.196,-2.64 0.207,-2.64 0.222,-2.63 0.223,-2.63 0.227,-2.63 0.25,-2.62 0.258,-2.61 0.269,-2.6 0.27,-2.6 0.285,-2.59 0.312,-2.69 0.074,-0.71 0.071,-0.81 0.051,-0.79 0.039,-0.83 0.046,-1.52 0.024,-1.57 v -1.62 l -0.016,-1.66 -0.062,-3.37 -0.074,-3.54 -0.079,-3.62 -0.031,-1.8 -0.008,-1.8 v -1.79 l 0.02,-1.77 0.035,-1.71 0.055,-1.68 0.07,-1.65 0.055,-0.74 0.054,-0.74 0.051,-0.75 0.074,-0.7 0.071,-0.68 0.074,-0.66 0.086,-0.61 0.082,-0.58 0.098,-0.55 0.089,-0.5 0.094,-0.46 0.086,-0.4 0.18,-0.07 0.43,-0.15 0.402,-0.11 0.437,-0.11 0.477,-0.11 0.492,-0.1 0.535,-0.09 0.559,-0.07 0.59,-0.07 0.617,-0.06 0.633,-0.05 0.664,-0.04 0.679,-0.02 0.684,-0.01 0.711,-0.01 0.719,0.01 0.73,0.02 0.746,0.03 0.735,0.04 0.754,0.04 0.722,0.06 1.547,0.13 1.559,0.15 3.734,0.4 3.828,0.4 3.844,0.41 3.848,0.39 3.855,0.42 3.848,0.44 1.898,0.25 1.903,0.23 1.902,0.23 1.89,0.26 1.879,0.26 1.883,0.27 1.86,0.29 1.843,0.29 1.828,0.3 1.817,0.32 1.805,0.32 1.785,0.35 1.761,0.36 1.739,0.37 1.718,0.38 1.707,0.41 1.668,0.42 1.653,0.43 1.621,0.45 1.711,0.5 1.137,0.29 1.171,0.2 1.18,0.11 1.184,0.02 1.183,-0.06 1.18,-0.16 1.16,-0.26 1.129,-0.33 1.109,-0.43 1.075,-0.51 1.031,-0.59 0.976,-0.67 0.922,-0.74 0.871,-0.8 0.805,-0.87 0.731,-0.93 0.664,-0.99 0.582,-1.03 0.507,-1.08 0.415,-1.1 0.339,-1.14 0.243,-1.16 0.152,-1.17 0.062,-1.18 -0.019,-1.19 -0.117,-1.17 -0.203,-1.17 -0.305,-1.16 -0.375,-1.11 -0.473,-1.1 -0.547,-1.04 -0.621,-1.01 -0.699,-0.96 -0.777,-0.89 -0.848,-0.84 -0.891,-0.77 -0.964,-0.69 -1,-0.63 -1.051,-0.54 -1.102,-0.46 -1.125,-0.38 -1.914,-0.56 -2.027,-0.57 -2.039,-0.54 -2.059,-0.5 -2.051,-0.49 -2.058,-0.46 -2.067,-0.44 -2.058,-0.42 -2.067,-0.4 -2.07,-0.37 -2.066,-0.37 -2.071,-0.34 -2.066,-0.33 -2.059,-0.32 -2.066,-0.29 -2.051,-0.29 -2.051,-0.27 -2.054,-0.26 -2.028,-0.26 -2.039,-0.24 -4.019,-0.46 -3.977,-0.43 -3.933,-0.42 -3.868,-0.4 -3.789,-0.4 -3.785,-0.39 -1.871,-0.2 -1.984,-0.17 -1.094,-0.07 -1.074,-0.07 -1.11,-0.07 -1.117,-0.04 -1.148,-0.02 -1.164,-0.01 h -1.192 l -1.199,0.02 -1.226,0.04 -1.235,0.07 -1.262,0.1 -1.273,0.12 -1.289,0.14 -1.313,0.2 -1.324,0.21 -1.328,0.26 -1.355,0.3 -1.364,0.36 -1.379,0.39 -1.308,0.43 -0.762,0.27 -0.695,0.27 -0.692,0.27 -0.699,0.3 -0.695,0.32 -0.699,0.32 -0.7,0.34 -0.699,0.36 -0.687,0.39 -0.696,0.39 -0.691,0.42 -0.672,0.44 -0.68,0.47 -0.679,0.48 -0.664,0.5 -0.696,0.56 -0.625,0.52 -0.636,0.57 -0.59,0.58 -0.547,0.59 -0.527,0.61 -0.493,0.59 -0.461,0.61 -0.496,0.67 -0.73,1.11 -0.695,1.19 -0.618,1.17 -0.535,1.15 -0.484,1.15 -0.43,1.14 -0.375,1.11 -0.344,1.1 -0.3,1.11 -0.282,1.08 -0.234,1.08 -0.223,1.09 -0.195,1.07 -0.187,1.07 -0.161,1.07 -0.136,1.08 -0.133,1.06 -0.106,1.06 -0.109,1.08 -0.082,1.06 -0.078,1.06 -0.063,1.1 -0.109,2.08 -0.063,2.12 -0.042,2.09 -0.02,2.08 v 2.05 l 0.02,2.02 0.023,1.98 0.074,3.76 0.086,3.52 0.055,3.16 0.012,1.37 v 1.26 l -0.012,1.08 -0.035,0.94 -0.008,0.31 -0.024,0.29 -0.019,0.22 -0.02,0.23 -0.304,2.61 -0.301,2.72 -0.289,2.73 -0.278,2.73 -0.269,2.74 -0.262,2.74 -0.23,2.74 -0.242,2.75 -0.223,2.75 -0.215,2.76 -0.215,2.76 -0.195,2.76 -0.18,2.76 -0.172,2.77 -0.172,2.78 -0.152,2.77 -0.148,2.78 -0.145,2.78 -0.125,2.77 -0.117,2.79 -0.117,2.79 -0.098,2.78 -0.098,2.8 -0.089,2.79 -0.145,5.56 -0.121,5.59 -0.086,5.59 -0.062,5.57 -0.036,5.59 v 5.58 l 0.036,5.57 0.039,5.56 0.078,5.56 0.097,5.54 0.118,5.53 0.136,5.54 0.16,5.5 0.188,5.5 0.191,5.47 0.215,5.47 0.238,5.44 0.235,5.41 0.269,5.39 0.266,5.34 0.109,1.18 0.196,1.17 0.277,1.15 0.375,1.13 0.449,1.1 0.555,1.05 0.609,1.01 0.7,0.97 0.761,0.9 0.828,0.84 0.903,0.78 0.941,0.7 1.004,0.63 1.051,0.56 1.086,0.48 1.129,0.38 1.136,0.3 1.172,0.2 1.184,0.14 1.18,0.02 1.183,-0.06" /><path
         id="path34"
         style="fill:#4c42a2;fill-opacity:1;fill-rule:evenodd;stroke:none"
         d="m 1267.46,3551.93 c 0,100.43 -43.52,181.96 -143.94,181.96 H 666.633 c -100.426,0 -142.82,-81.53 -142.82,-181.96 v -192.09 c 0,-100.43 42.394,-181.96 142.82,-181.96 h 153.25 l 108.418,-160.31 c 0,0 27.597,-41.12 55.152,-36.86 31.837,4.93 26.807,58.84 26.807,58.84 l 6.96,138.33 h 106.3 c 100.42,0 143.94,81.53 143.94,181.96 v 192.09" /><path
         id="path36"
         style="fill:#ffffff;fill-opacity:1;fill-rule:evenodd;stroke:none"
         d="m 800.094,3549.12 0.84,-0.08 0.824,-0.12 0.832,-0.16 0.805,-0.21 0.804,-0.24 0.781,-0.29 0.778,-0.33 0.734,-0.37 0.735,-0.42 0.707,-0.45 0.679,-0.49 0.657,-0.53 0.625,-0.55 0.589,-0.59 0.555,-0.63 0.52,-0.66 0.492,-0.68 0.449,-0.7 0.41,-0.74 0.367,-0.75 0.332,-0.77 0.289,-0.79 0.239,-0.8 0.203,-0.82 0.164,-0.81 0.105,-0.84 0.063,-0.83 0.019,-0.84 -0.019,-0.84 -0.078,-0.83 -0.106,-0.83 -0.164,-0.83 -0.199,-0.8 -0.246,-0.81 -0.289,-0.78 -0.336,-0.78 -0.379,-0.74 -0.414,-0.73 -0.453,-0.71 -0.485,-0.67 -0.527,-0.66 -0.566,-0.62 -0.59,-0.59 -0.625,-0.56 -0.656,-0.52 -2.051,-1.55 -2.11,-1.57 -2.113,-1.55 -2.117,-1.54 -2.125,-1.5 -2.129,-1.51 -2.141,-1.47 -2.136,-1.47 -2.133,-1.45 -2.141,-1.43 -2.136,-1.43 -2.161,-1.42 -4.265,-2.78 -4.289,-2.76 -4.262,-2.73 -4.254,-2.71 -4.234,-2.68 -4.211,-2.69 -4.184,-2.68 -4.152,-2.69 -2.051,-1.34 -2.055,-1.34 -2.035,-1.36 -2.113,-1.41 -0.805,-0.53 -0.879,-0.56 -0.894,-0.54 -0.891,-0.52 -0.879,-0.51 -0.925,-0.5 -1.743,-0.94 -1.781,-0.94 -1.773,-0.9 -3.5,-1.78 -1.7,-0.87 -1.644,-0.85 -1.598,-0.87 -0.734,-0.4 -0.719,-0.4 -0.023,-0.01 0.226,-0.13 0.508,-0.25 0.473,-0.24 1.105,-0.53 1.117,-0.49 1.161,-0.5 1.031,-0.43 1.054,-0.43 1.075,-0.43 1.086,-0.42 1.093,-0.41 1.098,-0.41 2.293,-0.83 2.336,-0.81 2.383,-0.83 4.847,-1.66 1.868,-0.65 1.839,-0.6 1.836,-0.59 1.86,-0.58 1.867,-0.57 1.883,-0.56 1.89,-0.56 1.899,-0.54 1.914,-0.53 1.926,-0.54 3.91,-1.06 7.969,-2.13 1.546,-0.42 1.579,-0.44 3.074,-0.88 3.062,-0.9 3.02,-0.9 2.984,-0.93 2.942,-0.92 5.836,-1.78 2.855,-0.88 2.852,-0.84 2.832,-0.82 1.386,-0.39 1.387,-0.39 1.387,-0.37 1.386,-0.35 1.372,-0.36 1.378,-0.33 1.364,-0.33 1.367,-0.31 1.351,-0.3 1.442,-0.3 0.812,-0.19 0.797,-0.24 0.797,-0.28 0.77,-0.32 0.754,-0.36 0.73,-0.41 0.719,-0.45 0.679,-0.47 0.665,-0.53 0.625,-0.54 0.597,-0.58 0.574,-0.62 0.524,-0.65 0.508,-0.68 0.449,-0.69 0.43,-0.74 0.375,-0.73 0.347,-0.77 0.285,-0.78 0.258,-0.81 0.219,-0.8 0.16,-0.82 0.125,-0.84 0.078,-0.82 0.031,-0.84 -0.011,-0.84 -0.063,-0.84 -0.097,-0.83 -0.153,-0.82 -0.187,-0.82 -0.242,-0.8 -0.278,-0.79 -0.32,-0.77 -0.367,-0.77 -0.407,-0.73 -0.445,-0.71 -0.48,-0.68 -0.516,-0.66 -0.559,-0.63 -0.578,-0.61 -0.625,-0.56 -0.644,-0.53 -0.68,-0.49 -0.695,-0.47 -0.719,-0.42 -0.754,-0.37 -0.762,-0.34 -0.785,-0.31 -0.797,-0.25 -0.812,-0.21 -0.816,-0.17 -0.833,-0.12 -0.832,-0.07 -0.839,-0.04 -0.836,0.02 -0.84,0.05 -0.824,0.11 -0.832,0.15 -1.567,0.32 -1.644,0.36 -1.633,0.37 -1.621,0.38 -1.61,0.41 -1.593,0.4 -1.59,0.41 -1.578,0.43 -1.567,0.43 -1.574,0.44 -3.062,0.88 -3.051,0.91 -3.02,0.92 -5.906,1.82 -2.918,0.9 -2.883,0.89 -2.855,0.87 -2.828,0.82 -2.836,0.82 -1.371,0.38 -1.415,0.38 -7.976,2.13 -4.043,1.11 -2.051,0.56 -2.043,0.57 -2.051,0.59 -2.05,0.6 -2.067,0.61 -2.074,0.64 -2.078,0.65 -2.086,0.66 -2.094,0.69 -2.043,0.7 -4.886,1.68 -2.485,0.87 -2.523,0.88 -2.547,0.92 -1.313,0.49 -1.308,0.49 -1.309,0.51 -1.324,0.52 -1.332,0.54 -1.352,0.57 -1.566,0.67 -1.602,0.72 -1.582,0.75 -0.851,0.43 -0.817,0.41 -0.812,0.43 -0.828,0.44 -0.828,0.47 -0.825,0.47 -0.839,0.49 -0.829,0.51 -0.828,0.53 -0.828,0.53 -0.758,0.52 -0.742,0.51 -0.719,0.53 -0.714,0.54 -0.696,0.55 -0.691,0.54 -0.672,0.57 -0.656,0.58 -0.645,0.6 -0.633,0.6 -0.625,0.64 -0.601,0.63 -0.59,0.67 -0.582,0.68 -0.555,0.72 -0.547,0.73 -0.531,0.75 -0.504,0.79 -0.484,0.8 -0.461,0.82 -0.43,0.86 -0.41,0.9 -0.375,0.9 -0.34,0.95 -0.304,0.95 -0.27,0.98 -0.223,1 -0.172,1.01 -0.14,1.02 -0.09,1.02 -0.027,1.03 0.007,1.02 0.055,1.02 0.098,1 0.137,0.99 0.183,0.97 0.227,0.93 0.258,0.93 0.281,0.88 0.32,0.86 0.344,0.83 0.355,0.81 0.383,0.76 0.402,0.74 0.422,0.72 0.422,0.69 0.438,0.66 0.449,0.63 0.445,0.6 0.465,0.59 0.477,0.57 0.511,0.6 0.903,0.97 0.957,0.97 0.976,0.9 0.977,0.86 0.992,0.81 0.984,0.76 0.993,0.74 0.988,0.7 1,0.67 0.984,0.66 1.004,0.62 0.996,0.62 0.989,0.59 0.988,0.56 0.988,0.56 1.012,0.56 1.91,1.03 1.914,1 1.871,0.96 3.512,1.78 1.621,0.83 1.504,0.78 1.394,0.76 0.59,0.33 0.582,0.32 0.52,0.3 0.472,0.29 0.395,0.25 0.441,0.29 2.051,1.37 2.137,1.42 2.148,1.41 2.149,1.41 4.269,2.77 4.278,2.73 4.261,2.72 4.235,2.69 4.222,2.68 4.188,2.69 4.168,2.68 4.14,2.7 2.04,1.35 2.027,1.35 2.031,1.36 2.012,1.36 2.008,1.37 1.984,1.38 1.969,1.39 1.965,1.39 1.945,1.41 1.934,1.42 1.925,1.43 1.942,1.47 0.687,0.48 0.699,0.45 0.731,0.43 0.75,0.36 0.777,0.33 0.782,0.28 0.804,0.25 0.821,0.2 0.816,0.15 0.836,0.12 0.828,0.07 0.836,0.02 0.84,-0.02" /><path
         id="path38"
         style="fill:#ffffff;fill-opacity:1;fill-rule:evenodd;stroke:none"
         d="m 979.336,3586.79 1.199,-0.18 1.184,-0.28 1.164,-0.37 1.125,-0.45 1.086,-0.53 1.039,-0.63 0.992,-0.71 0.934,-0.77 0.867,-0.85 0.797,-0.92 0.73,-0.97 0.645,-1.03 0.558,-1.08 0.473,-1.11 0.387,-1.15 0.3,-1.18 0.207,-1.2 0.106,-1.21 0.012,-1.21 -0.09,-1.22 -0.168,-1.2 -0.281,-1.18 -0.356,-1.16 -0.461,-1.13 -2.117,-4.73 -2.168,-4.76 -2.184,-4.72 -2.211,-4.73 -2.238,-4.7 -2.246,-4.68 -2.262,-4.67 -2.277,-4.66 -2.301,-4.65 -2.297,-4.61 -2.32,-4.63 -2.336,-4.6 -2.328,-4.6 -2.344,-4.6 -4.703,-9.14 -4.707,-9.13 -4.707,-9.1 -4.691,-9.09 -4.664,-9.09 -2.325,-4.54 -2.308,-4.54 -2.293,-4.55 -2.293,-4.54 -2.266,-4.55 -2.254,-4.55 -2.238,-4.57 -2.199,-4.54 -1.461,-3.05 -1.43,-3.05 -1.406,-3.07 -1.387,-3.09 -1.379,-3.11 -1.363,-3.13 -1.34,-3.15 -1.344,-3.15 -1.332,-3.18 -1.336,-3.19 -2.66,-6.41 -2.664,-6.45 -2.695,-6.48 -1.379,-3.27 -1.379,-3.26 -1.402,-3.26 -1.418,-3.28 -1.442,-3.27 -1.468,-3.27 -1.493,-3.28 -1.539,-3.27 -1.546,-3.25 -0.809,-1.65 -0.805,-1.64 -0.804,-1.63 -0.825,-1.62 -0.832,-1.64 -0.843,-1.63 -0.864,-1.62 -0.859,-1.62 -0.883,-1.63 -0.891,-1.62 -0.898,-1.62 -0.914,-1.61 -0.926,-1.61 -0.914,-1.56 -0.656,-1.04 -0.727,-0.96 -0.804,-0.91 -0.883,-0.84 -0.934,-0.77 -1,-0.7 -1.043,-0.61 -1.097,-0.53 -1.129,-0.45 -1.157,-0.35 -1.195,-0.27 -1.203,-0.16 -1.215,-0.07 -1.211,0.02 -1.207,0.12 -1.199,0.22 -1.172,0.3 -1.148,0.39 -1.118,0.49 -1.066,0.57 -1.027,0.65 -0.969,0.74 -0.902,0.81 -0.852,0.87 -0.769,0.93 -0.692,1 -0.625,1.05 -0.523,1.09 -0.442,1.14 -0.351,1.16 -0.27,1.18 -0.16,1.21 -0.078,1.21 0.023,1.21 0.118,1.21 0.214,1.2 0.301,1.17 0.399,1.15 0.484,1.12 0.578,1.07 0.863,1.46 0.813,1.43 0.816,1.44 0.805,1.44 0.797,1.44 0.781,1.46 0.777,1.46 0.77,1.46 0.77,1.47 0.75,1.49 0.753,1.48 0.735,1.49 0.742,1.5 0.723,1.48 1.453,3.04 1.414,3.05 1.406,3.06 1.387,3.09 1.367,3.1 1.352,3.12 1.351,3.13 1.336,3.16 1.332,3.17 2.66,6.39 2.656,6.44 2.688,6.47 1.352,3.25 1.378,3.27 1.387,3.26 1.395,3.27 1.425,3.27 1.45,3.28 1.476,3.29 1.504,3.28 1.531,3.28 1.559,3.27 2.281,4.68 2.285,4.67 2.301,4.64 2.309,4.63 2.324,4.62 2.328,4.62 2.344,4.6 2.355,4.58 4.692,9.16 4.707,9.12 4.703,9.1 4.695,9.09 4.664,9.08 2.321,4.54 2.296,4.53 2.301,4.55 2.278,4.54 2.265,4.55 2.246,4.54 2.235,4.56 2.203,4.55 2.191,4.57 2.168,4.56 2.149,4.58 2.121,4.59 2.093,4.59 2.086,4.65 0.536,1.09 0.621,1.04 0.711,0.99 0.773,0.94 0.848,0.87 0.914,0.79 0.976,0.72 1.032,0.65 1.074,0.57 1.117,0.47 1.148,0.39 1.188,0.29 1.199,0.21 1.203,0.11 1.215,0.01 1.215,-0.08" /><path
         id="path40"
         style="fill:#ffffff;fill-opacity:1;fill-rule:evenodd;stroke:none"
         d="m 1031.98,3535.94 0.95,-0.07 0.94,-0.14 0.93,-0.19 0.93,-0.25 0.9,-0.31 0.88,-0.35 0.85,-0.43 0.83,-0.47 0.8,-0.52 0.78,-0.55 0.72,-0.62 0.69,-0.65 0.65,-0.7 0.9,-1.03 0.84,-0.93 0.87,-0.94 0.88,-0.93 0.9,-0.94 0.92,-0.92 0.93,-0.93 0.94,-0.91 0.97,-0.91 0.99,-0.92 1,-0.91 1.01,-0.9 1.03,-0.91 1.04,-0.9 1.05,-0.89 1.08,-0.9 1.08,-0.9 1.1,-0.88 1.12,-0.89 1.11,-0.87 1.15,-0.89 1.13,-0.88 1.16,-0.88 1.15,-0.86 2.38,-1.76 2.4,-1.74 2.43,-1.73 2.46,-1.74 2.5,-1.73 2.5,-1.73 5.08,-3.49 5.11,-3.49 2.57,-1.77 2.58,-1.77 2.57,-1.79 2.56,-1.81 2.56,-1.82 2.55,-1.84 2.52,-1.86 1.27,-0.96 1.26,-0.94 1.24,-0.97 1.25,-0.97 1.24,-0.96 0.91,-0.73 0.02,-0.01 0.28,-0.17 0.41,-0.24 0.48,-0.28 1.29,-0.71 3.2,-1.74 1.81,-1 1.88,-1.05 1.01,-0.59 0.98,-0.59 1,-0.6 1.01,-0.62 1.01,-0.65 1.01,-0.69 1.02,-0.72 1.04,-0.76 1.04,-0.82 0.99,-0.85 0.59,-0.54 0.53,-0.51 0.56,-0.56 0.56,-0.6 0.58,-0.66 0.58,-0.72 0.58,-0.78 0.59,-0.89 0.59,-0.99 0.58,-1.11 0.54,-1.27 0.42,-1.21 0.28,-0.98 0.19,-0.79 0.16,-0.81 0.13,-0.8 0.12,-0.8 0.07,-0.81 0.06,-0.79 0.02,-0.78 v -0.79 l -0.02,-0.77 -0.06,-0.76 -0.07,-0.76 -0.09,-0.74 -0.12,-0.71 -0.12,-0.73 -0.17,-0.79 -0.33,-1.26 -0.41,-1.3 -0.46,-1.23 -0.49,-1.2 -0.54,-1.14 -0.56,-1.08 -0.59,-1.04 -0.61,-1 -0.64,-0.96 -0.65,-0.92 -0.66,-0.9 -0.67,-0.86 -0.69,-0.82 -0.7,-0.81 -0.71,-0.78 -0.71,-0.76 -0.73,-0.74 -0.73,-0.72 -0.73,-0.71 -0.74,-0.68 -0.74,-0.68 -0.75,-0.65 -0.75,-0.64 -0.75,-0.63 -0.76,-0.61 -0.76,-0.59 -0.76,-0.59 -0.78,-0.59 -1.48,-1.1 -1.5,-1.06 -1.46,-1.02 -1.46,-0.96 -1.43,-0.92 -1.37,-0.88 -1.34,-0.82 -1.28,-0.78 -1.22,-0.72 -1.17,-0.67 -2.01,-1.14 -1.67,-0.93 -1.68,-0.91 -1.67,-0.9 -1.69,-0.88 -1.7,-0.87 -1.68,-0.86 -1.7,-0.85 -1.7,-0.83 -1.69,-0.81 -1.71,-0.81 -1.7,-0.78 -1.71,-0.79 -1.7,-0.77 -1.71,-0.75 -1.7,-0.75 -1.71,-0.74 -1.72,-0.75 -3.4,-1.43 -3.41,-1.41 -3.41,-1.38 -3.4,-1.36 -3.39,-1.34 -3.39,-1.32 -6.72,-2.61 -6.69,-2.6 -3.31,-1.3 -3.3,-1.3 -3.27,-1.3 -3.26,-1.32 -3.22,-1.33 -3.22,-1.36 -3.18,-1.37 -1.57,-0.69 -1.57,-0.7 -1.57,-0.7 -1.56,-0.72 -1.55,-0.71 -1.53,-0.73 -1.54,-0.74 -1.52,-0.74 -1.52,-0.75 -1.5,-0.76 -1.51,-0.77 -1.49,-0.78 -1.48,-0.78 -1.53,-0.83 -0.85,-0.43 -0.88,-0.38 -0.89,-0.32 -0.914,-0.27 -0.934,-0.2 -0.945,-0.15 -0.945,-0.1 -0.946,-0.03 -0.957,0.02 -0.941,0.08 -0.949,0.15 -0.934,0.2 -0.91,0.26 -0.906,0.31 -0.883,0.36 -0.86,0.42 -0.824,0.48 -0.797,0.53 -0.761,0.56 -0.719,0.63 -0.688,0.65 -0.644,0.7 -0.602,0.74 -0.558,0.77 -0.504,0.81 -0.453,0.84 -0.407,0.87 -0.347,0.88 -0.289,0.91 -0.239,0.93 -0.179,0.93 -0.117,0.95 -0.067,0.94 -0.012,0.96 0.051,0.94 0.125,0.96 0.168,0.93 0.227,0.92 0.289,0.92 0.336,0.88 0.394,0.87 0.457,0.84 0.492,0.82 0.547,0.78 0.59,0.74 0.645,0.71 0.679,0.67 0.715,0.62 0.766,0.58 0.785,0.53 0.824,0.48 1.637,0.88 1.695,0.91 1.699,0.88 1.708,0.87 1.695,0.86 1.707,0.85 1.711,0.84 1.709,0.82 1.72,0.8 1.71,0.8 1.71,0.78 1.71,0.78 1.71,0.76 1.73,0.75 3.42,1.47 3.42,1.44 3.42,1.42 3.42,1.39 3.4,1.35 3.41,1.34 3.38,1.34 6.74,2.61 6.68,2.59 3.31,1.29 3.29,1.29 3.27,1.31 3.23,1.32 3.22,1.32 3.2,1.36 1.57,0.67 1.58,0.69 1.57,0.68 1.57,0.7 1.54,0.7 1.55,0.71 1.54,0.72 1.53,0.72 1.52,0.73 1.51,0.74 1.51,0.74 1.49,0.76 1.48,0.76 1.48,0.78 1.46,0.79 1.48,0.79 1.44,0.8 1.75,1 0.92,0.54 1,0.58 1.03,0.62 1.07,0.66 1.08,0.69 1.1,0.71 1.1,0.74 1.1,0.75 1.07,0.76 1.09,0.8 0.48,0.38 0.51,0.38 0.49,0.4 0.49,0.38 0.46,0.4 0.45,0.37 0.1,0.09 -0.14,0.08 -1.62,0.89 -3.23,1.75 -1.55,0.86 -0.8,0.45 -0.79,0.47 -0.79,0.48 -0.83,0.52 -0.91,0.63 -0.81,0.61 -1.27,1.01 -1.08,0.85 -1.09,0.85 -1.1,0.85 -1.12,0.84 -1.11,0.83 -2.3,1.71 -2.35,1.7 -2.38,1.7 -2.43,1.69 -2.45,1.71 -2.49,1.72 -2.52,1.73 -5.1,3.48 -5.16,3.54 -2.6,1.8 -2.61,1.81 -2.61,1.84 -2.6,1.86 -2.61,1.89 -2.58,1.9 -1.3,0.99 -1.3,0.98 -1.28,0.99 -1.28,1 -1.28,0.99 -1.27,1.02 -1.27,1.04 -1.27,1.03 -1.24,1.05 -1.26,1.06 -1.23,1.07 -1.24,1.07 -1.22,1.1 -1.22,1.11 -1.2,1.11 -1.2,1.13 -1.19,1.15 -1.17,1.16 -1.16,1.19 -1.16,1.17 -1.14,1.21 -1.12,1.22 -1.11,1.24 -1.03,1.18 -0.6,0.73 -0.57,0.77 -0.5,0.81 -0.46,0.84 -0.41,0.86 -0.35,0.88 -0.3,0.9 -0.24,0.93 -0.19,0.93 -0.13,0.95 -0.07,0.94 -0.01,0.95 0.06,0.96 0.1,0.95 0.17,0.93 0.22,0.93 0.28,0.91 0.33,0.89 0.39,0.87 0.44,0.85 0.49,0.82 0.54,0.78 0.59,0.74 0.64,0.71 0.67,0.68 0.72,0.62 0.75,0.58 0.8,0.54 0.82,0.48 0.85,0.44 0.86,0.38 0.91,0.33 0.91,0.27 0.92,0.22 0.95,0.15 0.94,0.09 0.95,0.05 0.96,-0.03" /><path
         id="path42"
         style="fill:#4c42a2;fill-opacity:1;fill-rule:evenodd;stroke:none"
         d="m 2136.44,3358.54 c 0,100.42 43.51,181.96 143.93,181.96 h 456.89 c 100.43,0 142.82,-81.54 142.82,-181.96 v -192.09 c 0,-100.43 -42.39,-181.96 -142.82,-181.96 H 2584.01 L 2475.6,2824.18 c 0,0 -27.61,-41.13 -55.16,-36.87 -31.84,4.94 -26.81,58.85 -26.81,58.85 l -6.96,138.33 h -106.3 c -100.42,0 -143.93,81.53 -143.93,181.96 v 192.09" /><path
         id="path44"
         style="fill:#ffffff;fill-opacity:1;fill-rule:evenodd;stroke:none"
         d="m 2369.6,3387.81 0.97,-0.02 0.95,-0.06 0.97,-0.08 0.98,-0.11 0.97,-0.13 1,-0.17 0.98,-0.19 0.98,-0.22 0.98,-0.26 0.99,-0.28 0.97,-0.32 0.98,-0.34 0.98,-0.38 0.94,-0.41 0.96,-0.45 0.95,-0.47 0.93,-0.51 0.92,-0.54 0.91,-0.57 0.89,-0.6 0.87,-0.63 0.86,-0.66 0.84,-0.68 0.82,-0.71 0.8,-0.74 0.77,-0.77 0.75,-0.78 0.74,-0.82 0.72,-0.83 0.68,-0.86 0.68,-0.86 0.65,-0.9 0.61,-0.92 0.61,-0.92 0.74,-1.22 0.71,-1.21 0.68,-1.23 0.64,-1.23 0.62,-1.24 0.56,-1.25 0.55,-1.25 0.53,-1.26 0.48,-1.26 0.47,-1.26 0.44,-1.27 0.4,-1.28 0.37,-1.27 0.35,-1.26 0.33,-1.28 0.3,-1.27 0.28,-1.28 0.25,-1.26 0.24,-1.28 0.2,-1.26 0.2,-1.27 0.17,-1.27 0.15,-1.26 0.12,-1.25 0.12,-1.26 0.09,-1.24 0.09,-1.25 0.05,-1.25 0.06,-1.25 0.02,-1.22 0.01,-1.23 0.01,-1.23 -0.01,-1.22 -0.02,-1.22 -0.03,-1.21 -0.05,-1.21 -0.05,-1.19 -0.07,-1.2 -0.09,-1.18 -0.08,-1.2 -0.08,-1.17 -0.11,-1.19 -0.23,-2.28 -0.26,-2.3 -0.28,-2.27 -0.31,-2.23 -0.31,-2.2 -0.33,-2.17 -0.34,-2.13 -0.35,-2.09 -0.36,-2.05 -0.68,-3.95 -0.23,-1.13 -0.35,-1.11 -0.4,-1.08 -0.48,-1.04 -0.57,-1.02 -0.64,-0.96 -0.71,-0.92 -0.77,-0.85 -0.84,-0.81 -0.89,-0.73 -0.95,-0.67 -0.99,-0.59 -1.04,-0.52 -1.07,-0.43 -1.09,-0.36 -1.13,-0.28 -1.14,-0.18 -1.15,-0.11 -1.16,-0.02 -1.16,0.08 -1.14,0.16 -1.14,0.23 -1.11,0.33 -1.08,0.41 -1.04,0.49 -1.01,0.55 -0.97,0.65 -0.92,0.71 -0.85,0.77 -0.81,0.84 -0.73,0.89 -0.66,0.95 -0.6,0.99 -0.52,1.04 -0.43,1.07 -0.36,1.09 -0.28,1.13 -0.18,1.14 -0.1,1.15 -0.01,1.16 0.06,1.16 0.16,1.14 0.68,3.88 0.33,1.93 0.31,1.94 0.31,1.95 0.31,1.93 0.27,1.93 0.26,1.92 0.24,1.93 0.21,1.91 0.2,1.92 0.09,0.92 0.06,0.94 0.07,0.93 0.06,0.93 0.06,0.93 0.04,0.92 0.04,0.91 0.02,0.9 0.02,0.9 0.01,0.9 -0.01,0.89 -0.01,0.88 -0.02,0.87 -0.04,0.86 -0.04,0.85 -0.05,0.85 -0.07,0.84 -0.08,0.82 -0.08,0.82 -0.08,0.8 -0.11,0.8 -0.12,0.78 -0.13,0.78 -0.14,0.77 -0.15,0.75 -0.17,0.74 -0.18,0.73 -0.17,0.72 -0.2,0.71 -0.2,0.7 -0.23,0.69 -0.22,0.68 -0.25,0.65 -0.25,0.65 -0.27,0.65 -0.28,0.63 -0.29,0.63 -0.29,0.61 -0.32,0.6 -0.33,0.6 -0.34,0.59 -0.35,0.57 -0.18,0.28 -0.18,0.26 -0.17,0.24 -0.17,0.21 -0.15,0.19 -0.15,0.18 -0.14,0.15 -0.13,0.14 -0.13,0.12 -0.12,0.1 -0.1,0.1 -0.1,0.09 -0.1,0.07 -0.1,0.06 -0.07,0.06 -0.08,0.05 -0.08,0.05 -0.08,0.04 -0.07,0.04 -0.08,0.03 -0.08,0.04 -0.07,0.03 -0.09,0.03 -0.09,0.02 -0.1,0.03 -0.09,0.03 -0.11,0.02 -0.12,0.03 -0.12,0.02 -0.14,0.01 -0.16,0.02 -0.15,0.02 -0.18,0.01 -0.18,0.01 h -0.21 -0.2 l -0.23,-0.01 -0.23,-0.03 -0.25,-0.02 -0.25,-0.02 -0.29,-0.03 -0.28,-0.05 -0.29,-0.05 -0.3,-0.05 -0.33,-0.07 -0.32,-0.07 -0.34,-0.09 -0.36,-0.1 -0.35,-0.09 -0.36,-0.11 -0.39,-0.12 -0.39,-0.12 -0.38,-0.15 -0.4,-0.15 -0.41,-0.15 -0.42,-0.16 -0.42,-0.17 -0.41,-0.18 -0.43,-0.2 -0.4,-0.18 -0.93,-0.44 -0.89,-0.45 -0.92,-0.49 -0.92,-0.52 -0.93,-0.55 -0.94,-0.57 -0.93,-0.59 -0.94,-0.62 -0.94,-0.65 -0.94,-0.65 -0.92,-0.68 -0.93,-0.7 -0.91,-0.7 -0.9,-0.72 -0.89,-0.74 -0.86,-0.73 -0.86,-0.74 -0.84,-0.75 -0.82,-0.75 -0.8,-0.74 -0.77,-0.74 -0.75,-0.73 -0.72,-0.73 -0.69,-0.73 -0.66,-0.7 -0.62,-0.69 -0.6,-0.67 -0.56,-0.64 -0.51,-0.61 -0.47,-0.6 -0.44,-0.54 -0.39,-0.52 -0.34,-0.47 -0.32,-0.46 -0.52,-0.8 -0.56,-0.85 -0.55,-0.85 -0.54,-0.86 -0.53,-0.87 -0.52,-0.87 -0.52,-0.88 -0.52,-0.88 -0.48,-0.89 -0.5,-0.89 -0.48,-0.91 -0.49,-0.91 -0.47,-0.91 -0.45,-0.91 -0.46,-0.93 -0.45,-0.92 -0.43,-0.94 -0.44,-0.93 -0.42,-0.95 -0.42,-0.94 -0.41,-0.96 -0.41,-0.95 -0.38,-0.97 -0.39,-0.97 -0.39,-0.97 -0.37,-0.98 -0.36,-0.98 -0.37,-0.99 -0.34,-1 -0.34,-0.98 -0.34,-1.01 -0.33,-1.01 -0.32,-1 -0.31,-1.02 -0.31,-1.02 -0.31,-1.01 -0.28,-1.02 -0.28,-1.04 -0.29,-1.03 -0.27,-1.03 -0.26,-1.04 -0.26,-1.04 -0.24,-1.05 -0.26,-1.05 -0.23,-1.05 -0.22,-1.06 -0.22,-1.06 -0.21,-1.07 -0.21,-1.06 -0.2,-1.04 -0.38,-2.18 -0.36,-2.15 -0.32,-2.17 -0.29,-2.17 -0.28,-2.19 -0.23,-2.19 -0.21,-2.19 -0.2,-2.21 -0.16,-2.22 -0.14,-2.21 -0.11,-2.23 -0.09,-2.22 -0.05,-2.22 -0.03,-2.24 -0.01,-2.22 0.02,-2.24 0.03,-2.23 0.08,-2.24 0.09,-2.22 0.12,-2.23 0.12,-2.23 0.16,-2.22 0.19,-2.23 0.21,-2.21 0.22,-2.2 0.27,-2.21 0.26,-2.2 0.3,-2.19 0.32,-2.16 0.34,-2.19 0.36,-2.16 0.38,-2.15 0.4,-2.13 0.42,-2.13 0.44,-2.12 0.46,-2.1 0.48,-2.09 0.5,-2.07 0.51,-2.06 0.19,-0.7 0.18,-0.69 0.2,-0.69 0.21,-0.68 0.2,-0.67 0.21,-0.66 0.22,-0.66 0.21,-0.65 0.23,-0.64 0.23,-0.63 0.24,-0.61 0.24,-0.61 0.25,-0.61 0.24,-0.59 0.26,-0.6 0.26,-0.58 0.25,-0.56 0.28,-0.56 0.26,-0.56 0.28,-0.54 0.29,-0.54 0.27,-0.52 0.29,-0.52 0.29,-0.51 0.29,-0.5 0.29,-0.49 0.3,-0.48 0.31,-0.48 0.3,-0.47 0.3,-0.45 0.31,-0.45 0.32,-0.44 0.32,-0.43 0.31,-0.42 0.32,-0.42 0.33,-0.4 0.32,-0.4 0.33,-0.38 0.33,-0.38 0.32,-0.38 0.34,-0.35 0.34,-0.35 0.34,-0.34 0.33,-0.34 0.34,-0.32 0.34,-0.33 0.34,-0.31 0.35,-0.3 0.34,-0.29 0.35,-0.28 0.34,-0.28 0.35,-0.26 0.36,-0.27 0.34,-0.25 0.35,-0.24 0.36,-0.23 0.35,-0.24 0.35,-0.22 0.37,-0.21 0.35,-0.21 0.35,-0.2 0.35,-0.19 0.37,-0.18 0.36,-0.18 0.37,-0.17 0.36,-0.16 0.36,-0.16 0.37,-0.15 0.36,-0.14 0.38,-0.14 0.36,-0.13 0.38,-0.12 0.37,-0.12 0.39,-0.11 0.38,-0.09 0.38,-0.09 0.38,-0.09 0.39,-0.09 0.4,-0.07 0.38,-0.07 0.4,-0.06 0.4,-0.05 0.4,-0.06 0.4,-0.04 0.42,-0.04 0.41,-0.02 0.42,-0.02 0.42,-0.01 0.43,-0.01 h 0.43 l 0.44,0.01 0.44,0.03 0.44,0.01 0.45,0.04 0.45,0.04 0.47,0.05 0.46,0.06 0.46,0.06 0.48,0.08 0.47,0.08 0.5,0.1 0.48,0.09 0.5,0.12 0.5,0.12 0.5,0.14 0.52,0.14 0.52,0.16 0.52,0.16 0.53,0.17 0.54,0.18 0.54,0.19 0.54,0.22 0.55,0.21 0.56,0.22 0.56,0.25 0.57,0.25 0.58,0.27 0.58,0.28 0.58,0.28 0.57,0.3 0.61,0.32 0.6,0.32 0.6,0.35 0.61,0.35 0.62,0.37 0.61,0.37 0.62,0.4 0.71,0.45 0.99,0.6 1.03,0.52 1.07,0.44 1.1,0.36 1.13,0.26 1.14,0.19 1.16,0.11 1.14,0.02 1.17,-0.07 1.14,-0.17 1.13,-0.23 1.11,-0.32 1.09,-0.41 1.05,-0.48 1.01,-0.57 0.97,-0.63 0.91,-0.71 0.86,-0.78 0.79,-0.83 0.75,-0.9 0.66,-0.94 0.6,-1 0.5,-1.03 0.44,-1.08 0.36,-1.09 0.28,-1.13 0.18,-1.14 0.11,-1.15 0.01,-1.16 -0.06,-1.15 -0.16,-1.15 -0.24,-1.13 -0.32,-1.11 -0.41,-1.09 -0.48,-1.04 -0.57,-1.01 -0.64,-0.97 -0.7,-0.91 -0.77,-0.86 -0.84,-0.8 -0.9,-0.74 -0.94,-0.66 -0.87,-0.56 -0.95,-0.6 -0.94,-0.58 -0.95,-0.57 -0.96,-0.55 -0.95,-0.54 -0.95,-0.52 -0.95,-0.51 -0.96,-0.49 -0.96,-0.48 -0.96,-0.46 -0.97,-0.44 -0.96,-0.43 -0.97,-0.42 -0.97,-0.4 -0.96,-0.37 -0.97,-0.37 -0.98,-0.35 -0.96,-0.33 -0.99,-0.33 -0.98,-0.3 -0.97,-0.29 -0.98,-0.27 -0.98,-0.25 -0.97,-0.24 -0.98,-0.22 -0.98,-0.21 -0.97,-0.18 -0.99,-0.17 -0.98,-0.16 -0.97,-0.15 -0.99,-0.11 -0.98,-0.11 -0.97,-0.09 -0.97,-0.07 -0.98,-0.05 -0.97,-0.05 -0.97,-0.02 h -0.99 l -0.96,0.01 -0.97,0.03 -0.95,0.05 -0.97,0.06 -0.95,0.08 -0.96,0.09 -0.94,0.12 -0.95,0.13 -0.95,0.15 -0.93,0.16 -0.93,0.18 -0.94,0.2 -0.93,0.21 -0.91,0.22 -0.93,0.25 -0.89,0.26 -0.9,0.28 -0.91,0.3 -0.89,0.3 -0.88,0.33 -0.89,0.34 -0.87,0.36 -0.86,0.36 -0.85,0.39 -0.85,0.39 -0.83,0.42 -0.84,0.42 -0.83,0.44 -0.82,0.47 -0.81,0.46 -0.81,0.48 -0.79,0.49 -0.78,0.52 -0.77,0.51 -0.77,0.54 -0.76,0.55 -0.75,0.56 -0.75,0.57 -0.72,0.58 -0.72,0.59 -0.72,0.61 -0.7,0.61 -0.7,0.64 -0.68,0.63 -0.69,0.66 -0.66,0.66 -0.66,0.67 -0.64,0.69 -0.65,0.68 -0.63,0.71 -0.62,0.71 -0.6,0.72 -0.61,0.73 -0.58,0.74 -0.6,0.75 -0.56,0.77 -0.56,0.76 -0.57,0.77 -0.54,0.8 -0.54,0.8 -0.53,0.79 -0.51,0.82 -0.5,0.82 -0.5,0.83 -0.49,0.84 -0.48,0.84 -0.47,0.86 -0.46,0.86 -0.46,0.86 -0.44,0.89 -0.44,0.88 -0.42,0.89 -0.42,0.9 -0.39,0.9 -0.4,0.92 -0.39,0.92 -0.37,0.93 -0.37,0.93 -0.35,0.95 -0.35,0.95 -0.33,0.96 -0.34,0.95 -0.32,0.98 -0.31,0.98 -0.3,0.98 -0.3,0.98 -0.28,1 -0.27,1.02 -0.27,0.99 -0.59,2.37 -0.57,2.38 -0.55,2.39 -0.52,2.4 -0.51,2.44 -0.49,2.42 -0.46,2.45 -0.43,2.46 -0.41,2.47 -0.38,2.48 -0.37,2.49 -0.34,2.49 -0.31,2.52 -0.29,2.52 -0.26,2.53 -0.24,2.54 -0.21,2.53 -0.19,2.56 -0.15,2.55 -0.13,2.56 -0.11,2.57 -0.07,2.57 -0.05,2.57 -0.02,2.57 0.01,2.58 0.04,2.58 0.06,2.59 0.1,2.58 0.13,2.58 0.15,2.58 0.2,2.58 0.22,2.59 0.25,2.58 0.29,2.57 0.31,2.58 0.36,2.56 0.37,2.57 0.42,2.56 0.46,2.53 0.23,1.3 0.24,1.27 0.26,1.28 0.27,1.27 0.27,1.27 0.29,1.27 0.29,1.26 0.3,1.26 0.32,1.25 0.31,1.27 0.33,1.25 0.33,1.25 0.35,1.25 0.36,1.26 0.37,1.24 0.37,1.24 0.38,1.25 0.39,1.24 0.41,1.23 0.41,1.22 0.43,1.24 0.43,1.22 0.44,1.22 0.45,1.22 0.47,1.21 0.47,1.21 0.48,1.21 0.49,1.21 0.51,1.19 0.52,1.21 0.52,1.19 0.53,1.18 0.55,1.18 0.56,1.18 0.55,1.17 0.58,1.17 0.59,1.17 0.59,1.16 0.62,1.15 0.62,1.15 0.63,1.15 0.64,1.14 0.65,1.13 0.66,1.13 0.67,1.13 0.7,1.11 0.69,1.11 0.71,1.11 0.72,1.1 0.76,1.14 0.65,0.94 0.7,0.97 0.74,0.98 0.76,0.98 0.8,0.98 0.82,0.98 0.86,0.99 0.89,1 0.91,1 0.94,1.01 0.97,1.01 1.01,1.01 1.02,1.01 1.07,1.02 1.08,1.01 1.1,1.01 1.15,1.02 1.16,1 1.18,1 1.21,1 1.23,0.98 1.26,0.98 1.28,0.97 1.31,0.95 1.32,0.94 1.35,0.93 1.37,0.9 1.4,0.88 1.41,0.87 1.43,0.84 1.46,0.82 1.49,0.79 1.5,0.76 1.5,0.71 0.8,0.38 0.79,0.34 0.78,0.34 0.79,0.32 0.8,0.32 0.8,0.3 0.81,0.3 0.81,0.29 0.83,0.27 0.84,0.27 0.84,0.24 0.83,0.24 0.86,0.23 0.86,0.21 0.88,0.19 0.87,0.19 0.89,0.16 0.88,0.15 0.91,0.14 0.9,0.11 0.92,0.1 0.92,0.08 0.94,0.05 0.94,0.04 0.93,0.02 0.95,-0.02" /><path
         id="path46"
         style="fill:#ffffff;fill-opacity:1;fill-rule:evenodd;stroke:none"
         d="m 2506.26,3367.17 1.16,-0.04 1.15,-0.05 1.17,-0.07 1.16,-0.1 1.16,-0.13 1.16,-0.14 1.16,-0.16 1.16,-0.19 1.16,-0.22 1.16,-0.23 1.15,-0.26 1.16,-0.28 1.15,-0.32 1.14,-0.33 0.99,-0.31 1.04,-0.36 1.01,-0.44 0.97,-0.52 0.94,-0.58 0.9,-0.65 0.84,-0.72 0.79,-0.76 0.74,-0.83 0.69,-0.87 0.6,-0.91 0.55,-0.97 0.48,-0.99 0.4,-1.02 0.33,-1.06 0.24,-1.08 0.19,-1.09 0.1,-1.1 0.01,-1.1 -0.06,-1.11 -0.14,-1.09 -0.21,-1.09 -0.31,-1.06 -0.36,-1.04 -0.44,-1.01 -0.51,-0.98 -0.59,-0.94 -0.64,-0.9 -0.71,-0.84 -0.77,-0.79 -0.82,-0.74 -0.88,-0.68 -0.92,-0.61 -0.96,-0.54 -0.99,-0.48 -1.03,-0.4 -1.05,-0.33 -1.07,-0.25 -1.11,-0.18 -1.09,-0.1 -1.1,-0.01 -1.11,0.06 -1.1,0.13 -1.08,0.22 -1.06,0.3 -0.67,0.21 -0.52,0.16 -0.53,0.13 -0.54,0.13 -0.53,0.12 -0.55,0.12 -0.55,0.1 -0.55,0.09 -0.57,0.08 -0.58,0.08 -0.56,0.05 -0.59,0.05 -0.58,0.03 -0.59,0.03 -0.61,0.02 h -0.6 -0.61 l -0.61,-0.02 -0.63,-0.02 -0.62,-0.04 -0.64,-0.04 -0.61,-0.06 -0.64,-0.07 -0.64,-0.08 -0.65,-0.1 -0.64,-0.1 -0.65,-0.11 -0.65,-0.13 -0.66,-0.13 -0.67,-0.14 -0.65,-0.17 -0.66,-0.16 -0.66,-0.18 -0.66,-0.19 -0.68,-0.2 -0.65,-0.21 -0.67,-0.23 -0.66,-0.22 -0.66,-0.25 -0.67,-0.25 -0.66,-0.27 -0.67,-0.27 -0.65,-0.29 -0.65,-0.29 -0.66,-0.3 -0.65,-0.31 -0.66,-0.32 -0.64,-0.33 -0.65,-0.35 -0.64,-0.34 -0.64,-0.37 -0.63,-0.36 -0.64,-0.38 -0.62,-0.38 -0.62,-0.39 -0.61,-0.41 -0.61,-0.41 -0.61,-0.41 -0.59,-0.43 -0.59,-0.43 -0.59,-0.45 -0.58,-0.44 -0.57,-0.46 -0.56,-0.46 -0.55,-0.46 -0.55,-0.48 -0.56,-0.48 -0.52,-0.48 -0.52,-0.49 -0.52,-0.5 -0.52,-0.51 -0.5,-0.5 -0.48,-0.52 -0.48,-0.52 -0.47,-0.52 -0.46,-0.52 -0.45,-0.54 -0.45,-0.53 -0.44,-0.53 -0.42,-0.55 -0.4,-0.55 -0.4,-0.55 -0.39,-0.55 -0.38,-0.54 -0.37,-0.57 -0.35,-0.55 -0.35,-0.56 -0.33,-0.56 -0.32,-0.57 -0.31,-0.56 -0.3,-0.57 -0.3,-0.56 -0.26,-0.56 -0.27,-0.57 -0.25,-0.58 -0.23,-0.56 -0.24,-0.57 -0.21,-0.56 -0.21,-0.58 -0.18,-0.56 -0.19,-0.57 -0.16,-0.57 -0.16,-0.56 -0.15,-0.57 -0.12,-0.56 -0.12,-0.57 -0.11,-0.55 -0.1,-0.58 -0.08,-0.55 -0.08,-0.57 -0.05,-0.56 -0.06,-0.56 -0.03,-0.56 -0.02,-0.57 -0.01,-0.56 v -0.56 l 0.01,-0.56 0.02,-0.56 0.04,-0.57 0.05,-0.57 0.06,-0.57 0.08,-0.56 0.08,-0.58 0.11,-0.58 0.12,-0.57 0.12,-0.58 0.14,-0.58 0.17,-0.57 0.16,-0.57 0.18,-0.55 0.2,-0.57 0.22,-0.56 0.23,-0.59 0.27,-0.58 0.27,-0.59 0.29,-0.61 0.32,-0.61 0.33,-0.62 0.35,-0.63 0.37,-0.63 0.38,-0.64 0.41,-0.64 0.42,-0.64 0.44,-0.66 0.45,-0.65 0.46,-0.66 0.49,-0.67 0.5,-0.66 0.5,-0.67 0.52,-0.67 0.54,-0.68 0.53,-0.66 1.14,-1.37 1.16,-1.37 1.18,-1.37 1.19,-1.36 0.8,-0.91 0.82,-0.89 0.83,-0.89 0.84,-0.9 0.86,-0.88 0.88,-0.9 0.89,-0.89 0.88,-0.88 1.86,-1.81 1.88,-1.82 1.91,-1.82 1.96,-1.84 1.97,-1.86 2.19,-2.07 2.35,-2.25 2.48,-2.41 1.3,-1.29 1.32,-1.31 1.36,-1.34 1.34,-1.38 1.39,-1.43 1.4,-1.46 1.39,-1.48 1.41,-1.51 1.43,-1.55 1.41,-1.58 1.41,-1.6 1.4,-1.63 1.4,-1.66 1.4,-1.69 1.36,-1.7 1.37,-1.74 1.33,-1.77 1.29,-1.74 0.66,-0.94 0.65,-0.91 0.62,-0.91 0.64,-0.92 0.61,-0.92 0.6,-0.93 0.6,-0.95 0.59,-0.94 0.59,-0.94 0.56,-0.97 0.56,-0.97 0.54,-0.96 0.53,-0.98 0.53,-0.99 0.51,-1 0.51,-1 0.46,-1.01 0.47,-1.02 0.46,-1.03 0.44,-1.03 0.42,-1.05 0.39,-1.05 0.39,-1.07 0.36,-1.07 0.37,-1.09 0.32,-1.09 0.29,-1.11 0.29,-1.12 0.27,-1.13 0.22,-1.14 0.21,-1.16 0.17,-1.16 0.15,-1.18 0.12,-1.19 0.07,-1.2 0.06,-1.21 0.01,-1.22 -0.03,-1.23 -0.06,-1.24 -0.1,-1.25 -0.15,-1.25 -0.19,-1.25 -0.24,-1.26 -0.29,-1.26 -0.33,-1.25 -0.37,-1.25 -0.43,-1.25 -0.48,-1.22 -0.53,-1.22 -0.58,-1.21 -0.61,-1.18 -0.68,-1.17 -0.71,-1.14 -0.76,-1.13 -0.79,-1.09 -0.84,-1.07 -0.89,-1.04 -0.92,-1.01 -0.95,-0.99 -1,-0.94 -1.03,-0.93 -1.05,-0.89 -1.09,-0.87 -1.12,-0.83 -1.15,-0.8 -1.18,-0.78 -1.2,-0.76 -1.24,-0.72 -1.26,-0.7 -1.31,-0.67 -1.32,-0.65 -1.34,-0.63 -1.37,-0.61 -1.41,-0.57 -1.45,-0.57 -1.46,-0.53 -1.64,-0.56 -1.64,-0.53 -1.65,-0.49 -1.65,-0.45 -1.65,-0.42 -1.67,-0.39 -1.65,-0.35 -1.65,-0.32 -1.65,-0.3 -1.66,-0.25 -1.66,-0.23 -1.64,-0.2 -1.64,-0.18 -1.63,-0.14 -1.65,-0.12 -1.51,-0.09 -1.1,-0.03 -1.1,0.06 -1.1,0.14 -1.09,0.2 -1.06,0.29 -1.04,0.36 -1.02,0.44 -0.98,0.51 -0.95,0.57 -0.88,0.64 -0.86,0.71 -0.8,0.76 -0.74,0.82 -0.68,0.87 -0.63,0.91 -0.54,0.96 -0.48,1 -0.41,1.02 -0.33,1.05 -0.26,1.08 -0.18,1.08 -0.11,1.11 -0.02,1.1 0.05,1.1 0.13,1.1 0.21,1.08 0.29,1.07 0.36,1.04 0.44,1.02 0.5,0.97 0.59,0.95 0.64,0.9 0.7,0.85 0.76,0.8 0.82,0.74 0.87,0.69 0.93,0.61 0.94,0.55 1,0.48 1.02,0.41 1.06,0.33 1.07,0.26 1.09,0.18 1.09,0.11 1.28,0.07 1.16,0.09 1.16,0.1 1.13,0.13 1.14,0.13 1.13,0.16 1.12,0.17 1.1,0.19 1.09,0.22 1.1,0.23 1.07,0.25 1.07,0.27 1.04,0.29 1.04,0.31 1.03,0.32 1.02,0.36 0.89,0.33 0.86,0.33 0.82,0.34 0.77,0.33 0.73,0.34 0.67,0.34 0.64,0.33 0.59,0.32 0.55,0.32 0.51,0.32 0.47,0.31 0.43,0.3 0.39,0.29 0.35,0.28 0.31,0.27 0.28,0.25 0.27,0.25 0.22,0.24 0.21,0.21 0.17,0.22 0.16,0.19 0.13,0.18 0.11,0.18 0.11,0.17 0.1,0.16 0.08,0.16 0.08,0.15 0.05,0.14 0.06,0.15 0.05,0.16 0.06,0.16 0.04,0.17 0.03,0.16 0.05,0.2 0.03,0.19 0.02,0.22 0.03,0.22 0.01,0.25 v 0.27 0.27 l -0.01,0.31 -0.03,0.33 -0.03,0.33 -0.04,0.37 -0.07,0.38 -0.07,0.39 -0.08,0.42 -0.09,0.43 -0.12,0.46 -0.14,0.46 -0.14,0.5 -0.15,0.5 -0.19,0.52 -0.19,0.52 -0.21,0.56 -0.22,0.55 -0.25,0.57 -0.25,0.58 -0.27,0.59 -0.3,0.62 -0.3,0.6 -0.31,0.62 -0.34,0.63 -0.35,0.64 -0.36,0.66 -0.38,0.64 -0.38,0.66 -0.41,0.66 -0.42,0.68 -0.43,0.67 -0.44,0.68 -0.45,0.69 -0.48,0.67 -0.46,0.7 -0.49,0.69 -0.48,0.67 -1.05,1.42 -1.06,1.4 -1.09,1.39 -1.14,1.4 -1.14,1.4 -1.17,1.4 -1.19,1.38 -1.22,1.38 -1.21,1.35 -1.24,1.36 -1.23,1.33 -1.25,1.31 -1.24,1.29 -1.24,1.28 -1.23,1.25 -1.21,1.21 -1.22,1.21 -1.17,1.16 -2.34,2.26 -2.21,2.12 -2.1,1.98 -1.95,1.85 -2.01,1.89 -2.02,1.93 -2.06,1.97 -2.02,2 -1.05,1.04 -1.04,1.03 -1.03,1.06 -1.03,1.07 -1.02,1.08 -1.03,1.11 -1.03,1.12 -0.99,1.11 -1.37,1.55 -1.38,1.59 -1.38,1.65 -1.38,1.68 -0.72,0.9 -0.71,0.88 -0.7,0.91 -0.7,0.92 -0.69,0.94 -0.71,0.96 -0.68,0.96 -0.68,1 -0.68,1 -0.66,1.03 -0.66,1.04 -0.64,1.06 -0.65,1.09 -0.61,1.1 -0.6,1.13 -0.59,1.16 -0.57,1.16 -0.56,1.2 -0.52,1.21 -0.51,1.23 -0.49,1.27 -0.46,1.29 -0.42,1.3 -0.39,1.32 -0.35,1.26 -0.31,1.25 -0.28,1.25 -0.26,1.25 -0.21,1.25 -0.19,1.26 -0.18,1.25 -0.13,1.25 -0.11,1.25 -0.09,1.24 -0.06,1.25 -0.02,1.23 v 1.24 l 0.02,1.22 0.06,1.23 0.08,1.22 0.11,1.21 0.12,1.21 0.15,1.2 0.19,1.2 0.2,1.17 0.23,1.19 0.24,1.17 0.27,1.16 0.29,1.15 0.32,1.15 0.34,1.14 0.35,1.13 0.38,1.11 0.39,1.11 0.42,1.1 0.44,1.09 0.45,1.08 0.48,1.06 0.49,1.06 0.51,1.04 0.52,1.05 0.55,1.03 0.56,1.01 0.56,1.01 0.6,0.99 0.62,0.98 0.61,0.98 0.64,0.96 0.64,0.95 0.67,0.95 0.69,0.93 0.68,0.92 0.71,0.9 0.73,0.9 0.73,0.88 0.73,0.88 0.75,0.87 0.78,0.84 0.78,0.84 0.79,0.83 0.81,0.81 0.81,0.81 0.82,0.8 0.84,0.78 0.85,0.78 0.86,0.75 0.86,0.75 0.88,0.74 0.87,0.72 0.89,0.71 0.92,0.7 0.92,0.68 0.91,0.68 0.93,0.67 0.95,0.64 0.94,0.63 0.96,0.63 0.95,0.61 0.98,0.6 0.98,0.59 0.99,0.57 0.99,0.56 1.01,0.55 1.01,0.54 1.01,0.51 1.02,0.5 1.03,0.5 1.03,0.49 1.04,0.46 1.05,0.45 1.06,0.43 1.06,0.43 1.07,0.39 1.06,0.4 1.08,0.38 1.09,0.36 1.08,0.35 1.09,0.32 1.1,0.32 1.1,0.29 1.11,0.29 1.1,0.26 1.12,0.25 1.12,0.23 1.13,0.22 1.12,0.19 1.14,0.18 1.13,0.16 1.14,0.14 1.14,0.13 1.15,0.11 1.14,0.09 1.15,0.06 1.14,0.05 1.17,0.03 1.15,0.01 1.16,-0.01" /><path
         id="path48"
         style="fill:#ffffff;fill-opacity:1;fill-rule:evenodd;stroke:none"
         d="m 2625.37,3353.05 1.1,-0.03 1.09,-0.05 1.09,-0.06 1.11,-0.09 1.09,-0.09 1.09,-0.12 1.1,-0.14 1.09,-0.16 1.1,-0.18 1.1,-0.18 1.08,-0.22 1.1,-0.24 1.08,-0.24 1.08,-0.27 1.09,-0.3 1.09,-0.32 1.08,-0.32 1.07,-0.35 1.05,-0.38 1.09,-0.4 1.04,-0.4 1.06,-0.44 1.05,-0.46 1.05,-0.48 1.03,-0.49 1.04,-0.52 1.01,-0.55 1.03,-0.55 0.87,-0.52 0.92,-0.57 0.88,-0.64 0.81,-0.69 0.78,-0.75 0.72,-0.81 0.66,-0.86 0.6,-0.89 0.54,-0.93 0.48,-0.98 0.39,-1 0.33,-1.03 0.26,-1.05 0.18,-1.06 0.12,-1.08 0.03,-1.08 -0.05,-1.08 -0.11,-1.07 -0.18,-1.06 -0.27,-1.05 -0.33,-1.02 -0.41,-1 -0.47,-0.97 -0.55,-0.94 -0.6,-0.89 -0.67,-0.85 -0.73,-0.8 -0.77,-0.76 -0.84,-0.68 -0.87,-0.64 -0.92,-0.56 -0.95,-0.51 -0.99,-0.43 -1.02,-0.38 -1.03,-0.28 -1.07,-0.23 -1.06,-0.14 -1.09,-0.08 h -1.07 l -1.08,0.08 -1.07,0.16 -1.05,0.23 -1.04,0.3 -1.01,0.36 -0.99,0.45 -0.95,0.51 -0.6,0.35 -0.49,0.27 -0.49,0.26 -0.5,0.26 -0.51,0.23 -0.49,0.24 -0.52,0.22 -0.52,0.21 -0.52,0.2 -0.52,0.2 -0.54,0.18 -0.54,0.18 -0.54,0.16 -0.55,0.17 -0.55,0.15 -0.55,0.13 -0.57,0.13 -0.56,0.12 -0.57,0.12 -0.56,0.1 -0.59,0.09 -0.57,0.08 -0.59,0.07 -0.59,0.07 -0.59,0.05 -0.59,0.04 -0.59,0.04 -0.59,0.03 -0.6,0.01 -0.6,0.01 h -0.61 l -0.6,-0.01 -0.6,-0.03 -0.6,-0.03 -0.61,-0.04 -0.6,-0.05 -0.61,-0.07 -0.59,-0.06 -0.62,-0.08 -0.61,-0.09 -0.59,-0.1 -0.61,-0.1 -0.59,-0.11 -0.6,-0.14 -0.58,-0.12 -0.61,-0.15 -0.58,-0.15 -0.59,-0.16 -0.58,-0.17 -0.58,-0.17 -0.58,-0.19 -0.57,-0.19 -0.57,-0.21 -0.56,-0.21 -0.56,-0.22 -0.55,-0.22 -0.56,-0.24 -0.54,-0.24 -0.53,-0.24 -0.52,-0.26 -0.53,-0.27 -0.52,-0.26 -0.51,-0.29 -0.51,-0.28 -0.49,-0.29 -0.49,-0.3 -0.48,-0.3 -0.47,-0.31 -0.46,-0.32 -0.46,-0.31 -0.44,-0.34 -0.44,-0.33 -0.45,-0.33 -0.42,-0.35 -0.4,-0.34 -0.41,-0.35 -0.4,-0.36 -0.38,-0.36 -0.38,-0.37 -0.36,-0.37 -0.37,-0.37 -0.34,-0.38 -0.34,-0.38 -0.32,-0.38 -0.32,-0.4 -0.31,-0.38 -0.3,-0.4 -0.28,-0.4 -0.29,-0.39 -0.26,-0.41 -0.26,-0.4 -0.25,-0.41 -0.23,-0.42 -0.23,-0.41 -0.23,-0.41 -0.2,-0.43 -0.2,-0.43 -0.2,-0.43 -0.17,-0.43 -0.17,-0.43 -0.16,-0.43 -0.15,-0.46 -0.15,-0.44 -0.13,-0.45 -0.12,-0.46 -0.12,-0.46 -0.1,-0.46 -0.09,-0.48 -0.08,-0.47 -0.07,-0.48 -0.07,-0.5 -0.05,-0.49 -0.04,-0.51 -0.03,-0.51 -0.01,-0.52 v -0.53 -0.53 l 0.01,-0.55 0.03,-0.55 0.05,-0.57 0.05,-0.56 0.08,-0.6 0.09,-0.59 0.1,-0.6 0.11,-0.62 0.13,-0.63 0.15,-0.63 0.16,-0.67 0.09,-0.31 0.1,-0.32 0.09,-0.32 0.1,-0.33 0.11,-0.33 0.13,-0.32 0.12,-0.32 0.13,-0.34 0.13,-0.32 0.13,-0.33 0.16,-0.33 0.13,-0.28 0.35,-0.72 0.35,-0.67 0.37,-0.68 0.4,-0.68 0.43,-0.7 0.45,-0.69 0.47,-0.7 0.51,-0.7 0.52,-0.71 0.54,-0.73 0.57,-0.71 0.59,-0.72 0.61,-0.72 0.63,-0.74 0.65,-0.72 0.67,-0.73 0.69,-0.75 0.71,-0.73 0.71,-0.74 0.74,-0.75 0.74,-0.74 0.75,-0.73 1.57,-1.52 1.55,-1.49 0.63,-0.57 0.61,-0.57 0.64,-0.56 0.65,-0.57 0.67,-0.58 0.68,-0.56 0.7,-0.59 0.69,-0.55 1.5,-1.2 1.54,-1.18 1.58,-1.2 1.62,-1.21 1.68,-1.22 1.7,-1.25 3.51,-2.54 1.79,-1.3 1.82,-1.33 1.83,-1.36 1.86,-1.39 1.84,-1.43 1.84,-1.45 0.95,-0.76 0.91,-0.76 0.93,-0.76 0.93,-0.79 0.92,-0.79 0.93,-0.81 0.9,-0.82 0.92,-0.83 0.9,-0.86 0.91,-0.86 0.89,-0.88 0.88,-0.9 0.87,-0.92 0.87,-0.93 0.86,-0.95 0.86,-0.97 0.84,-1 0.83,-1.01 0.82,-1.02 0.79,-1.06 0.79,-1.07 0.78,-1.1 0.74,-1.12 0.73,-1.14 0.72,-1.16 0.69,-1.19 0.67,-1.2 0.65,-1.23 0.54,-1.1 0.53,-1.1 0.49,-1.1 0.48,-1.11 0.45,-1.12 0.43,-1.11 0.4,-1.11 0.37,-1.12 0.35,-1.13 0.32,-1.12 0.31,-1.13 0.29,-1.13 0.24,-1.13 0.24,-1.13 0.2,-1.13 0.19,-1.12 0.14,-1.13 0.15,-1.13 0.11,-1.12 0.08,-1.12 0.06,-1.12 0.05,-1.12 0.01,-1.12 -0.01,-1.11 -0.04,-1.1 -0.04,-1.11 -0.07,-1.09 -0.11,-1.09 -0.12,-1.08 -0.14,-1.09 -0.16,-1.07 -0.18,-1.06 -0.2,-1.07 -0.23,-1.05 -0.25,-1.06 -0.26,-1.02 -0.29,-1.04 -0.3,-1.03 -0.32,-1.01 -0.35,-1 -0.35,-1 -0.39,-0.98 -0.4,-0.98 -0.4,-0.97 -0.43,-0.97 -0.46,-0.94 -0.46,-0.94 -0.46,-0.93 -0.5,-0.92 -0.52,-0.91 -0.53,-0.89 -0.53,-0.89 -0.56,-0.88 -0.57,-0.86 -0.59,-0.86 -0.6,-0.85 -0.61,-0.83 -0.63,-0.81 -0.64,-0.82 -0.65,-0.8 -0.66,-0.78 -0.69,-0.78 -0.69,-0.76 -0.69,-0.75 -0.73,-0.75 -0.73,-0.73 -0.73,-0.72 -0.75,-0.7 -0.76,-0.69 -0.78,-0.68 -0.78,-0.67 -0.79,-0.65 -0.8,-0.65 -0.82,-0.63 -0.82,-0.62 -0.83,-0.6 -0.85,-0.6 -0.85,-0.58 -0.87,-0.55 -0.87,-0.57 -0.88,-0.53 -0.89,-0.53 -0.89,-0.51 -0.91,-0.5 -0.92,-0.48 -0.93,-0.47 -0.92,-0.46 -0.95,-0.45 -0.95,-0.43 -0.96,-0.41 -0.96,-0.39 -0.97,-0.39 -0.98,-0.36 -0.98,-0.36 -1,-0.34 -1,-0.32 -1,-0.32 -1.03,-0.29 -1,-0.28 -1.04,-0.25 -1.02,-0.25 -1.04,-0.23 -1.04,-0.21 -1.05,-0.2 -1.05,-0.17 -1.06,-0.16 -1.06,-0.15 -1.08,-0.12 -1.07,-0.1 -1.07,-0.1 -1.08,-0.06 -1.08,-0.06 -1.09,-0.03 -1.09,-0.02 h -1.1 l -1.1,0.02 -1.09,0.04 -1.09,0.06 -1.12,0.08 -1.1,0.1 -1.1,0.13 -1.11,0.14 -1.11,0.14 -1.1,0.19 -1.11,0.21 -1.12,0.22 -1.11,0.24 -0.96,0.23 -1.05,0.28 -1.01,0.37 -1,0.43 -0.95,0.49 -0.92,0.56 -0.88,0.62 -0.84,0.69 -0.78,0.74 -0.74,0.79 -0.67,0.85 -0.61,0.89 -0.55,0.93 -0.49,0.97 -0.42,0.98 -0.34,1.04 -0.27,1.04 -0.2,1.06 -0.12,1.08 -0.06,1.07 0.03,1.07 0.1,1.09 0.18,1.06 0.25,1.06 0.32,1.02 0.39,1.01 0.47,0.97 0.53,0.94 0.59,0.9 0.66,0.86 0.72,0.82 0.76,0.75 0.81,0.71 0.87,0.64 0.92,0.58 0.95,0.52 0.98,0.45 1,0.37 1.05,0.32 1.05,0.23 1.07,0.16 1.07,0.09 1.08,0.01 1.08,-0.06 1.07,-0.14 1.06,-0.22 0.69,-0.16 0.56,-0.12 0.57,-0.11 0.56,-0.1 0.56,-0.1 0.55,-0.07 0.56,-0.08 0.57,-0.06 0.55,-0.04 0.56,-0.05 0.56,-0.03 0.55,-0.02 0.57,-0.01 h 0.56 l 0.55,0.01 0.56,0.02 0.56,0.02 0.55,0.03 0.56,0.05 0.55,0.06 0.55,0.06 0.55,0.08 0.55,0.09 0.54,0.08 0.56,0.11 0.55,0.11 0.53,0.11 0.55,0.14 0.54,0.13 0.53,0.14 0.53,0.16 0.54,0.17 0.53,0.17 0.51,0.18 0.53,0.18 0.52,0.2 0.52,0.2 0.51,0.21 0.52,0.23 0.5,0.23 0.5,0.23 0.51,0.25 0.47,0.25 0.5,0.25 0.48,0.27 0.49,0.27 0.47,0.28 0.46,0.29 0.47,0.29 0.45,0.3 0.45,0.32 0.45,0.3 0.45,0.32 0.43,0.33 0.43,0.33 0.41,0.34 0.42,0.34 0.41,0.36 0.4,0.35 0.4,0.35 0.38,0.37 0.39,0.37 0.36,0.37 0.38,0.38 0.35,0.38 0.35,0.39 0.34,0.38 0.34,0.41 0.32,0.39 0.33,0.4 0.29,0.4 0.3,0.41 0.3,0.41 0.29,0.42 0.27,0.42 0.27,0.42 0.25,0.42 0.25,0.43 0.25,0.41 0.22,0.44 0.23,0.42 0.21,0.45 0.21,0.43 0.18,0.44 0.2,0.44 0.17,0.44 0.17,0.44 0.17,0.44 0.14,0.44 0.15,0.45 0.13,0.44 0.12,0.45 0.12,0.45 0.1,0.46 0.1,0.44 0.09,0.46 0.08,0.45 0.06,0.46 0.07,0.46 0.04,0.46 0.05,0.46 0.02,0.46 0.02,0.47 0.02,0.46 v 0.48 l -0.01,0.47 -0.01,0.47 -0.02,0.48 -0.04,0.48 -0.05,0.48 -0.06,0.49 -0.06,0.49 -0.09,0.49 -0.09,0.5 -0.1,0.5 -0.11,0.51 -0.13,0.5 -0.13,0.52 -0.16,0.52 -0.16,0.52 -0.18,0.52 -0.2,0.54 -0.2,0.54 -0.22,0.54 -0.23,0.55 -0.25,0.54 -0.25,0.56 -0.28,0.55 -0.33,0.62 -0.33,0.59 -0.35,0.61 -0.37,0.59 -0.37,0.6 -0.41,0.6 -0.41,0.59 -0.44,0.59 -0.45,0.6 -0.48,0.59 -0.49,0.61 -0.5,0.59 -0.52,0.6 -0.55,0.6 -0.56,0.59 -0.56,0.6 -0.6,0.61 -0.61,0.6 -0.62,0.59 -0.64,0.61 -0.67,0.6 -0.66,0.6 -0.68,0.6 -0.71,0.6 -0.71,0.61 -0.72,0.6 -0.75,0.61 -0.73,0.59 -1.56,1.24 -1.59,1.21 -1.62,1.23 -1.67,1.23 -1.7,1.25 -1.72,1.25 -3.51,2.54 -1.78,1.3 -1.81,1.32 -1.81,1.35 -1.81,1.37 -1.82,1.4 -1.78,1.41 -0.93,0.76 -0.89,0.74 -0.89,0.75 -0.91,0.77 -0.89,0.77 -0.88,0.8 -0.89,0.8 -0.86,0.8 -1.74,1.68 -1.76,1.7 -0.92,0.88 -0.9,0.91 -0.91,0.93 -0.9,0.93 -0.92,0.96 -0.91,0.98 -0.92,1 -0.91,1.02 -0.91,1.04 -0.89,1.07 -0.89,1.09 -0.89,1.12 -0.88,1.14 -0.86,1.18 -0.85,1.2 -0.82,1.22 -0.82,1.26 -0.79,1.29 -0.78,1.32 -0.74,1.35 -0.72,1.38 -0.66,1.37 -0.36,0.76 -0.32,0.73 -0.33,0.74 -0.3,0.75 -0.29,0.75 -0.3,0.76 -0.27,0.77 -0.26,0.78 -0.27,0.78 -0.24,0.81 -0.23,0.79 -0.22,0.83 -0.32,1.25 -0.3,1.26 -0.25,1.26 -0.23,1.26 -0.22,1.26 -0.18,1.25 -0.15,1.25 -0.13,1.25 -0.09,1.24 -0.07,1.25 -0.03,1.23 -0.03,1.23 0.03,1.22 0.04,1.21 0.06,1.22 0.09,1.2 0.14,1.21 0.15,1.18 0.17,1.18 0.21,1.17 0.22,1.18 0.26,1.14 0.28,1.14 0.29,1.13 0.33,1.12 0.36,1.11 0.37,1.1 0.4,1.08 0.42,1.08 0.44,1.05 0.45,1.05 0.49,1.03 0.51,1.02 0.52,0.99 0.56,1.01 0.55,0.96 0.59,0.97 0.6,0.95 0.62,0.92 0.62,0.91 0.67,0.9 0.66,0.88 0.69,0.87 0.7,0.86 0.7,0.84 0.73,0.82 0.75,0.8 0.76,0.8 0.77,0.77 0.78,0.77 0.79,0.74 0.82,0.72 0.81,0.73 0.83,0.7 0.84,0.67 0.86,0.67 0.86,0.65 0.87,0.64 0.89,0.62 0.89,0.6 0.91,0.59 0.9,0.58 0.92,0.56 0.94,0.55 0.93,0.53 0.94,0.51 0.95,0.5 0.97,0.48 0.97,0.47 0.97,0.45 0.98,0.44 0.98,0.42 1,0.41 1.01,0.39 0.99,0.38 1.03,0.36 1,0.34 1.04,0.33 1.01,0.32 1.05,0.29 1.03,0.29 1.05,0.27 1.04,0.25 1.06,0.24 1.06,0.22 1.06,0.2 1.06,0.19 1.08,0.17 1.06,0.16 1.08,0.14 1.08,0.12 1.07,0.11 1.09,0.1 1.08,0.06 1.09,0.07 1.08,0.03 1.09,0.03 h 1.09 l 1.1,-0.01" /><path
         id="path50"
         style="fill:#42399b;fill-opacity:1;fill-rule:evenodd;stroke:none"
         d="m 1772.36,1939.59 c 0,0 -123.44,-38.02 -140.3,-200.89 -49.09,-474.23 -31.26,-699.7 -84.51,-793.821 -11.19,-19.809 -518.44,52.48 -523.8,38.43 -15.05,-39.399 -113.418,-202.118 -95.02,-207.411 57.774,-16.589 734.22,-202.91 878.72,-66.187 133.07,125.848 114.68,376.849 84.5,508.749 -38.36,167.66 72.55,711.1 -119.59,721.13" /><path
         id="path52"
         style="fill:#4c42a2;fill-opacity:1;fill-rule:nonzero;stroke:none"
         d="M 2717.83,683.559 C 2589.15,1110.97 2208.31,2038.73 2208.31,2038.73 l -207.84,27.59 c -26.13,20.12 -287.67,-184.84 -287.67,-184.84 0,0 -22.15,-124.41 -43.3,-248.34 -19.35,-113.4 -129.65,-231.13 -119.26,-291.45 24.12,-139.87 196.29,-173.58 196.29,-173.58 30.51,-246.231 54.2,-393.43 87.4,-519.551" /><path
         id="path54"
         style="fill:#42399b;fill-opacity:1;fill-rule:evenodd;stroke:none"
         d="m 2184.38,2036.63 c 0,0 -64.08,-141.99 -32.45,-348.6 13.48,-87.97 116.85,-445.03 141.25,-531 52.92,-186.108 -34.5,-189.87 -219.35,-191.05 -26.13,-0.179 -217.59,19.77 -221.45,3.551 -10.79,-45.511 -49.6,-260.5 21.5,-276.242 86.86,-19.23 539.94,-75.078 670.98,93.992 120.68,155.641 73.7,431.579 28.24,574.089 -57.81,181.15 -192.84,687.48 -388.72,675.26" /><path
         id="path56"
         style="fill:#393088;fill-opacity:1;fill-rule:evenodd;stroke:none"
         d="m 1855.95,977.039 c 26.29,0.332 51.68,-62.777 56.71,-140.988 5.04,-78.231 -12.19,-141.91 -38.48,-142.242 -26.29,-0.348 -51.67,62.781 -56.71,141 -5.03,78.211 12.2,141.902 38.48,142.23" /><path
         id="path58"
         style="fill:#d894d0;fill-opacity:1;fill-rule:evenodd;stroke:none"
         d="m 1904.01,857.051 c 0,0 -104.63,24.551 -187.89,74 -25.55,15.168 -21.83,-15.68 -19.44,-19.11 12.46,-17.941 68.25,-56.902 63,-59.359 -11.02,-5.152 -134.84,27.617 -176.22,44.09 -4.18,1.648 -48.39,21.148 -51.1,14.719 -6.38,-14.969 15.93,-27.59 26.37,-33.301 35.42,-19.34 152.08,-60.93 145.95,-59.629 -11.04,2.371 -106.47,18.469 -142.59,26.238 -2.35,0.5 -53.4,11.52 -55.17,4.949 -3.57,-13.367 34.3,-26.449 43.28,-28.91 35.33,-9.738 130.95,-37.488 143.04,-41.136 5.03,-1.5 -37.12,0.757 -48.85,1.539 -36.3,2.437 -72.38,10.789 -108.69,12.031 -7.11,0.238 -31.28,3.199 -33.23,-8.57 -1.27,-7.692 16.52,-14.762 21.42,-16.543 30.53,-11.11 249.11,-43.329 312.76,-32.559 24.5,4.141 63.99,-9.051 63.99,-9.051 0,0 47.6,91.692 3.37,130.602" /><path
         id="path60"
         style="fill:#393086;fill-opacity:1;fill-rule:nonzero;stroke:none"
         d="m 1618.19,2961.71 c 0,0 -158.03,30 -233.3,-68.57 -75.27,-98.56 -58.13,-231.43 -173.84,-278.56 -115.72,-47.15 -154.79,-271.91 -43.11,-339.53 111.68,-67.62 -23.61,-191.91 -23.61,-191.91 0,0 -100.93,-98.57 23.61,-222.86 0,0 90.79,-56.65 216.95,-92.6 0,0 -90.71,88.45 -63.7,199.81 0,0 9.71,-185.28 181.21,-199.81 171.51,-14.54 283.44,105.46 283.44,105.46 l 501.25,122.04 c 0,0 291.86,76.02 292.21,278.39 0.34,202.38 -196.23,178.14 -233.67,323.86 -37.44,145.71 -46.66,288.93 -209.19,335.18 -162.53,46.25 -359.68,217.68 -518.25,29.1" /><path
         id="path62"
         style="fill:#c470bf;fill-opacity:1;fill-rule:nonzero;stroke:none"
         d="m 1998.48,2056.88 -14.41,386.78 c -38.85,82.63 -266.27,87.02 -342.25,46.47 -70.35,-37.54 -106.67,-126.69 -85.64,-210.15 l 187.86,-480.9 c 27.35,-97.63 147.2,-70.74 192.85,-8.85 117.51,159.26 67.91,256.38 61.59,266.65" /><path
         id="path64"
         style="fill:#d894d0;fill-opacity:1;fill-rule:nonzero;stroke:none"
         d="m 1448.58,2252.52 -35.35,154.87 c 0,0 -68.63,31.74 -88.84,-42.92 -20.19,-74.69 59.08,-134.01 124.19,-111.95" /><path
         id="path66"
         style="fill:#d894d0;fill-opacity:1;fill-rule:nonzero;stroke:none"
         d="m 1366.7,2450.68 c 42.07,-294.62 76.69,-489.28 288.11,-483.04 211.43,6.26 480.53,249.43 477.5,505.7 -2.98,256.25 -176.8,458.95 -388.22,452.67 -211.42,-6.26 -380.38,-219.07 -377.39,-475.33" /><path
         id="path68"
         style="fill:#42399b;fill-opacity:1;fill-rule:evenodd;stroke:none"
         d="m 1840.39,1299.75 c 0,0 157.9,-130.67 364.28,-66.85 0,0 -214.93,-180.84 -364.28,66.85" /><path
         id="path70"
         style="fill:#c470bf;fill-opacity:1;fill-rule:evenodd;stroke:none"
         d="m 1915.94,2323.8 c 20.95,-42.79 -4.07,-98.06 -55.9,-123.44 -51.83,-25.37 -110.83,-11.25 -131.78,31.54 -20.96,42.8 4.07,98.07 55.9,123.44 51.83,25.38 110.83,11.26 131.78,-31.54" /><g
         id="g72"><g
           clip-path="url(#clipPath78)"
           id="g74"><path
             id="path80"
             style="fill:#c470bf;fill-opacity:1;fill-rule:evenodd;stroke:none"
             d="m 1509.08,2199.25 c -23.83,-41.26 -83.66,-51.33 -133.64,-22.47 -49.97,28.86 -71.17,85.69 -47.34,126.96 23.82,41.27 83.65,51.33 133.62,22.48 49.98,-28.86 71.18,-85.7 47.36,-126.97" /></g></g><path
         id="path82"
         style="fill:#393086;fill-opacity:1;fill-rule:nonzero;stroke:none"
         d="m 1420.02,2694.32 c 0,0 49.42,88.31 130.22,0 80.81,-88.32 43.25,-229.24 235.6,-253.06 192.35,-23.83 71.84,-207.51 205.77,-200.03 l 14.55,-314.44 c 0,0 351.64,491.88 169.17,777.79 -182.46,285.9 -627.76,373.76 -755.31,-10.26" /><path
         id="path84"
         style="fill:#d894d0;fill-opacity:1;fill-rule:nonzero;stroke:none"
         d="m 1939.28,2230.52 65.49,158.4 c 0,0 88.9,33.75 103.17,-41.85 14.19,-75.62 -91.72,-137.65 -168.66,-116.55" /><path
         id="path86"
         style="fill:#7364b8;fill-opacity:1;fill-rule:evenodd;stroke:none"
         d="M 891.543,775.609 H 1878.7 v -96.48 H 891.543 v 96.48" /><path
         id="path88"
         style="fill:#7364b8;fill-opacity:1;fill-rule:evenodd;stroke:none"
         d="M 1354.8,698.148 1240.13,1767.68 63.7734,1685.72 246.387,698.129 1354.8,698.148" /><path
         id="path90"
         style="fill:#4c42a2;fill-opacity:1;fill-rule:evenodd;stroke:none"
         d="M 1280.53,681.852 1171.41,1766.69 0,1682.71 177.141,681.02 1280.53,681.852" /><path
         id="path92"
         style="fill:#7364b8;fill-opacity:1;fill-rule:evenodd;stroke:none"
         d="m 609.488,1334.37 c 56.965,24.61 123.602,-14.79 148.84,-87.99 25.238,-73.22 -0.484,-152.5 -57.453,-177.12 -56.969,-24.61 -123.605,14.78 -148.844,87.99 -25.234,73.21 0.489,152.51 57.457,177.12" /><path
         id="path94"
         style="fill:#4c42a2;fill-opacity:1;fill-rule:evenodd;stroke:none"
         d="m 3071.25,1803.1 c 0,0 -241.23,116.14 -85.75,260.53 155.46,144.39 -156.45,246.74 -67.37,394.41 89.07,147.66 192.82,79.87 209.63,177.03 16.82,97.18 -107.53,171.51 -27.27,313.3 80.24,141.79 173.71,203.25 289.68,185.18 115.94,-18.08 -35.15,-305.04 83.79,-362.22 118.93,-57.16 102.73,-240.65 -78.98,-400.17 -181.71,-159.53 109.64,-261.22 -61.34,-371.26 -170.97,-110.05 -262.39,-196.8 -262.39,-196.8" /><path
         id="path96"
         style="fill:#4c42a2;fill-opacity:1;fill-rule:evenodd;stroke:none"
         d="m 2845.62,1499.34 c 0,0 168.94,158.45 35.78,223.68 -133.16,65.23 90.58,233.6 7.1,320.54 -83.48,86.95 -154.16,5.18 -177.6,74.48 -23.43,69.3 3.91,168.39 -48.89,269.58 -68.92,132.09 -193.34,130.34 -267.79,36 -60.48,-76.65 124,-223.69 40.69,-301.74 -83.3,-78.05 -50.77,-213.42 103.83,-282.61 154.61,-69.19 -53.7,-231.11 87.34,-265.64 141.04,-34.52 219.54,-74.29 219.54,-74.29" /><path
         id="path98"
         style="fill:#393086;fill-opacity:1;fill-rule:evenodd;stroke:none"
         d="m 3312.62,2932.24 3.04,-1.04 2.78,-1.65 2.36,-2.18 1.88,-2.63 1.26,-2.97 0.63,-3.16 -0.04,-3.22 -0.71,-3.14 -1.88,-5.55 -1.84,-5.55 -1.86,-5.54 -1.82,-5.57 -1.8,-5.55 -1.8,-5.57 -1.77,-5.58 -1.76,-5.59 -1.75,-5.58 -1.74,-5.6 -1.72,-5.61 -1.7,-5.61 -1.69,-5.61 -1.68,-5.62 -1.65,-5.63 -1.65,-5.64 -1.63,-5.64 -1.62,-5.66 -1.6,-5.66 -1.6,-5.66 -1.57,-5.66 -1.58,-5.67 -1.54,-5.69 -1.55,-5.68 -1.53,-5.69 -1.51,-5.7 -1.51,-5.69 -1.5,-5.72 -1.48,-5.7 -1.47,-5.71 -1.45,-5.73 -1.46,-5.73 -1.43,-5.73 -1.44,-5.73 -1.41,-5.74 -1.41,-5.74 -1.4,-5.76 -1.38,-5.75 -1.38,-5.76 -1.36,-5.76 -1.36,-5.77 -1.35,-5.77 -1.34,-5.77 -1.34,-5.78 -1.32,-5.78 -1.31,-5.77 -1.3,-5.8 -1.3,-5.79 -1.29,-5.8 -1.28,-5.79 -2.55,-11.61 -2.51,-11.62 -2.5,-11.62 -2.46,-11.65 -2.42,-11.64 -2.42,-11.66 -2.4,-11.65 -2.37,-11.68 -2.35,-11.68 -2.35,-11.69 -2.32,-11.69 -2.31,-11.69 -2.28,-11.7 -2.3,-11.69 -2.27,-11.7 -4.52,-23.42 -4.51,-23.41 -4.51,-23.39 -4.5,-23.39 -4.51,-23.38 -2.27,-11.68 -2.27,-11.67 -2.3,-11.66 -2.28,-11.65 -2.32,-11.65 -2.32,-11.64 -2.33,-11.62 -2.37,-11.62 -2.37,-11.6 -2.4,-11.59 -2.41,-11.59 -2.45,-11.55 -2.46,-11.55 -2.49,-11.52 -6.91,-31.82 -6.96,-31.81 -6.98,-31.81 -7.01,-31.81 -7.01,-31.81 -7.02,-31.81 -14.09,-63.63 -14.11,-63.63 -7.05,-31.82 -7.03,-31.82 -7.03,-31.84 -7.01,-31.81 -6.99,-31.84 -6.97,-31.83 -6.95,-31.84 -6.91,-31.85 -3.46,-15.92 -3.44,-15.92 -3.42,-15.92 -3.43,-15.92 -3.4,-15.93 -3.41,-15.92 -3.39,-15.93 -3.37,-15.93 -3.37,-15.92 -3.36,-15.94 -3.34,-15.92 -3.33,-15.94 -3.31,-15.93 -3.3,-15.94 -3.28,-15.93 -3.28,-15.94 -3.25,-15.94 -3.24,-15.94 -3.23,-15.93 -3.21,-15.95 -3.19,-15.95 -3.17,-15.94 -3.16,-15.94 -3.14,-15.94 -3.11,-15.96 -3.11,-15.95 -3.07,-15.94 -3.06,-15.97 -0.94,-3.08 -1.55,-2.83 -2.11,-2.44 -2.57,-1.94 -2.92,-1.37 -3.13,-0.73 -3.22,-0.07 -3.18,0.62 -2.97,1.24 -2.63,1.84 -2.21,2.36 -1.67,2.76 -1.05,3.04 -0.41,3.2 0.28,3.21 3.05,15.98 3.1,15.98 3.11,15.99 3.12,15.99 3.14,15.97 3.17,15.99 3.17,15.98 3.2,15.97 3.22,15.97 3.22,15.97 3.26,15.97 3.26,15.97 3.27,15.97 3.3,15.95 3.31,15.96 3.32,15.97 3.33,15.96 3.34,15.94 3.36,15.96 3.38,15.95 3.38,15.94 3.38,15.96 3.41,15.94 3.42,15.95 3.42,15.93 3.43,15.94 3.45,15.94 3.45,15.95 6.91,31.86 6.97,31.87 6.97,31.85 7,31.84 7.02,31.84 7.03,31.85 7.04,31.83 7.04,31.82 14.11,63.64 14.08,63.62 7.03,31.79 7.01,31.81 7,31.79 6.97,31.78 6.95,31.79 6.91,31.77 2.48,11.46 2.45,11.49 2.43,11.49 2.39,11.53 2.38,11.52 2.37,11.55 2.34,11.56 2.34,11.58 2.32,11.6 2.29,11.61 2.29,11.62 2.29,11.64 2.27,11.64 2.26,11.65 4.51,23.34 4.5,23.38 4.5,23.4 4.51,23.43 4.54,23.43 2.27,11.73 2.3,11.73 2.29,11.73 2.32,11.72 2.33,11.74 2.34,11.72 2.37,11.73 2.38,11.72 2.41,11.72 2.42,11.71 2.45,11.72 2.47,11.7 2.51,11.7 2.53,11.69 2.56,11.68 1.29,5.84 1.3,5.84 1.31,5.84 1.32,5.82 1.33,5.84 1.32,5.82 1.35,5.83 1.34,5.83 1.37,5.81 1.37,5.82 1.38,5.81 1.39,5.8 1.4,5.82 1.41,5.8 1.42,5.8 1.43,5.79 1.45,5.8 1.45,5.79 1.46,5.78 1.47,5.78 1.49,5.78 1.5,5.77 1.51,5.77 1.53,5.77 1.52,5.76 1.55,5.76 1.56,5.75 1.58,5.74 1.59,5.75 1.6,5.74 1.61,5.73 1.62,5.73 1.64,5.73 1.66,5.71 1.66,5.72 1.69,5.7 1.7,5.7 1.7,5.7 1.74,5.7 1.74,5.68 1.75,5.67 1.77,5.67 1.79,5.68 1.81,5.66 1.81,5.65 1.84,5.65 1.86,5.64 1.87,5.64 1.89,5.63 1.89,5.59 1.35,2.94 1.93,2.58 2.41,2.13 2.83,1.57 3.06,0.96 3.21,0.3 3.21,-0.37" /><path
         id="path100"
         style="fill:#393086;fill-opacity:1;fill-rule:evenodd;stroke:none"
         d="m 2540.48,2343.52 2.65,-0.5 2.51,-0.96 2.3,-1.38 2.03,-1.75 1.7,-2.08 1.31,-2.36 1.68,-3.75 1.69,-3.77 3.35,-7.56 3.32,-7.58 3.3,-7.61 3.28,-7.63 3.25,-7.65 3.23,-7.67 3.22,-7.7 3.19,-7.71 3.16,-7.73 3.16,-7.76 3.13,-7.77 3.12,-7.79 3.09,-7.8 3.08,-7.82 3.06,-7.84 3.04,-7.85 3.03,-7.86 3.02,-7.89 3,-7.9 2.99,-7.9 2.95,-7.92 2.96,-7.92 2.95,-7.94 2.93,-7.94 2.92,-7.95 2.9,-7.97 2.9,-7.98 2.89,-7.98 2.87,-7.99 2.88,-7.99 2.86,-7.98 2.85,-8.01 2.84,-8.01 5.66,-16.02 5.64,-16.02 5.62,-16.04 5.61,-16.01 5.6,-16.02 11.16,-31.99 5.57,-15.96 5.59,-15.92 5.59,-15.9 5.6,-15.85 2.8,-7.91 2.82,-7.9 2.82,-7.88 2.82,-7.88 2.83,-7.86 2.84,-7.85 2.84,-7.81 2.85,-7.82 7.92,-21.65 7.94,-21.65 7.95,-21.66 7.96,-21.66 15.94,-43.32 15.96,-43.31 15.98,-43.35 15.96,-43.34 15.96,-43.37 7.97,-21.7 7.97,-21.7 7.95,-21.71 7.94,-21.72 7.93,-21.72 7.91,-21.73 7.9,-21.74 7.88,-21.74 7.86,-21.76 7.84,-21.77 7.82,-21.78 7.81,-21.77 7.77,-21.81 7.74,-21.81 7.73,-21.82 3.85,-10.91 3.84,-10.93 3.84,-10.92 3.83,-10.92 3.82,-10.93 3.81,-10.93 0.66,-2.61 0.19,-2.67 -0.27,-2.68 -0.73,-2.59 -1.17,-2.41 -1.56,-2.19 -1.94,-1.87 -2.21,-1.51 -2.46,-1.1 -2.6,-0.66 -2.69,-0.2 -2.66,0.27 -2.59,0.73 -2.42,1.17 -2.18,1.57 -1.88,1.93 -1.51,2.22 -1.1,2.45 -3.8,10.92 -3.82,10.91 -3.82,10.9 -3.83,10.9 -3.84,10.9 -3.83,10.89 -7.71,21.79 -7.73,21.78 -7.77,21.76 -7.78,21.75 -7.81,21.75 -7.84,21.74 -7.86,21.73 -7.87,21.72 -7.89,21.72 -7.9,21.7 -7.93,21.7 -7.93,21.69 -7.95,21.7 -7.96,21.68 -7.95,21.69 -15.96,43.35 -15.97,43.35 -15.97,43.34 -15.96,43.32 -15.95,43.33 -7.97,21.67 -7.95,21.67 -7.95,21.67 -7.93,21.67 -2.86,7.86 -2.86,7.86 -2.84,7.88 -2.85,7.9 -2.83,7.92 -2.84,7.92 -2.81,7.92 -2.82,7.94 -5.62,15.89 -5.61,15.94 -5.59,15.96 -5.58,15.97 -11.18,32 -5.57,16 -5.61,16.01 -5.6,16 -5.63,15.98 -5.65,15.98 -2.83,7.98 -2.85,7.96 -2.84,7.97 -2.86,7.95 -2.86,7.96 -2.87,7.93 -2.88,7.93 -2.89,7.92 -2.9,7.91 -2.92,7.9 -2.92,7.88 -2.94,7.87 -2.95,7.86 -2.96,7.85 -2.97,7.83 -3,7.81 -3,7.8 -3.01,7.79 -3.03,7.76 -3.05,7.74 -3.07,7.74 -3.08,7.7 -3.1,7.69 -3.12,7.68 -3.14,7.64 -3.15,7.63 -3.17,7.6 -3.2,7.57 -3.21,7.56 -3.23,7.53 -3.25,7.5 -3.29,7.47 -3.3,7.46 -1.66,3.71 -1.67,3.72 -0.87,2.54 -0.43,2.66 0.03,2.68 0.51,2.64 0.96,2.51 1.38,2.31 1.75,2.03 2.08,1.7 2.35,1.31 2.54,0.89 2.65,0.42 2.69,-0.04" /><path
         id="path102"
         style="fill:#da94d0;fill-opacity:1;fill-rule:evenodd;stroke:none"
         d="M 3158.07,1277.98 H 2548.69 V 940.91 c 0,-107.058 138.98,-255.66 138.98,-255.66 l 320.59,-6.719 c 0,0 149.81,150.758 149.81,262.379 v 337.07" /></g></g></svg>